<svg id="bold" enable-background="new 0 0 24 24" height="512" viewBox="0 0 24 24" width="512" xmlns="http://www.w3.org/2000/svg"><path d="m7.75 11c-.414 0-.75-.336-.75-.75v-4.5c0-.414.336-.75.75-.75s.75.336.75.75v4.5c0 .414-.336.75-.75.75z"/><path d="m16.25 11c-.414 0-.75-.336-.75-.75v-4.5c0-.414.336-.75.75-.75s.75.336.75.75v4.5c0 .414-.336.75-.75.75z"/><path d="m16.25 19c-.414 0-.75-.336-.75-.75v-4.5c0-.414.336-.75.75-.75s.75.336.75.75v4.5c0 .414-.336.75-.75.75z"/><path d="m13.25 19c-.414 0-.75-.336-.75-.75v-4.5c0-.414.336-.75.75-.75s.75.336.75.75v4.5c0 .414-.336.75-.75.75z"/><path d="m12.5 5h-1c-.96 0-1.75.79-1.75 1.75v2.5c0 .96.79 1.75 1.75 1.75h1c.96 0 1.75-.79 1.75-1.75v-2.5c0-.96-.79-1.75-1.75-1.75zm.25 4.25c0 .14-.11.25-.25.25h-1c-.14 0-.25-.11-.25-.25v-2.5c0-.14.11-.25.25-.25h1c.14 0 .25.11.25.25z"/><path d="m9.75 13h-1c-.96 0-1.75.79-1.75 1.75v2.5c0 .96.79 1.75 1.75 1.75h1c.96 0 1.75-.79 1.75-1.75v-2.5c0-.96-.79-1.75-1.75-1.75zm.25 4.25c0 .14-.11.25-.25.25h-1c-.14 0-.25-.11-.25-.25v-2.5c0-.14.11-.25.25-.25h1c.14 0 .25.11.25.25z"/><path d="m18.25 0h-12.5c-1.65 0-3 1.35-3 3v18c0 1.65 1.35 3 3 3h12.5c1.65 0 3-1.35 3-3v-18c0-1.65-1.35-3-3-3zm1 21c0 .55-.45 1-1 1h-12.5c-.55 0-1-.45-1-1v-18c0-.55.45-1 1-1h12.5c.55 0 1 .45 1 1z"/></svg>