<svg id="bold" enable-background="new 0 0 24 24" height="512" viewBox="0 0 24 24" width="512" xmlns="http://www.w3.org/2000/svg"><path d="m7.75 6c-.414 0-.75-.336-.75-.75v-4.5c0-.414.336-.75.75-.75s.75.336.75.75v4.5c0 .414-.336.75-.75.75z"/><path d="m16.25 6c-.414 0-.75-.336-.75-.75v-4.5c0-.414.336-.75.75-.75s.75.336.75.75v4.5c0 .414-.336.75-.75.75z"/><path d="m16.25 14c-.414 0-.75-.336-.75-.75v-4.5c0-.414.336-.75.75-.75s.75.336.75.75v4.5c0 .414-.336.75-.75.75z"/><path d="m13.25 14c-.414 0-.75-.336-.75-.75v-4.5c0-.414.336-.75.75-.75s.75.336.75.75v4.5c0 .414-.336.75-.75.75z"/><path d="m12.5 0h-1c-.96 0-1.75.79-1.75 1.75v2.5c0 .96.79 1.75 1.75 1.75h1c.96 0 1.75-.79 1.75-1.75v-2.5c0-.96-.79-1.75-1.75-1.75zm.25 4.25c0 .14-.11.25-.25.25h-1c-.14 0-.25-.11-.25-.25v-2.5c0-.14.11-.25.25-.25h1c.14 0 .25.11.25.25z"/><path d="m9.75 8h-1c-.96 0-1.75.79-1.75 1.75v2.5c0 .96.79 1.75 1.75 1.75h1c.96 0 1.75-.79 1.75-1.75v-2.5c0-.96-.79-1.75-1.75-1.75zm.25 4.25c0 .14-.11.25-.25.25h-1c-.14 0-.25-.11-.25-.25v-2.5c0-.14.11-.25.25-.25h1c.14 0 .25.11.25.25z"/><path d="m22.25 4h-3.25v1.25c0 .26-.04.51-.11.75h3.11v11h-20v-11h3.11c-.07-.24-.11-.49-.11-.75v-1.25h-3.25c-.96 0-1.75.79-1.75 1.75v13.5c0 .96.79 1.75 1.75 1.75h7.658c-.118.501-.429 1.314-1.262 2.146-.143.143-.186.358-.108.545.077.187.26.309.462.309h7c.202 0 .385-.122.462-.309s.034-.402-.108-.545c-.831-.831-1.151-1.644-1.275-2.146h7.671c.96 0 1.75-.79 1.75-1.75v-13.5c0-.96-.79-1.75-1.75-1.75z"/></svg>