<svg viewBox="0 0 210 210" xmlns="http://www.w3.org/2000/svg">
<g transform="matrix(3.5717 0 0 3.3481 469.57 -201.26)" stroke-width=".084667" fill="#000000">
<path d="m-100.5 116.52c0.0611-0.0245 0.13414-0.0215 0.16228 7e-3 0.0281 0.0281-0.0219 0.0481-0.11113 0.0445-0.0986-4e-3 -0.11869-0.0241-0.0511-0.0512zm-9.5579-13.129-0.20526-0.23283 0.23284 0.20526c0.21761 0.19184 0.27166 0.2604 0.20525 0.2604-0.0152 0-0.11994-0.10477-0.23283-0.23283zm21.85-0.3175c0.15797-0.16298 0.30627-0.29633 0.32955-0.29633 0.02328 0-0.08692 0.13335-0.24488 0.29633-0.15797 0.16298-0.30627 0.29633-0.32955 0.29633-0.02328 0 0.08692-0.13335 0.24488-0.29633zm-34.713-33.01c0-0.01758 0.0667-0.08426 0.14816-0.14817 0.13429-0.10531 0.13728-0.10232 0.032 0.03197-0.11061 0.14103-0.18013 0.18588-0.18013 0.1162z"/>
<path d="m-92.285 83.321c-0.10531-0.13429-0.10232-0.13728 0.03197-0.03197 0.14103 0.11061 0.18588 0.18013 0.1162 0.18013-0.01758 0-0.08426-0.06668-0.14817-0.14817zm11.942-8.636-0.20526-0.23283 0.23283 0.20526c0.12806 0.11289 0.23283 0.21767 0.23283 0.23283 0 0.0664-0.06856 0.01236-0.26041-0.20526zm-42.031-5.1858c0.18188-0.18627 0.34975-0.33867 0.37303-0.33867 0.0233 0-0.10648 0.1524-0.28836 0.33867-0.18189 0.18627-0.34975 0.33867-0.37304 0.33867-0.0233 0 0.10649-0.1524 0.28837-0.33867z"/>
<path d="m-77.119 113.92c0-0.0176 0.06668-0.0843 0.14817-0.14817 0.13429-0.10531 0.13728-0.10232 0.03197 0.032-0.11061 0.14103-0.18013 0.18588-0.18013 0.1162zm-33.189-33.697c0-0.01758 0.0667-0.08426 0.14817-0.14817 0.13428-0.10531 0.13728-0.10232 0.032 0.03197-0.1106 0.14103-0.18013 0.18588-0.18013 0.1162zm29.623-5.8735c-0.10531-0.13429-0.10232-0.13728 0.03197-0.03197 0.14103 0.11061 0.18588 0.18013 0.1162 0.18013-0.01758 0-0.08426-0.06667-0.14817-0.14817z"/>
<path d="m-100.84 122.78c0.0611-0.0245 0.13415-0.0215 0.16228 7e-3 0.0281 0.0281-0.0219 0.0482-0.11113 0.0445-0.0986-4e-3 -0.11869-0.0241-0.0512-0.0511zm24.312-9.446c0.35086-0.37382 0.42687-0.44103 0.42687-0.37746 0 0.0136-0.18098 0.19457-0.40217 0.40217l-0.40217 0.37746zm-3.8911-4.9318c0.15797-0.16298 0.30627-0.29633 0.32955-0.29633 0.02328 0-0.08691 0.13335-0.24488 0.29633-0.15797 0.16298-0.30627 0.29633-0.32955 0.29633-0.02328 0 0.08691-0.13335 0.24488-0.29633zm-26.173-8.4032c-0.10531-0.13428-0.10232-0.13728 0.032-0.03196 0.14103 0.1106 0.18588 0.18013 0.1162 0.18013-0.0176 0-0.0843-0.0667-0.14817-0.14817zm14.997-0.3175c0.10937-0.11642 0.2179-0.21167 0.24118-0.21167 0.02328 0-0.04715 0.09525-0.15652 0.21167s-0.2179 0.21167-0.24118 0.21167c-0.02328 0 0.04715-0.09525 0.15652-0.21167zm-18.457-19.717c0-0.01758 0.0667-0.08426 0.14817-0.14817 0.13428-0.10531 0.13728-0.10232 0.032 0.03197-0.1106 0.14103-0.18013 0.18588-0.18013 0.1162zm9.2128-19.838c0.0611-0.02446 0.13415-0.02145 0.16228 0.0067 0.0281 0.02813-0.0219 0.04814-0.11113 0.04447-0.0986-0.0041-0.11869-0.02412-0.0512-0.05115z"/>
<path d="m-80.929 108.92c0-0.0176 0.06668-0.0843 0.14817-0.14817 0.13429-0.10531 0.13728-0.10232 0.03197 0.032-0.11061 0.14103-0.18013 0.18588-0.18013 0.1162zm-25.919-9.1755c-0.10531-0.13429-0.10232-0.13728 0.032-0.03197 0.14103 0.11061 0.18588 0.18013 0.1162 0.18013-0.0176 0-0.0843-0.06668-0.14817-0.14817zm8.8849-39.618c0.06112-0.02446 0.13414-0.02145 0.16228 0.0067 0.02813 0.02813-0.02187 0.04814-0.11112 0.04447-0.09863-0.0041-0.11869-0.02412-0.05115-0.05115z"/>
<path d="m-100.42 122.78c0.0611-0.0245 0.13415-0.0215 0.16228 7e-3 0.0281 0.0281-0.0219 0.0482-0.11112 0.0445-0.0986-4e-3 -0.1187-0.0241-0.0512-0.0511zm-21.958-9.446-0.42015-0.4445 0.4445 0.42015c0.41303 0.39042 0.48332 0.46885 0.42015 0.46885-0.0134 0-0.21342-0.20002-0.4445-0.4445zm-9.0918-20.518c4e-3 -0.09863 0.0241-0.11869 0.0512-0.05115 0.0245 0.06112 0.0214 0.13414-7e-3 0.16228-0.0281 0.02813-0.0481-0.02187-0.0445-0.11112zm55.947-22.366c-0.10531-0.13429-0.10232-0.13728 0.03197-0.03197 0.14103 0.11061 0.18588 0.18013 0.1162 0.18013-0.01758 0-0.08426-0.06667-0.14817-0.14817zm-24.897-10.324c0.0611-0.02446 0.13415-0.02145 0.16228 0.0067 0.0281 0.02813-0.0219 0.04814-0.11112 0.04447-0.0986-0.0041-0.1187-0.02412-0.0512-0.05115z"/>
<path d="m-101.27 122.76c-6.792-0.44787-13.261-2.9593-18.664-7.2464-1.1579-0.91864-3.8996-3.6954-4.8005-4.8618-3.749-4.8542-5.8927-10.132-6.5856-16.214-0.15544-1.3643-0.12955-5.0632 0.0454-6.477 0.62686-5.0673 2.2751-9.463 5.1966-13.859 2.0518-3.0871 5.1702-6.2012 8.3007-8.289 7.4886-4.9944 16.367-6.7697 25.123-5.0236 3.8896 0.77569 6.8011 1.9007 10.118 3.9096 2.795 1.693 4.959 3.4881 7.385 6.1261 1.2817 1.3936 2.5473 2.9698 2.4766 3.0842-0.02498 0.04042-1.1396 0.86234-2.477 1.8265-1.3374 0.96415-2.4759 1.7869-2.53 1.8284-0.06721 0.05157-0.32007-0.20049-0.79905-0.79652-1.1483-1.4289-1.6661-1.9878-2.9126-3.1436-3.4897-3.2357-5.727-4.6073-9.6187-5.8967-3.1635-1.0481-5.6207-1.4139-8.9512-1.3325-3.5164 0.086-6.3558 0.6998-9.5394 2.0622-3.0383 1.3002-5.5782 2.9735-7.8213 5.1526-1.9744 1.9181-3.5213 3.9988-4.7342 6.3676-1.4976 2.9249-2.3264 5.6455-2.69 8.8301-0.18963 1.6606-0.1304 4.7104 0.12333 6.35 0.6412 4.1435 2.2833 7.9997 4.9034 11.515 0.97019 1.3016 3.3001 3.6274 4.6308 4.6226 3.5413 2.6486 7.6234 4.3552 12.065 5.0441 1.0698 0.1659 1.5544 0.19039 3.7677 0.19039 2.2017 0 2.6979-0.0248 3.7253-0.18633 2.0187-0.31734 4.4473-0.98969 6.3596-1.7606 3.8069-1.5348 8.0277-4.8607 10.817-8.5238 0.29466-0.38696 0.53623-0.62997 0.59267-0.59621 0.41791 0.24993 4.944 3.1991 5.0238 3.2734 0.07902 0.0736 0.0219 0.20221-0.24936 0.56119-1.3487 1.7849-3.5412 4.1369-5.2867 5.6713-5.0329 4.4242-10.831 6.9834-17.342 7.6552-1.6022 0.16528-4.2463 0.22911-5.6517 0.13644zm0.3095-15.073c-2.9545-0.28653-5.712-1.4592-8.0934-3.4418-2.8804-2.3981-4.9279-6.2254-5.4957-10.273-0.16188-1.154-0.14298-3.7174 0.036-4.8814 1.0482-6.8171 6.1468-12.267 12.551-13.416 1.4222-0.25518 3.6461-0.25518 5.0683 0 3.8933 0.69858 7.4892 3.0851 9.7736 6.4866 1.8544 2.7612 2.7442 5.6343 2.9303 9.4615l0.05248 1.0795h-25.753l0.0532 0.4445c0.10518 0.87877 0.45292 2.2602 0.77636 3.0841 1.2322 3.139 4.0325 5.7103 7.0946 6.5146 1.152 0.30257 2.9444 0.37121 4.2044 0.161 3.2102-0.53553 5.9342-2.3437 7.8392-5.2034 0.26566-0.39882 0.48942-0.7374 0.49723-0.75239 0.01557-0.02986 4.0116 2.0882 4.117 2.1822 0.03578 0.0319-0.13853 0.38227-0.38735 0.77859-1.392 2.2172-3.5199 4.3509-5.5256 5.5407-1.7165 1.0182-4.1667 1.8854-6.0543 2.1429-0.95562 0.13032-2.8107 0.1765-3.6848 0.0917zm11.13-20.467c-0.69181-1.9615-1.8932-3.6403-3.4937-4.8825-1.2636-0.98065-2.3208-1.5109-3.8576-1.9351-0.53423-0.14743-0.89157-0.17693-2.2039-0.18195-1.4631-0.0056-1.6218 0.0095-2.4081 0.22883-1.7015 0.47463-3.1848 1.343-4.5411 2.6583-0.88395 0.85727-1.567 1.7484-2.0976 2.7365-0.3087 0.57493-0.85921 1.8892-0.85921 2.0512 0 0.03599 4.4376 0.06543 9.8613 0.06543h9.8613z"/>
</g>
</svg>
