<svg xmlns="http://www.w3.org/2000/svg" viewBox="0 0 210 210"><path d="M111 189c-1 0-1 0 0 0zm-35-44v-1l1 1v1l-1-1zm79-1l1-1-1 1-1 1 1-1zM31 33c1-1 1-1 0 0 0 0 0 1 0 0zm109 45c0-1 0-1 0 0 1 0 1 0 0 0zm43-29l-1-1 1 1h0zM32 31l2-1-1 1-2 2 1-2zM194 180h1c0-1 0-1 0 0h-1zM76 67c1-1 1-1 0 0 0 0 0 1 0 0zm105-19h0zM109 210h1-1zm87-32l2-1-2 1-1 2zm-14-16l2-1-1 1-2 1 1-1zm-93-28v-1 1zm53-2h1l-1 1v-1zM76 66h1c1 0 1 0 0 0h-1zm33-66h1-1zm72 163c1 0 1 0 0 0 0 0 0 1 0 0zm-93-30c0-1 0-1 0 0 1 0 1 0 0 0zM120 0s-1 0 0 0zm-9 210zm-79-32l-1-1 2 1 1 2-2-2zM0 109v0zm200-74c-1-1-1-1 0 0 0 0 1 0 0 0zM111 0z"/><path d="M108 210a124 124 0 01-84-41A102 102 0 011 93c2-17 8-31 18-46 8-10 19-21 30-28a125 125 0 01126-4 113 113 0 0135 31l-9 6-9 6-3-2-10-11a83 83 0 00-34-19 92 92 0 00-66 2 91 91 0 00-45 39 79 79 0 008 89 99 99 0 00109 26 99 99 0 0041-30l18 11-1 2-19 19a112 112 0 01-82 26zm1-51c-11-1-20-5-29-11a55 55 0 01-19-51 55 55 0 0163-45 55 55 0 0145 54v3H77v2l3 10c4 10 14 19 25 22h15c12-2 22-8 28-17l2-3 15 8-1 2c-5 8-13 15-20 19-6 3-15 6-22 7h-13zm40-68c-3-7-7-12-13-17-4-3-8-5-14-6l-7-1-9 1c-6 2-11 5-16 9a37 37 0 00-11 16h71z"/></svg>