<svg xmlns="http://www.w3.org/2000/svg" viewBox="0 0 210 210"><path d="M110.614 188.86c.218-.082.48-.072.58.023s-.078.16-.397.15c-.352-.013-.424-.08-.183-.17zm-34.138-43.957l-.733-.78.832.687c.777.642.97.872.733.872-.054 0-.428-.35-.832-.78zm78.042-1.063c.564-.546 1.094-.992 1.177-.992s-.3.446-.875.992-1.094.992-1.177.992.3-.446.875-.992zM30.533 33.32c0-.06.238-.282.53-.496.48-.353.5-.343.114.107-.395.472-.643.622-.643.4zm109.423 44.387c-.376-.45-.365-.46.114-.107.504.37.664.603.415.603-.063 0-.3-.223-.53-.496zm42.653-28.914l-.733-.78.832.687c.457.378.832.73.832.78 0 .222-.245.04-.93-.687zM32.487 31.43c.65-.624 1.25-1.134 1.332-1.134s-.38.5-1.03 1.134-1.25 1.134-1.332 1.134.38-.5 1.03-1.134z"/><path d="M194.124 180.156c0-.06.238-.282.53-.496.48-.353.5-.343.114.107-.395.472-.643.622-.643.39zM75.583 67.335c0-.06.238-.282.53-.496.48-.353.5-.343.114.107-.395.472-.643.622-.643.39zM181.387 47.67c-.376-.45-.365-.46.114-.107.504.37.664.603.415.603-.063 0-.3-.223-.53-.496z"/><path d="M109.4 209.82c.218-.082.48-.072.58.023s-.078.16-.397.15c-.352-.013-.424-.08-.183-.17zm86.835-31.626c1.253-1.252 1.525-1.477 1.525-1.264 0 .046-.646.65-1.436 1.347l-1.436 1.264zm-13.898-16.512c.564-.546 1.094-.992 1.177-.992s-.3.446-.875.992-1.094.992-1.177.992.3-.446.875-.992zm-93.482-28.135c-.376-.45-.365-.46.114-.107.504.37.664.603.415.603-.063 0-.3-.223-.53-.496zm53.565-1.063c.4-.4.778-.7.86-.7s-.168.32-.56.7-.778.7-.86.7.168-.32.56-.7zM76.497 66.47c0-.06.238-.282.53-.496.48-.353.5-.343.114.107-.395.472-.643.622-.643.4zM109.402.05c.218-.082.48-.072.58.022s-.078.16-.397.15c-.352-.014-.424-.08-.183-.17zm71.114 163.365c0-.06.238-.282.53-.496.48-.353.5-.343.114.107-.395.472-.643.622-.643.4zm-92.575-30.72c-.376-.45-.365-.46.114-.107.504.37.664.603.415.603-.063 0-.3-.223-.53-.496zM119.675.05c.218-.082.48-.072.58.022s-.078.16-.397.15c-.352-.014-.424-.08-.183-.17zM110.9 209.82c.218-.082.48-.072.58.023s-.078.16-.397.15c-.352-.013-.424-.08-.183-.17zm-78.427-31.626l-1.5-1.488 1.588 1.407c1.475 1.307 1.726 1.57 1.5 1.57-.048 0-.762-.67-1.588-1.488zM-.001 109.497c.014-.33.086-.397.183-.17.088.205.076.45-.025.543s-.172-.073-.16-.372zm199.826-74.884c-.376-.45-.365-.46.114-.107.504.37.664.603.415.603-.063 0-.3-.223-.53-.496zM110.9.048c.218-.082.48-.072.58.022s-.078.16-.397.15c-.352-.014-.424-.08-.183-.17z"/><path d="M107.864 209.753c-24.26-1.5-47.364-9.908-66.662-24.262-4.136-3.076-13.928-12.373-17.146-16.278C10.665 152.96 3.01 135.3.534 114.927-.02 110.36.07 97.975.696 93.242c2.24-16.966 8.126-31.683 18.56-46.4 7.328-10.336 18.466-20.762 29.648-27.752C75.65 2.366 107.362-3.578 138.636 2.268c13.892 2.597 24.29 6.364 36.138 13.1 9.983 5.668 17.712 11.68 26.377 20.51 4.578 4.666 9.098 9.943 8.846 10.326-.09.135-4.07 2.887-8.847 6.115l-9.036 6.122c-.24.173-1.143-.67-2.854-2.667-4.1-4.784-5.95-6.655-10.403-10.525-12.464-10.833-20.455-15.426-34.355-19.743-11.3-3.51-20.075-4.734-31.97-4.46-12.56.288-22.7 2.343-34.072 6.904-10.852 4.353-19.924 9.956-27.935 17.25-7.052 6.422-12.577 13.388-16.91 21.32-5.35 9.793-8.31 18.902-9.608 29.564-.677 5.56-.466 15.77.44 21.26 2.3 13.873 8.155 26.784 17.513 38.553 3.465 4.358 11.787 12.145 16.54 15.477 12.648 8.868 27.228 14.582 43.093 16.888 3.82.555 5.552.637 13.457.637 7.864 0 9.636-.083 13.306-.624 7.2-1.062 15.884-3.314 22.715-5.895 13.597-5.14 28.673-16.274 38.635-28.54 1.052-1.296 1.915-2.11 2.117-1.996 1.493.837 17.658 10.71 17.944 10.96s.078.677-.89 1.88c-4.817 5.976-12.648 13.85-18.883 18.988-17.976 14.813-38.685 23.38-61.94 25.63-5.723.553-15.167.767-20.186.457zm1.105-50.466c-10.553-.96-20.402-4.886-28.907-11.523-10.288-8.03-17.6-20.843-19.63-34.395-.578-3.864-.51-12.446.13-16.343C64.306 74.2 82.516 55.954 105.4 52.107c5.08-.854 13.023-.854 18.102 0 13.906 2.34 26.75 10.33 34.908 21.718 6.623 9.245 9.8 18.864 10.466 31.678l.187 3.614H77.073l.2 1.488c.376 2.942 1.618 7.567 2.773 10.326 4.4 10.5 14.403 19.12 25.34 21.812 4.115 1.013 10.517 1.243 15.017.54 11.466-1.793 21.195-7.847 28-17.422l1.776-2.52c.056-.1 14.328 6.992 14.705 7.306.128.107-.495 1.28-1.383 2.607-4.972 7.423-12.572 14.567-19.736 18.55-6.13 3.41-14.882 6.313-21.624 7.175-3.413.436-10.04.59-13.16.307zm39.753-68.526c-2.47-6.567-6.762-12.188-12.478-16.347-4.513-3.283-8.29-5.06-13.778-6.48-1.908-.494-3.184-.592-7.872-.61-5.226-.02-5.793.032-8.6.766-6.077 1.59-11.375 4.496-16.22 8.9-3.157 2.87-5.597 5.854-7.492 9.162-1.103 1.925-3.07 6.325-3.07 6.868 0 .12 15.85.22 35.222.22h35.222z"/></svg>