<?xml version="1.0" encoding="UTF-8" standalone="no"?>
<!DOCTYPE svg PUBLIC "-//W3C//DTD SVG 20010904//EN"
              "http://www.w3.org/TR/2001/REC-SVG-20010904/DTD/svg10.dtd">

<svg xmlns="http://www.w3.org/2000/svg"
     width="631.393mm" height="220.106mm"
     viewBox="0 0 1790 624">
  <path id="Selection"
        fill="white" fill-opacity="0.4" stroke="white" stroke-opacity="0.4" stroke-width="1"
        d="M 191.00,330.00
           C 191.00,330.00 162.00,317.69 162.00,317.69
             134.52,302.89 111.36,280.88 95.45,254.00
             50.19,177.51 73.55,76.90 148.00,28.08
             172.91,11.74 203.11,1.33 233.00,1.00
             233.00,1.00 253.00,1.00 253.00,1.00
             267.24,1.17 289.71,7.08 303.00,12.40
             320.84,19.53 338.73,30.28 353.00,43.17
             407.81,92.67 424.52,171.85 393.69,239.00
             375.36,278.94 342.78,309.37 302.00,325.55
             282.17,333.42 267.72,333.81 259.00,337.00
             267.11,337.73 279.29,342.32 287.00,345.40
             313.86,356.14 337.64,373.25 356.71,395.00
             362.77,401.91 368.39,409.36 373.49,417.00
             376.03,420.81 379.70,427.73 383.10,430.35
             386.09,432.66 391.36,434.06 395.00,435.42
             395.00,435.42 425.00,445.34 425.00,445.34
             454.34,454.50 487.35,461.85 518.00,464.09
             518.00,464.09 530.00,465.00 530.00,465.00
             530.00,465.00 551.00,465.00 551.00,465.00
             551.00,465.00 561.00,464.09 561.00,464.09
             591.71,461.84 624.28,452.73 653.00,441.81
             659.60,439.30 683.44,429.90 687.90,426.37
             691.56,423.46 696.18,413.56 698.86,409.00
             703.54,401.04 710.78,391.74 717.09,385.00
             738.89,361.70 776.84,344.05 809.00,344.00
             809.00,344.00 823.00,344.00 823.00,344.00
             853.57,344.36 890.92,362.10 911.72,384.09
             918.69,391.46 924.87,399.44 930.31,408.00
             932.72,411.79 935.29,418.61 939.10,420.57
             941.98,422.05 954.01,422.79 958.00,423.28
             976.18,425.52 994.68,425.09 1013.00,425.00
             1013.00,425.00 1037.00,423.08 1037.00,423.08
             1067.02,420.68 1108.42,411.72 1130.91,390.71
             1134.93,386.96 1141.26,378.72 1144.30,374.00
             1150.21,364.83 1155.98,355.12 1156.00,344.00
             1156.00,344.00 1156.00,318.00 1156.00,318.00
             1156.00,318.00 1155.00,295.00 1155.00,295.00
             1155.00,295.00 1193.00,290.28 1193.00,290.28
             1193.00,290.28 1250.00,282.72 1250.00,282.72
             1250.00,282.72 1286.00,278.00 1286.00,278.00
             1286.00,278.00 1286.00,64.00 1286.00,64.00
             1286.02,54.82 1286.02,56.24 1300.00,49.25
             1312.13,43.18 1326.13,37.29 1339.00,33.00
             1359.86,26.04 1381.04,20.26 1403.00,18.04
             1403.00,18.04 1411.00,18.04 1411.00,18.04
             1411.00,18.04 1422.00,17.02 1422.00,17.02
             1422.00,17.02 1431.00,17.91 1431.00,17.91
             1453.21,19.53 1474.51,25.83 1495.00,34.42
             1504.81,38.54 1515.78,43.73 1525.00,49.00
             1527.75,50.57 1534.66,54.17 1536.40,56.38
             1538.32,58.80 1537.99,62.09 1538.00,65.00
             1538.00,65.00 1538.00,255.00 1538.00,255.00
             1538.00,257.38 1537.79,260.70 1539.02,262.79
             1540.51,265.31 1546.32,268.22 1549.00,269.70
             1549.00,269.70 1573.00,282.78 1573.00,282.78
             1573.00,282.78 1648.00,323.86 1648.00,323.86
             1648.00,323.86 1687.00,345.00 1687.00,345.00
             1685.17,352.51 1686.01,373.11 1686.00,382.00
             1686.00,384.63 1685.55,389.62 1686.88,391.78
             1688.41,394.25 1692.45,395.54 1695.00,396.89
             1695.00,396.89 1712.00,406.69 1712.00,406.69
             1729.72,418.10 1743.62,431.66 1754.15,450.00
             1782.26,498.97 1789.00,568.33 1789.00,624.00
             1789.00,624.00 1662.00,624.00 1662.00,624.00
             1663.84,616.42 1662.99,595.03 1663.00,586.00
             1663.00,586.00 1663.91,574.00 1663.91,574.00
             1664.38,565.59 1658.74,556.42 1653.71,550.00
             1637.37,529.14 1616.20,523.96 1591.00,524.07
             1591.00,524.07 1582.00,524.07 1582.00,524.07
             1578.53,523.66 1576.41,521.32 1574.00,518.98
             1568.21,513.38 1564.32,508.86 1560.06,502.00
             1547.06,481.04 1541.78,448.87 1548.15,425.00
             1553.14,406.34 1563.95,392.45 1579.00,380.67
             1585.91,375.26 1591.91,370.69 1601.00,371.04
             1616.31,371.63 1654.04,379.88 1668.00,386.00
             1668.00,386.00 1668.00,364.00 1668.00,364.00
             1668.00,364.00 1666.98,356.21 1666.98,356.21
             1666.98,356.21 1656.00,348.78 1656.00,348.78
             1656.00,348.78 1631.00,335.22 1631.00,335.22
             1631.00,335.22 1510.00,269.00 1510.00,269.00
             1510.00,269.00 1510.00,391.00 1510.00,391.00
             1510.00,391.00 1509.00,406.00 1509.00,406.00
             1509.00,406.00 1509.00,599.00 1509.00,599.00
             1509.00,599.00 1508.00,614.00 1508.00,614.00
             1508.00,614.00 1508.00,624.00 1508.00,624.00
             1508.00,624.00 1491.00,624.00 1491.00,624.00
             1491.00,624.00 1491.00,441.00 1491.00,441.00
             1491.00,441.00 1492.00,426.00 1492.00,426.00
             1492.00,426.00 1492.00,268.00 1492.00,268.00
             1492.00,268.00 1455.00,273.28 1455.00,273.28
             1455.00,273.28 1380.00,283.28 1380.00,283.28
             1380.00,283.28 1173.00,311.00 1173.00,311.00
             1173.00,311.00 1174.00,328.00 1174.00,328.00
             1174.00,328.00 1174.00,370.00 1174.00,370.00
             1174.00,370.00 1175.00,387.00 1175.00,387.00
             1175.00,387.00 1175.00,429.00 1175.00,429.00
             1175.00,429.00 1176.00,446.00 1176.00,446.00
             1176.00,446.00 1176.00,491.00 1176.00,491.00
             1176.00,491.00 1177.00,506.00 1177.00,506.00
             1177.00,506.00 1177.00,548.00 1177.00,548.00
             1177.00,548.00 1178.00,565.00 1178.00,565.00
             1178.00,565.00 1178.00,607.00 1178.00,607.00
             1178.00,607.00 1179.00,624.00 1179.00,624.00
             1179.00,624.00 1160.96,624.00 1160.96,624.00
             1160.96,624.00 1160.96,609.00 1160.96,609.00
             1160.96,609.00 1160.00,597.00 1160.00,597.00
             1160.00,597.00 1160.00,555.00 1160.00,555.00
             1160.00,555.00 1159.00,540.00 1159.00,540.00
             1159.00,540.00 1159.00,522.00 1159.00,522.00
             1146.05,529.18 1117.94,537.12 1103.00,540.42
             1082.72,544.90 1062.69,547.67 1042.00,549.09
             1042.00,549.09 1030.00,550.00 1030.00,550.00
             1030.00,550.00 988.00,550.00 988.00,550.00
             988.00,550.00 951.00,546.72 951.00,546.72
             951.00,546.72 939.00,545.00 939.00,545.00
             939.00,545.00 937.00,537.00 937.00,537.00
             932.45,552.90 911.91,575.51 899.00,585.58
             844.53,628.03 768.02,624.02 719.00,575.00
             709.90,565.90 701.61,555.65 696.00,544.00
             652.58,569.00 596.30,592.41 546.00,596.09
             546.00,596.09 534.00,597.00 534.00,597.00
             534.00,597.00 485.00,595.83 485.00,595.83
             485.00,595.83 425.00,586.00 425.00,586.00
             425.00,586.00 427.00,624.00 427.00,624.00
             427.00,624.00 409.00,624.00 409.00,624.00
             409.00,555.90 393.64,473.47 352.11,418.00
             337.15,398.04 317.95,381.21 296.00,369.31
             258.19,348.81 201.58,342.07 160.00,353.15
             139.90,358.51 120.94,368.01 105.00,381.44
             53.11,425.15 32.18,500.13 23.72,565.00
             23.72,565.00 20.00,599.00 20.00,599.00
             20.00,599.00 20.00,608.00 20.00,608.00
             20.00,608.00 19.00,624.00 19.00,624.00
             19.00,624.00 1.00,624.00 1.00,624.00
             1.00,624.00 2.00,603.00 2.00,603.00
             2.00,603.00 6.73,557.00 6.73,557.00
             17.23,484.16 42.56,400.33 107.00,357.35
             123.33,346.46 142.86,338.64 162.00,334.42
             162.00,334.42 181.00,331.28 181.00,331.28
             185.72,330.71 185.74,331.28 191.00,330.00 Z
           M 234.00,18.28
           C 234.00,18.28 222.00,19.29 222.00,19.29
             212.21,20.49 202.38,22.71 193.00,25.74
             155.48,37.89 123.57,65.80 105.97,101.00
             71.61,169.71 94.89,254.81 160.00,296.05
             171.03,303.04 184.43,309.26 197.00,312.86
             207.76,315.94 221.83,318.87 233.00,319.00
             264.64,319.37 289.22,314.74 317.00,298.72
             330.98,290.65 343.62,280.21 354.13,268.00
             412.20,200.54 401.08,96.17 327.00,45.02
             313.31,35.57 297.14,27.78 281.00,23.63
             267.46,20.14 247.87,16.99 234.00,18.28 Z
           M 1520.00,254.00
           C 1520.00,254.00 1520.00,74.00 1520.00,74.00
             1520.00,71.85 1520.26,68.44 1519.01,66.63
             1517.69,64.73 1511.27,61.43 1509.00,60.26
             1509.00,60.26 1482.00,48.20 1482.00,48.20
             1460.84,39.89 1439.86,34.74 1417.00,35.00
             1396.70,35.24 1367.35,41.90 1348.00,48.35
             1348.00,48.35 1317.00,60.70 1317.00,60.70
             1314.12,61.99 1307.53,64.45 1305.60,66.63
             1303.65,68.84 1304.01,72.24 1304.00,75.00
             1304.00,75.00 1304.00,275.00 1304.00,275.00
             1304.00,275.00 1352.00,269.15 1352.00,269.15
             1352.00,269.15 1452.00,255.87 1452.00,255.87
             1452.00,255.87 1491.00,250.72 1491.00,250.72
             1491.00,250.72 1509.00,248.98 1509.00,248.98
             1509.00,248.98 1520.00,254.00 1520.00,254.00 Z
           M 267.00,74.76
           C 274.41,74.55 278.19,81.75 280.25,88.00
             284.63,101.28 284.95,118.59 280.96,132.00
             279.19,137.98 275.18,149.26 267.00,147.53
             260.15,146.07 256.65,136.02 255.24,130.00
             252.14,116.86 252.18,103.00 255.91,90.00
             257.84,83.24 260.05,77.43 267.00,74.76 Z
           M 342.01,88.75
           C 351.22,87.02 354.74,96.71 356.90,104.00
             360.91,116.94 360.50,133.04 356.90,146.00
             355.39,151.16 352.31,158.88 346.96,160.98
             337.67,164.63 333.00,150.55 331.43,144.00
             328.20,131.24 328.20,117.75 331.43,105.00
             333.18,98.39 335.77,92.12 342.01,88.75 Z
           M 1405.02,101.07
           C 1412.57,99.32 1415.20,106.97 1416.70,113.00
             1419.70,123.49 1419.67,134.57 1416.70,145.00
             1415.50,148.57 1413.40,154.03 1409.90,155.81
             1402.59,159.51 1398.49,148.09 1397.16,143.00
             1394.10,131.37 1394.12,108.52 1405.02,101.07 Z
           M 1346.09,111.76
           C 1353.80,110.44 1356.57,117.74 1358.01,124.00
             1360.79,133.48 1360.74,146.63 1358.01,156.00
             1356.67,159.53 1354.39,164.81 1350.90,166.50
             1343.54,170.08 1339.81,159.19 1338.48,154.00
             1335.69,143.15 1335.22,118.15 1346.09,111.76 Z
           M 240.00,178.00
           C 240.00,178.00 256.00,171.00 256.00,171.00
             263.48,186.32 279.16,204.66 294.00,213.13
             300.53,216.86 309.39,220.56 317.00,218.36
             323.45,216.50 330.18,209.35 333.96,204.00
             335.66,201.59 338.53,195.55 341.21,194.78
             343.52,194.12 353.55,198.21 357.00,199.00
             348.61,218.47 334.31,237.52 311.00,236.99
             288.41,236.47 266.39,216.73 253.21,200.00
             248.43,193.92 242.16,185.41 240.00,178.00 Z
           M 1430.00,182.00
           C 1430.00,182.00 1446.00,189.00 1446.00,189.00
             1430.83,223.02 1384.57,261.95 1347.00,236.64
             1340.73,232.42 1336.28,227.95 1331.66,222.00
             1326.47,215.30 1320.78,205.54 1320.00,197.00
             1323.39,197.00 1335.06,196.38 1337.37,197.99
             1339.09,199.20 1342.16,205.66 1343.77,208.00
             1348.30,214.54 1353.78,220.45 1361.00,224.01
             1383.67,235.18 1409.97,211.06 1421.96,194.00
             1421.96,194.00 1430.00,182.00 1430.00,182.00 Z
           M 1412.00,327.71
           C 1425.43,328.11 1433.39,335.53 1439.51,347.00
             1447.93,362.78 1448.26,386.62 1441.38,403.00
             1436.36,414.96 1425.28,427.73 1411.00,426.47
             1397.48,425.29 1388.45,414.89 1383.60,403.00
             1373.57,378.36 1378.55,330.09 1412.00,327.71 Z
           M 1329.00,339.52
           C 1344.36,337.08 1355.05,345.65 1361.73,359.00
             1370.29,376.10 1370.09,398.66 1362.33,416.00
             1357.34,427.16 1346.33,438.92 1333.00,437.81
             1319.50,436.70 1311.15,426.46 1305.78,415.00
             1294.66,391.28 1299.83,347.55 1329.00,339.52 Z
           M 1412.00,345.55
           C 1405.18,347.00 1402.43,351.95 1399.87,358.00
             1395.17,369.13 1395.24,382.62 1399.04,394.00
             1401.02,399.94 1406.39,409.86 1414.00,408.34
             1419.87,407.16 1423.55,400.09 1425.54,395.00
             1429.73,384.29 1429.54,367.46 1424.68,357.00
             1421.94,351.12 1418.84,346.36 1412.00,345.55 Z
           M 1256.00,348.47
           C 1271.29,346.38 1282.82,357.79 1288.38,371.00
             1295.88,388.79 1295.86,410.79 1286.68,428.00
             1281.89,436.97 1274.47,444.92 1264.00,446.68
             1247.41,449.46 1235.76,436.13 1230.42,422.00
             1221.17,397.48 1225.86,355.63 1256.00,348.47 Z
           M 1332.00,357.43
           C 1316.68,363.49 1316.47,390.73 1320.44,404.00
             1322.30,410.23 1327.95,421.24 1336.00,419.53
             1340.90,418.48 1344.20,413.19 1346.21,409.00
             1351.28,398.47 1351.36,380.87 1347.29,370.00
             1344.61,362.84 1340.38,356.42 1332.00,357.43 Z
           M 801.00,362.28
           C 801.00,362.28 785.00,365.15 785.00,365.15
             744.47,375.96 712.86,406.50 701.43,447.00
             699.82,452.69 696.92,468.43 697.21,474.00
             697.21,474.00 698.84,488.00 698.84,488.00
             699.70,496.10 700.59,509.73 703.08,517.00
             716.70,556.78 749.72,586.30 791.00,594.60
             796.31,595.67 804.66,596.93 810.00,597.00
             830.46,597.24 845.11,594.66 864.00,586.57
             876.23,581.34 888.62,572.35 898.00,563.00
             939.39,521.74 944.59,454.76 909.10,408.00
             883.06,373.68 843.32,358.35 801.00,362.28 Z
           M 1258.00,366.45
           C 1242.56,372.45 1241.90,400.63 1246.22,414.00
             1248.30,420.46 1253.73,430.68 1262.00,428.57
             1267.34,427.20 1271.13,420.85 1272.79,416.00
             1276.92,405.07 1277.30,389.78 1272.79,379.00
             1269.78,372.29 1266.21,365.75 1258.00,366.45 Z
           M 1157.00,388.00
           C 1157.00,388.00 1144.00,402.00 1144.00,402.00
             1144.00,402.00 1138.99,409.00 1138.99,409.00
             1138.99,409.00 1143.25,420.00 1143.25,420.00
             1143.25,420.00 1158.00,448.00 1158.00,448.00
             1158.00,448.00 1158.00,434.00 1158.00,434.00
             1158.00,434.00 1157.00,418.00 1157.00,418.00
             1157.00,418.00 1157.00,388.00 1157.00,388.00 Z
           M 1641.00,396.00
           C 1641.00,396.00 1610.00,390.00 1610.00,390.00
             1603.67,389.13 1599.85,387.81 1594.00,391.40
             1563.54,410.09 1558.15,442.94 1567.15,475.00
             1569.39,482.95 1577.92,501.12 1585.09,504.98
             1587.36,506.20 1590.47,505.99 1593.00,506.00
             1593.00,506.00 1606.00,506.00 1606.00,506.00
             1606.00,506.00 1604.00,492.00 1604.00,492.00
             1604.00,492.00 1604.00,484.00 1604.00,484.00
             1604.00,484.00 1603.18,478.00 1603.18,478.00
             1603.18,478.00 1603.91,471.00 1603.91,471.00
             1605.12,454.46 1608.91,441.36 1617.45,427.00
             1621.64,419.97 1626.51,413.27 1631.75,407.00
             1631.75,407.00 1641.00,396.00 1641.00,396.00 Z
           M 1712.00,428.00
           C 1698.73,418.61 1689.96,413.56 1675.00,407.15
             1671.43,405.62 1663.73,401.98 1660.00,403.04
             1656.66,403.98 1653.78,407.49 1651.58,410.00
             1646.37,415.93 1642.96,419.30 1638.35,426.00
             1624.18,446.60 1619.34,463.10 1621.83,488.00
             1622.30,492.69 1623.21,506.09 1625.93,509.49
             1627.29,511.18 1642.24,517.21 1645.00,518.00
             1648.14,494.75 1658.14,468.14 1676.00,452.29
             1682.84,446.22 1690.18,440.93 1698.00,436.20
             1698.00,436.20 1712.00,428.00 1712.00,428.00 Z
           M 815.00,562.00
           C 815.00,562.00 798.00,545.99 798.00,545.99
             782.90,531.25 768.40,516.24 754.92,500.00
             748.12,491.80 735.85,475.29 733.53,465.00
             732.84,461.98 732.97,457.20 733.00,454.00
             733.31,428.21 750.54,406.33 777.00,404.32
             782.10,403.94 787.63,405.81 792.00,408.35
             799.29,412.59 804.91,419.59 808.74,427.00
             811.18,431.71 813.46,438.30 817.00,442.00
             817.98,436.59 819.78,432.68 822.62,428.00
             826.14,422.18 830.07,417.16 836.00,413.61
             843.23,409.28 850.07,409.50 858.00,411.21
             878.67,415.67 893.75,433.76 894.00,455.00
             894.16,469.28 889.30,477.31 881.66,489.00
             871.07,505.19 858.06,518.75 845.17,533.00
             836.18,542.93 826.01,554.36 815.00,562.00 Z
           M 1123.00,418.00
           C 1123.00,418.00 1107.00,425.40 1107.00,425.40
             1107.00,425.40 1100.61,429.41 1100.61,429.41
             1100.61,429.41 1101.37,437.00 1101.37,437.00
             1101.37,437.00 1105.35,453.00 1105.35,453.00
             1105.35,453.00 1113.12,485.00 1113.12,485.00
             1113.12,485.00 1121.00,517.00 1121.00,517.00
             1128.55,515.83 1140.74,511.01 1148.00,507.99
             1150.42,506.98 1156.58,504.55 1157.98,502.51
             1159.20,500.72 1159.04,497.13 1158.99,495.00
             1158.78,486.29 1152.18,475.87 1148.25,468.00
             1148.25,468.00 1123.00,418.00 1123.00,418.00 Z
           M 1083.00,434.00
           C 1083.00,434.00 1058.00,438.00 1058.00,438.00
             1058.00,438.00 1061.28,462.00 1061.28,462.00
             1061.28,462.00 1070.00,528.00 1070.00,528.00
             1076.67,527.85 1100.50,523.81 1106.00,521.00
             1100.86,515.95 1099.60,503.14 1097.87,496.00
             1097.87,496.00 1083.00,434.00 1083.00,434.00 Z
           M 996.00,443.00
           C 996.00,443.00 965.00,441.91 965.00,441.91
             965.00,441.91 954.04,441.00 954.04,441.00
             954.04,441.00 954.04,453.00 954.04,453.00
             954.04,453.00 955.00,465.00 955.00,465.00
             955.00,465.00 955.00,495.00 955.00,495.00
             955.00,495.00 955.96,507.00 955.96,507.00
             955.96,507.00 955.96,521.00 955.96,521.00
             955.96,521.00 957.60,528.98 957.60,528.98
             957.60,528.98 970.00,530.99 970.00,530.99
             970.00,530.99 981.00,531.98 981.00,531.98
             981.00,531.98 998.00,531.98 998.00,531.98
             998.00,531.98 997.00,481.00 997.00,481.00
             997.00,481.00 996.00,468.00 996.00,468.00
             996.00,468.00 996.00,443.00 996.00,443.00 Z
           M 1041.00,441.00
           C 1041.00,441.00 1022.00,442.00 1022.00,442.00
             1022.00,442.00 1014.99,443.74 1014.99,443.74
             1014.99,443.74 1014.00,451.00 1014.00,451.00
             1014.00,451.00 1014.00,477.00 1014.00,477.00
             1014.00,477.00 1015.00,494.00 1015.00,494.00
             1015.00,494.00 1015.00,532.00 1015.00,532.00
             1015.00,532.00 1033.00,532.00 1033.00,532.00
             1033.00,532.00 1052.00,531.00 1052.00,531.00
             1052.00,531.00 1049.15,505.00 1049.15,505.00
             1049.15,505.00 1041.00,441.00 1041.00,441.00 Z
           M 1750.00,483.00
           C 1747.75,474.67 1740.19,460.25 1735.33,453.00
             1733.55,450.34 1729.80,444.38 1726.91,443.21
             1724.08,442.06 1720.56,444.07 1718.00,445.23
             1711.26,448.30 1706.22,450.88 1700.00,455.00
             1678.53,469.23 1669.14,486.22 1664.00,511.00
             1663.15,515.11 1660.42,527.48 1661.61,531.00
             1662.73,534.31 1666.41,537.74 1669.00,540.00
             1684.10,514.96 1701.91,497.11 1730.00,487.67
             1736.75,485.40 1742.85,483.58 1750.00,483.00 Z
           M 677.00,452.00
           C 672.23,452.89 662.19,457.23 657.00,459.19
             657.00,459.19 627.00,469.28 627.00,469.28
             596.13,478.48 564.20,483.37 532.00,483.00
             532.00,483.00 522.00,482.09 522.00,482.09
             493.88,480.16 466.25,475.22 439.00,467.85
             439.00,467.85 402.00,457.00 402.00,457.00
             402.00,457.00 409.14,484.00 409.14,484.00
             409.14,484.00 423.71,536.00 423.71,536.00
             423.71,536.00 433.00,570.00 433.00,570.00
             433.00,570.00 451.00,573.20 451.00,573.20
             451.00,573.20 475.00,576.84 475.00,576.84
             475.00,576.84 509.00,579.16 509.00,579.16
             509.00,579.16 521.00,579.16 521.00,579.16
             521.00,579.16 536.00,579.16 536.00,579.16
             574.65,578.94 620.20,561.67 655.00,545.69
             655.00,545.69 686.00,530.00 686.00,530.00
             686.00,530.00 683.92,515.00 683.92,515.00
             681.74,502.05 679.02,489.20 679.00,476.00
             679.00,476.00 677.00,452.00 677.00,452.00 Z
           M 1220.00,604.00
           C 1220.00,604.00 1220.00,538.00 1220.00,538.00
             1220.00,538.00 1221.00,523.00 1221.00,523.00
             1221.00,523.00 1221.00,499.00 1221.00,499.00
             1221.00,499.00 1222.57,491.17 1222.57,491.17
             1222.57,491.17 1239.00,489.00 1239.00,489.00
             1239.00,489.00 1274.00,485.91 1274.00,485.91
             1274.00,485.91 1313.00,482.17 1313.00,482.17
             1313.00,482.17 1375.00,476.83 1375.00,476.83
             1375.00,476.83 1448.00,470.00 1448.00,470.00
             1448.00,470.00 1448.00,540.00 1448.00,540.00
             1448.00,540.00 1447.00,555.00 1447.00,555.00
             1447.00,555.00 1447.00,600.00 1447.00,600.00
             1447.00,600.00 1418.00,600.00 1418.00,600.00
             1418.00,600.00 1401.00,601.00 1401.00,601.00
             1401.00,601.00 1314.00,602.00 1314.00,602.00
             1314.00,602.00 1297.00,603.00 1297.00,603.00
             1297.00,603.00 1262.00,603.00 1262.00,603.00
             1262.00,603.00 1245.00,604.00 1245.00,604.00
             1245.00,604.00 1220.00,604.00 1220.00,604.00 Z
           M 1430.00,490.00
           C 1430.00,490.00 1351.00,496.83 1351.00,496.83
             1351.00,496.83 1273.00,503.83 1273.00,503.83
             1273.00,503.83 1239.00,507.00 1239.00,507.00
             1239.00,507.00 1238.00,521.00 1238.00,521.00
             1238.00,521.00 1238.00,586.00 1238.00,586.00
             1238.00,586.00 1255.00,586.00 1255.00,586.00
             1255.00,586.00 1271.00,585.00 1271.00,585.00
             1271.00,585.00 1307.00,585.00 1307.00,585.00
             1307.00,585.00 1324.00,584.00 1324.00,584.00
             1324.00,584.00 1359.00,584.00 1359.00,584.00
             1359.00,584.00 1376.00,583.00 1376.00,583.00
             1376.00,583.00 1413.00,583.00 1413.00,583.00
             1413.00,583.00 1429.00,582.00 1429.00,582.00
             1429.00,582.00 1430.00,559.00 1430.00,559.00
             1430.00,559.00 1430.00,490.00 1430.00,490.00 Z
           M 1767.00,558.00
           C 1766.97,547.08 1762.73,526.04 1760.12,515.00
             1759.40,511.96 1757.60,502.69 1755.30,501.00
             1753.26,499.50 1749.30,500.54 1747.00,501.00
             1738.66,502.69 1734.82,503.98 1727.00,507.20
             1709.81,514.28 1698.88,525.84 1688.67,541.00
             1686.22,544.64 1680.47,552.90 1679.82,557.00
             1679.28,560.39 1683.96,570.90 1685.00,576.00
             1693.05,573.46 1701.62,565.61 1720.00,560.43
             1731.51,557.18 1740.25,556.95 1752.00,557.00
             1752.00,557.00 1767.00,558.00 1767.00,558.00 Z
           M 1113.00,519.00
           C 1113.00,519.00 1112.00,519.00 1112.00,519.00
             1112.00,519.00 1113.00,520.00 1113.00,520.00
             1113.00,520.00 1113.00,519.00 1113.00,519.00 Z
           M 1771.00,617.00
           C 1771.00,617.00 1771.00,600.00 1771.00,600.00
             1771.00,600.00 1770.04,589.00 1770.04,589.00
             1769.90,585.89 1770.65,579.87 1768.40,577.60
             1766.90,576.09 1764.02,575.88 1762.00,575.58
             1755.88,574.66 1748.31,574.99 1742.00,575.00
             1727.12,575.02 1717.01,579.14 1704.00,585.76
             1700.87,587.35 1692.74,591.74 1691.00,594.52
             1689.75,596.49 1691.00,611.34 1691.00,615.00
             1691.00,615.00 1708.00,616.00 1708.00,616.00
             1708.00,616.00 1771.00,617.00 1771.00,617.00 Z" />
</svg>
