<?xml version="1.0" encoding="iso-8859-1"?>
<!-- Generator: Adobe Illustrator 19.0.0, SVG Export Plug-In . SVG Version: 6.00 Build 0)  -->
<svg version="1.1" id="Capa_1" xmlns="http://www.w3.org/2000/svg" xmlns:xlink="http://www.w3.org/1999/xlink" x="0px" y="0px"
	 viewBox="0 0 512.432 512.432" style="enable-background:new 0 0 512.432 512.432;" xml:space="preserve">
<g>
	<g>
		<path style="fill:#209cee" d="M424.091,324.128L188.293,89.419c-4.139-4.139-10.901-4.139-15.061,0.021l-42.091,42.091c-4.16,4.16-4.16,10.923,0,15.083
			l13.781,13.803l-66.368,66.368c-42.901,42.901-45.035,110.763-7.467,156.8L3.12,451.552c-4.16,4.16-4.16,10.923,0,15.083
			l42.667,42.667c2.091,2.091,4.821,3.115,7.552,3.115s5.461-1.045,7.552-3.115l67.968-67.968
			c21.504,17.536,47.531,26.859,73.835,26.859c30.037,0,60.096-11.435,82.965-34.304l66.368-66.368l13.781,13.781
			c4.117,4.117,10.816,4.16,14.976,0.107l43.221-42.091c2.048-2.005,3.2-4.736,3.221-7.573
			C427.248,328.907,426.096,326.133,424.091,324.128z"/>
	</g>
</g>
<g>
	<g>
		<path style="fill:#209cee" d="M372.379,11.936c-15.872-15.893-41.749-15.893-57.621,0l-86.827,86.827l57.877,57.621l86.677-86.699
			c7.701-7.701,11.947-17.92,11.947-28.821C384.432,29.963,380.187,19.744,372.379,11.936z"/>
	</g>
</g>
<g>
	<g>
		<path style="fill:#209cee" d="M500.357,139.936c-15.872-15.893-41.749-15.893-57.621,0l-86.528,86.528l57.899,57.621l86.379-86.379
			c7.701-7.701,11.947-17.92,11.947-28.821S508.187,147.744,500.357,139.936z"/>
	</g>
</g>
<g>
</g>
<g>
</g>
<g>
</g>
<g>
</g>
<g>
</g>
<g>
</g>
<g>
</g>
<g>
</g>
<g>
</g>
<g>
</g>
<g>
</g>
<g>
</g>
<g>
</g>
<g>
</g>
<g>
</g>
</svg>
