<svg id="bold" enable-background="new 0 0 24 24" height="512" viewBox="0 0 24 24" width="512" xmlns="http://www.w3.org/2000/svg"><path d="m21.25 2c.414 0 .75.336.75.75v18.5c0 .414-.336.75-.75.75h-18.5c-.414 0-.75-.336-.75-.75v-18.5c0-.414.336-.75.75-.75zm0-2h-18.5c-1.52 0-2.75 1.23-2.75 2.75v18.5c0 1.52 1.23 2.75 2.75 2.75h18.5c1.52 0 2.75-1.23 2.75-2.75v-18.5c0-1.52-1.23-2.75-2.75-2.75z"/><path d="m7.96 14.29c.39.39.39 1.03 0 1.42-.2.19-.45.29-.71.29s-.51-.1-.71-.29l-3-3c-.39-.39-.39-1.03 0-1.42l3-3c.39-.39 1.03-.39 1.42 0s.39 1.03 0 1.42l-2.3 2.29z"/><path d="m14.21 8.03-2.5 8.5c-.167.566-.768.837-1.24.68-.53-.16-.84-.71-.68-1.24l2.5-8.5c.16-.53.71-.83 1.24-.68.53.16.84.71.68 1.24z"/><path d="m20.46 12.71-3 3c-.2.19-.45.29-.71.29s-.51-.1-.71-.29c-.39-.39-.39-1.03 0-1.42l2.3-2.29-2.3-2.29c-.39-.39-.39-1.03 0-1.42s1.03-.39 1.42 0l3 3c.39.39.39 1.03 0 1.42z"/></svg>