<svg xmlns="http://www.w3.org/2000/svg" width="310" height="160">
	<rect x="0" y="0" width="100%" height="100%" fill="#f3f4f4"	/>
	<text font-family="monospace" font-size="14" transform="translate(310,0) rotate(90)">
		<tspan x="0"   dy="20">(2</tspan>
		<tspan x="48"  dy="20">(7</tspan>
		<tspan x="96"  dy="20">2</tspan>
		<tspan x="96"  dy="20">1</tspan>
		<tspan x="96"  dy="20">(6</tspan>
		<tspan x="144" dy="20">5</tspan>
		<tspan x="144" dy="20">8</tspan>
		<tspan x="96"  dy="20">)</tspan>
		<tspan x="48"  dy="20">)</tspan>
		<tspan x="48"  dy="20">(5</tspan>
		<tspan x="96"  dy="20">(9</tspan>
		<tspan x="144" dy="20">4</tspan>
		<tspan x="96"  dy="20">)</tspan>
		<tspan x="48"  dy="20">)</tspan>
		<tspan x="0"   dy="20">)</tspan>
	</text>
	<line x1="287" y1="13" x2="275" y2="48" style="stroke:#ffcccc;stroke-width:1.2" />
	<line x1="287" y1="13" x2="115" y2="48" style="stroke:#ffcccc;stroke-width:1.2" />

	<line x1="267" y1="60" x2="255" y2="96" style="stroke:#ffcccc;stroke-width:1.2" />
	<line x1="267" y1="60" x2="235" y2="96" style="stroke:#ffcccc;stroke-width:1.2" />
	<line x1="267" y1="60" x2="215" y2="96" style="stroke:#ffcccc;stroke-width:1.2" />
	<line x1="107" y1="60" x2="95"  y2="96" style="stroke:#ffcccc;stroke-width:1.2" />

	<line x1="207" y1="109" x2="195" y2="144" style="stroke:#ffcccc;stroke-width:1.2" />
	<line x1="207" y1="109" x2="175" y2="144" style="stroke:#ffcccc;stroke-width:1.2" />
	<line x1="87"  y1="109" x2="74"  y2="144" style="stroke:#ffcccc;stroke-width:1.2" />
</svg>
