<?xml version="1.0" encoding="iso-8859-1"?>
<!-- Generator: Adobe Illustrator 19.0.0, SVG Export Plug-In . SVG Version: 6.00 Build 0)  -->
<svg version="1.1" id="Layer_1" xmlns="http://www.w3.org/2000/svg" xmlns:xlink="http://www.w3.org/1999/xlink" x="0px" y="0px"
	 viewBox="0 0 512 512" style="enable-background:new 0 0 512 512;" xml:space="preserve">
<g>
	<g>
		<g>
			<path style="fill:#209cee" d="M461.429,327.829c-0.213,0-0.384,0.107-0.597,0.128c-4.203-9.493-9.387-19.349-15.893-29.653
				c-6.4-10.091-13.824-20.331-22.016-30.592c9.536-9.003,18.325-18.112,26.048-27.221c35.264-41.493,46.763-79.083,32.384-105.771
				c-11.648-21.675-38.4-33.109-77.333-33.109c-18.325,0-38.763,2.667-60.331,7.381C324.597,42.709,292.725,0,255.903,0
				c-11.861,0-23.168,4.565-33.728,12.779c-2.731-1.28-5.717-2.112-8.939-2.112c-11.755,0-21.333,9.579-21.333,21.333
				c0,4.309,1.6,8.085,3.797,11.435c-8.491,13.717-16.064,30.293-22.528,49.237c-23.893-7.616-46.144-11.947-65.216-11.947
				c-26.773,0-46.976,8.192-58.347,23.701c-17.963,24.448-11.819,63.253,17.301,109.269c6.4,10.133,13.845,20.395,22.059,30.677
				c-52.181,49.515-76.437,99.584-58.496,132.907c1.579,2.923,3.456,5.611,5.568,8.171c-0.661,2.048-1.301,4.117-1.301,6.379
				c0,11.755,9.579,21.333,21.333,21.333c6.208,0,11.669-2.752,15.573-6.997c10.496,2.752,22.528,4.224,36.139,4.224
				c18.325,0,38.763-2.667,60.331-7.381C187.21,469.291,219.082,512,255.903,512c33.728,0,63.317-35.755,82.731-92.672
				c23.893,7.616,46.144,11.947,65.216,11.947c26.795,0,46.976-8.192,58.368-23.701c7.915-10.752,10.859-24.427,9.536-40.128
				c6.443-3.669,10.987-10.347,10.987-18.283C482.762,337.408,473.183,327.829,461.429,327.829z M107.807,389.056
				c-12.224,0-22.827-1.344-31.723-3.797c-2.816-8.512-10.581-14.763-20.011-14.763c-1.408,0-2.624,0.533-3.968,0.811
				c-1.067-1.323-2.069-2.667-2.859-4.117c-11.819-21.952,8-62.891,53.525-106.411c14.379,16.235,30.741,32.384,48.661,48.043
				c2.219,26.283,6.101,50.923,11.307,73.429C142.922,386.56,124.255,389.056,107.807,389.056z M149.727,278.485
				c-11.243-10.581-21.632-21.312-31.125-32.064c9.664-8.299,20.288-16.619,31.701-24.853c-0.597,11.264-1.024,22.699-1.024,34.432
				C149.258,263.595,149.471,271.061,149.727,278.485z M152.437,194.112c-17.301,11.669-33.28,23.701-47.531,35.904
				c-7.424-9.301-14.165-18.581-19.947-27.733c-23.744-37.525-30.357-68.587-18.133-85.248
				c9.109-12.395,27.413-14.997,41.173-14.997c17.152,0,37.291,3.989,59.008,10.901
				C160.287,137.237,155.381,164.651,152.437,194.112z M336.906,183.659c-5.824-4.608-11.755-9.173-17.835-13.632
				c-10.517-7.723-21.141-14.933-31.829-21.803c13.995-5.248,27.691-9.643,41.045-13.333
				C331.786,149.995,334.751,166.229,336.906,183.659z M215.071,52.971c10.88-0.96,19.541-9.856,19.541-20.971
				c0-0.597-0.299-1.109-0.341-1.707c7.189-5.781,14.507-8.96,21.675-8.96c24.256,0,50.133,35.008,66.944,92.843
				c-18.88,5.184-38.464,11.84-58.432,20.032c-24.235-14.123-48.149-25.536-71.019-34.325
				C199.797,81.131,207.157,65.387,215.071,52.971z M187.189,120.171c16.981,6.613,34.667,14.912,52.715,24.789
				c-11.477,5.312-22.997,10.923-34.517,17.109c-10.325,5.547-20.181,11.328-29.824,17.216
				C178.421,157.781,182.367,137.941,187.189,120.171z M174.965,328.32c5.845,4.608,11.755,9.173,17.835,13.632
				c10.517,7.723,21.163,14.933,31.829,21.803c-13.995,5.248-27.691,9.643-41.045,13.333
				C180.063,361.984,177.098,345.749,174.965,328.32z M255.925,490.667c-24.256,0-50.133-35.008-66.944-92.843
				c18.88-5.184,38.464-11.84,58.432-20.032c24.235,14.123,48.149,25.536,71.019,34.325
				C301.685,461.376,278.133,490.667,255.925,490.667z M324.682,391.829c-16.981-6.613-34.667-14.912-52.715-24.789
				c11.477-5.312,22.997-10.923,34.517-17.109c10.219-5.504,20.117-11.307,29.824-17.216
				C333.45,354.219,329.503,374.059,324.682,391.829z M339.231,305.749c-13.611,8.832-27.947,17.365-42.88,25.387
				c-15.659,8.427-31.488,15.979-47.211,22.741c-14.613-8.896-29.269-18.475-43.755-29.12
				c-11.584-8.512-22.656-17.344-33.259-26.304c-0.96-13.675-1.557-27.776-1.557-42.453c0-17.28,0.704-33.92,2.005-49.792
				c13.355-8.661,27.669-17.173,42.901-25.365c15.659-8.427,31.488-15.979,47.211-22.741c14.613,8.896,29.269,18.475,43.755,29.12
				c11.584,8.512,22.635,17.323,33.237,26.304c0.96,13.675,1.557,27.776,1.557,42.475
				C341.237,273.28,340.533,289.899,339.231,305.749z M404.042,122.944c30.165,0,50.944,7.765,58.539,21.888
				c9.771,18.176-1.088,48.021-29.845,81.856c-6.997,8.235-14.976,16.491-23.573,24.661c-14.4-16.277-30.784-32.469-48.747-48.149
				c-2.219-26.283-6.101-50.923-11.307-73.429C368.927,125.44,387.594,122.944,404.042,122.944z M362.143,233.493
				c11.264,10.603,21.675,21.355,31.189,32.128c-9.856,8.427-20.501,16.725-31.765,24.811c0.619-11.285,1.024-22.72,1.024-34.453
				C362.591,248.384,362.399,240.917,362.143,233.493z M445.045,394.944c-9.109,12.395-27.413,14.997-41.173,14.997
				c-17.131,0-37.291-3.989-58.987-10.901c6.72-24.277,11.627-51.712,14.571-81.173c17.131-11.541,33.109-23.552,47.552-35.883
				c7.381,9.301,14.123,18.581,19.904,27.712c6.677,10.539,11.84,20.501,15.765,29.845c-1.515,2.923-2.581,6.101-2.581,9.621
				c0,7.659,4.267,14.059,10.347,17.835C451.765,378.389,450.143,387.989,445.045,394.944z"/>
			<path style="fill:#209cee" d="M255.925,213.333c-23.573,0-42.667,19.093-42.667,42.667s19.093,42.667,42.667,42.667s42.667-19.093,42.667-42.667
				S279.498,213.333,255.925,213.333z"/>
		</g>
	</g>
</g>
<g>
</g>
<g>
</g>
<g>
</g>
<g>
</g>
<g>
</g>
<g>
</g>
<g>
</g>
<g>
</g>
<g>
</g>
<g>
</g>
<g>
</g>
<g>
</g>
<g>
</g>
<g>
</g>
<g>
</g>
</svg>
