<svg id="Bold" enable-background="new 0 0 24 24" height="512" viewBox="0 0 24 24" width="512" xmlns="http://www.w3.org/2000/svg"><path d="m22.25 0h-12.5c-.965 0-1.75.785-1.75 1.75v2.5c0 .965.785 1.75 1.75 1.75h12.5c.965 0 1.75-.785 1.75-1.75v-2.5c0-.965-.785-1.75-1.75-1.75z"/><circle cx="3" cy="3" r="3"/><path d="m22.25 8h-20.5c-.96 0-1.75.79-1.75 1.75v12.5c0 .96.79 1.75 1.75 1.75h20.5c.96 0 1.75-.79 1.75-1.75v-12.5c0-.96-.79-1.75-1.75-1.75zm-2 8.5h-5.5c-.41 0-.75-.34-.75-.75s.34-.75.75-.75h5.5c.41 0 .75.34.75.75s-.34.75-.75.75zm.75 2.25c0 .41-.34.75-.75.75h-5.5c-.41 0-.75-.34-.75-.75s.34-.75.75-.75h5.5c.41 0 .75.34.75.75zm-.75-5.25h-5.5c-.41 0-.75-.34-.75-.75s.34-.75.75-.75h5.5c.41 0 .75.34.75.75s-.34.75-.75.75zm-8.25 2c0 2.48-2.02 4.5-4.5 4.5s-4.5-2.02-4.5-4.5 2.02-4.5 4.5-4.5 4.5 2.02 4.5 4.5z"/></svg>