<svg version="1.0" xmlns="http://www.w3.org/2000/svg" width="300" height="300" viewBox="0 0 225 225" fill="#3b8bea">
	<path d="M97.5 1.1A113.8 113.8 0 0 0 4.6 81.3a115.7 115.7 0 0 0 5.9 78.4c10.3 22.4 30.6 43 52.9 53.8a112.7 112.7 0 0 0 157.1-69.9A112.3 112.3 0 0 0 97.5 1.1zm21.8 33.3c1.8.7 4.2 2.4 5.4 3.7 2.3 2.5 54 117.2 54.9 121.9.7 3.2-1.6 8.2-4.8 10.4-5.3 3.7-7.9 2.7-44.8-17.7a856.7 856.7 0 0 1-35-19.8c0-.3 10.8-.4 24-.1 18.7.4 24 .2 24-.8 0-1.4-28.7-66.1-29.9-67.3-.4-.4-11.2 22.9-24 51.8-15.7 35.4-24 53.1-25.5 54-7.2 4.6-17.6-.1-17.6-7.9 0-2.4 8-21.6 26-62.3 14.4-32.3 26.8-59.8 27.6-61 3.4-5.3 13.1-7.7 19.7-4.9z"/>
</svg>
