<svg xmlns="http://www.w3.org/2000/svg" viewBox="0 0 512 512" fill="#209cee"><path d="M461.43 327.83c-.213 0-.384.107-.597.128-4.203-9.493-9.387-19.35-15.893-29.653-6.4-10.1-13.824-20.33-22.016-30.592 9.536-9.003 18.325-18.112 26.048-27.22 35.264-41.493 46.763-79.083 32.384-105.77-11.648-21.675-38.4-33.1-77.333-33.1-18.325 0-38.763 2.667-60.33 7.38C324.597 42.7 292.725 0 255.903 0c-11.86 0-23.168 4.565-33.728 12.78-2.73-1.28-5.717-2.112-8.94-2.112-11.755 0-21.333 9.58-21.333 21.333 0 4.3 1.6 8.085 3.797 11.435-8.5 13.717-16.064 30.293-22.528 49.237-23.893-7.616-46.144-11.947-65.216-11.947-26.773 0-46.976 8.192-58.347 23.7-17.963 24.448-11.82 63.253 17.3 109.27 6.4 10.133 13.845 20.395 22.06 30.677-52.18 49.515-76.437 99.584-58.496 132.907 1.58 2.923 3.456 5.6 5.568 8.17-.66 2.048-1.3 4.117-1.3 6.38 0 11.755 9.58 21.333 21.333 21.333 6.208 0 11.67-2.752 15.573-6.997 10.496 2.752 22.528 4.224 36.14 4.224 18.325 0 38.763-2.667 60.33-7.38 19.084 66.28 50.966 109 87.787 109 33.728 0 63.317-35.755 82.73-92.672 23.893 7.616 46.144 11.947 65.216 11.947 26.795 0 46.976-8.192 58.368-23.7 7.915-10.752 10.86-24.427 9.536-40.128 6.443-3.67 10.987-10.347 10.987-18.283.02-11.755-9.558-21.334-21.312-21.334zm-353.622 61.227c-12.224 0-22.827-1.344-31.723-3.797-2.816-8.512-10.58-14.763-20-14.763-1.408 0-2.624.533-3.968.8-1.067-1.323-2.07-2.667-2.86-4.117-11.82-21.952 8-62.9 53.525-106.4 14.38 16.235 30.74 32.384 48.66 48.043 2.22 26.283 6.1 50.923 11.307 73.43-19.817 4.3-38.484 6.805-54.932 6.805zm41.92-110.57c-11.243-10.58-21.632-21.312-31.125-32.064 9.664-8.3 20.288-16.62 31.7-24.853-.597 11.264-1.024 22.7-1.024 34.432-.02 7.595.192 15.06.448 22.485zm2.7-84.373c-17.3 11.67-33.28 23.7-47.53 35.904-7.424-9.3-14.165-18.58-19.947-27.733-23.744-37.525-30.357-68.587-18.133-85.248 9.1-12.395 27.413-14.997 41.173-14.997 17.152 0 37.3 4 59.008 10.9-6.72 24.298-11.626 51.712-14.57 81.173zm184.47-10.453c-5.824-4.608-11.755-9.173-17.835-13.632-10.517-7.723-21.14-14.933-31.83-21.803a483.55 483.55 0 0 1 41.045-13.333c3.5 15.104 6.464 31.338 8.62 48.768zM215.07 52.97C225.95 52 234.6 43.114 234.6 32c0-.597-.3-1.1-.34-1.707 7.2-5.78 14.507-8.96 21.675-8.96 24.256 0 50.133 35.008 66.944 92.843-18.88 5.184-38.464 11.84-58.432 20.032-24.235-14.123-48.15-25.536-71.02-34.325 6.358-18.752 13.718-34.496 21.632-46.912zm-27.882 67.2c16.98 6.613 34.667 14.912 52.715 24.8-11.477 5.312-22.997 10.923-34.517 17.1-10.325 5.547-20.18 11.328-29.824 17.216 2.858-21.504 6.804-41.344 11.626-59.114zm-12.224 208.15c5.845 4.608 11.755 9.173 17.835 13.632 10.517 7.723 21.163 14.933 31.83 21.803a483.55 483.55 0 0 1-41.045 13.333c-3.52-15.104-6.486-31.34-8.62-48.768zm80.96 162.347c-24.256 0-50.133-35.008-66.944-92.843 18.88-5.184 38.464-11.84 58.432-20.032 24.235 14.123 48.15 25.536 71.02 34.325-16.747 49.26-40.3 78.55-62.507 78.55zm68.757-98.838c-16.98-6.613-34.667-14.912-52.715-24.8 11.477-5.312 22.997-10.923 34.517-17.1 10.22-5.504 20.117-11.307 29.824-17.216-2.858 21.504-6.805 41.344-11.626 59.114zm14.55-86.08c-13.6 8.832-27.947 17.365-42.88 25.387-15.66 8.427-31.488 15.98-47.2 22.74-14.613-8.896-29.27-18.475-43.755-29.12-11.584-8.512-22.656-17.344-33.26-26.304-.96-13.675-1.557-27.776-1.557-42.453 0-17.28.704-33.92 2.005-49.792a610.05 610.05 0 0 1 42.9-25.365c15.66-8.427 31.488-15.98 47.2-22.74 14.613 8.896 29.27 18.475 43.755 29.12 11.584 8.512 22.635 17.323 33.237 26.304.96 13.675 1.557 27.776 1.557 42.475.002 17.28-.702 33.898-2.004 49.748zm64.8-182.805c30.165 0 50.944 7.765 58.54 21.888 9.77 18.176-1.088 48.02-29.845 81.856-6.997 8.235-14.976 16.5-23.573 24.66-14.4-16.277-30.784-32.47-48.747-48.15-2.22-26.283-6.1-50.923-11.307-73.43 19.818-4.33 38.485-6.827 54.933-6.827zm-41.9 110.55c11.264 10.603 21.675 21.355 31.2 32.128-9.856 8.427-20.5 16.725-31.765 24.8.62-11.285 1.024-22.72 1.024-34.453 0-7.595-.192-15.062-.448-22.486zm82.902 161.45c-9.1 12.395-27.413 14.997-41.173 14.997-17.13 0-37.3-4-58.987-10.9 6.72-24.277 11.627-51.712 14.57-81.173 17.13-11.54 33.1-23.552 47.552-35.883 7.38 9.3 14.123 18.58 19.904 27.712 6.677 10.54 11.84 20.5 15.765 29.845-1.515 2.923-2.58 6.1-2.58 9.62 0 7.66 4.267 14.06 10.347 17.835 1.322 11.392-.3 20.992-5.398 27.947zm-189.118-181.61c-23.573 0-42.667 19.093-42.667 42.667s19.093 42.667 42.667 42.667 42.667-19.093 42.667-42.667-19.094-42.667-42.667-42.667z"/></svg>