<svg xmlns="http://www.w3.org/2000/svg" viewBox="0 0 512 512" fill="#209cee"><path d="M461 328a229 229 0 00-38-60l26-28c35-41 47-79 32-105-11-22-38-33-77-33-18 0-39 2-60 7C325 43 293 0 256 0c-12 0-23 5-34 13-3-2-6-2-9-2-12 0-21 9-21 21 0 4 2 8 4 11-9 14-16 31-23 50-24-8-46-12-65-12-27 0-47 8-58 23-18 25-12 64 17 110 6 10 14 20 22 30-52 50-76 100-59 133l6 8-1 7c0 12 9 21 21 21 6 0 12-3 16-7 10 3 22 4 36 4 18 0 39-2 60-7 19 66 51 109 88 109 34 0 63-36 83-93 24 8 46 12 65 12 27 0 47-8 58-23 8-11 11-25 10-41a21 21 0 00-11-39zm-353 61c-12 0-23-1-32-4-3-8-10-15-20-15l-4 1-3-4c-12-22 8-63 54-106 14 16 31 32 48 48 3 26 7 51 12 73-20 5-39 7-55 7zm42-111c-12-10-22-21-31-32l31-24a648 648 0 000 56zm2-84c-17 12-33 24-47 36-8-9-14-19-20-28-24-37-30-68-18-85 9-12 27-15 41-15 17 0 37 4 59 11-7 24-12 52-15 81zm185-10a613 613 0 00-50-36 484 484 0 0141-13c4 15 7 31 9 49zM215 53c11-1 20-10 20-21l-1-2c7-5 15-9 22-9 24 0 50 35 67 93-19 5-39 12-59 20-24-14-48-25-71-34 7-19 14-35 22-47zm-28 67c17 7 35 15 53 25a654 654 0 00-64 34c2-21 6-41 11-59zm-12 208a643 643 0 0050 36 484 484 0 01-41 13c-4-15-7-31-9-49zm81 163c-24 0-50-35-67-93 19-5 38-12 58-20 25 14 49 25 71 34-16 49-40 79-62 79zm69-99c-17-7-35-15-53-25a654 654 0 0064-34c-3 21-6 41-11 59zm14-86a602 602 0 01-90 48 603 603 0 01-77-56 604 604 0 011-92 610 610 0 0142-25c16-9 32-16 48-23a603 603 0 0177 56 604 604 0 01-1 92zm65-183c30 0 51 8 59 22 9 18-2 48-30 82l-24 24c-14-16-31-32-49-48-2-26-6-51-11-73 20-5 39-7 55-7zm-42 110l31 33-31 24a626 626 0 000-57zm83 162c-9 12-27 15-41 15-17 0-37-4-59-11 7-24 11-52 14-81 18-12 34-24 48-36a323 323 0 0136 58c-2 2-3 6-3 9 0 8 4 14 10 18 2 11 0 21-5 28zM256 213a43 43 0 100 86 43 43 0 000-86z"/></svg>