<svg xmlns="http://www.w3.org/2000/svg" viewBox="0 0 24 24"><path d="M16.25 14a.75.75 0 0 1-.75-.75v-4.5a.75.75 0 1 1 1.5 0v4.5a.75.75 0 0 1-.75.75zm-3 0a.75.75 0 0 1-.75-.75v-4.5a.75.75 0 1 1 1.5 0v4.5a.75.75 0 0 1-.75.75zm-3.5-6h-1A1.76 1.76 0 0 0 7 9.75v2.5A1.76 1.76 0 0 0 8.75 14h1a1.76 1.76 0 0 0 1.75-1.75v-2.5A1.76 1.76 0 0 0 9.75 8zm.25 4.25a.24.24 0 0 1-.25.25h-1a.24.24 0 0 1-.25-.25v-2.5a.24.24 0 0 1 .25-.25h1a.24.24 0 0 1 .25.25zM22.25 4H1.75A1.76 1.76 0 0 0 0 5.75v13.5A1.76 1.76 0 0 0 1.75 21h7.658c-.118.5-.43 1.314-1.262 2.146A.5.5 0 0 0 8.5 24h7a.5.5 0 0 0 .462-.309c.077-.187.034-.402-.108-.545-.83-.83-1.15-1.644-1.275-2.146h7.67A1.76 1.76 0 0 0 24 19.25V5.75A1.76 1.76 0 0 0 22.25 4zM22 17H2V6h20z"/></svg>