<svg xmlns="http://www.w3.org/2000/svg" width="682.7" height="682.7" version="1.0" viewBox="0 0 512 512" fill="#3b8bea"><path d="M26.5 1.9a152.3 152.3 0 0 0-26 27.4 10 10 0 0 0 3.1 10.2c4.4 4.1 10.3 3.8 15.2-.7l2.2-2.1v139.4l-3.3-2.5c-4.5-3.4-9.5-3.4-13.6 0-3.7 3.1-4.9 8-2.8 12A198 198 0 0 0 29.1 213a124.7 124.7 0 0 0-16.4 14.9C0 240.9-1.6 244 1.4 249.9c3.3 6.2 10.4 7.5 16.7 3l2.9-2v117.2l-3.3-2.5c-6.5-5-15.8-1.8-17.3 5.8-.9 5 1 7.7 14.9 21.3C27.3 404.6 27.8 405 32 405c4.2 0 4.7-.4 16.7-12.3 13.9-13.6 15.8-16.3 14.9-21.3-1.5-7.6-10.8-10.8-17.3-5.8l-3.3 2.5V250.9l2.9 2c6.3 4.5 13.4 3.2 16.7-3 3-5.9 1.4-9-11.3-22A124.7 124.7 0 0 0 34.9 213a198 198 0 0 0 27.8-27.4c2.1-4 .9-8.9-2.8-12-4.1-3.4-9.1-3.4-13.6 0l-3.3 2.5V36.7l2.3 2.1c4.8 4.5 10.7 4.8 15.1.7a10 10 0 0 0 3.1-10.2A158 158 0 0 0 36.8 1.4a9.2 9.2 0 0 0-10.3.5zM305 1.1c-2.7 1.1-190.4 188-195.1 194.3-3.9 5.3-3.9 10.3 0 14.5l2.9 3.1H505l3.2-2.9c2.8-2.5 3.3-3.6 3.3-7.5V198L414 100.4a5927.4 5927.4 0 0 0-100.2-99c-3.1-1.6-5.2-1.7-8.8-.3zM149 314.2c0 51.3.4 80.6 1 83 .6 2 2.2 4.6 3.7 5.8 2.5 2 3.5 2 84.4 2H320v-58.9c0-39.3.4-59.8 1.1-61.9 2.3-6.5 3-6.7 37.9-7 17.3-.2 33.5 0 35.9.3 2.9.5 5.4 1.6 7.3 3.5l2.8 2.8V405h57.8l3.1-3.1 3.1-3.1V235H149v79.2zm125.1-54.4 2.9 3.2v50l-2.9 3.2-2.9 3.3-23.4.3c-25.5.4-29.5-.2-32.4-4.6-1.7-2.4-1.9-5-1.9-26.8 0-19.5.3-24.6 1.5-26.9 2.7-5.1 5.2-5.5 31.8-5.2l24.4.2 2.9 3.3zM176.3 449.6c-1.7.9-8.3 6.8-14.6 13.2-16.5 17-16.5 17.6 1.2 35.4 13.9 13.9 16.9 15.5 23 12.4 6.2-3.3 7.5-10.4 3-16.7l-2-2.9h245.2l-2.5 3.3c-5 6.5-1.8 15.8 5.8 17.3 5 .9 7.7-1 21.4-14.9 11.8-12 12.2-12.5 12.2-16.7 0-4.2-.4-4.7-12.2-16.7-13.7-13.9-16.4-15.8-21.4-14.9-7.6 1.5-10.8 10.8-5.8 17.3l2.5 3.3H186.9l2-2.9c4.5-6.3 3.2-13.4-2.9-16.6-3.6-1.9-5.7-1.9-9.7.1z"/></svg>