<svg version="1.0" xmlns="http://www.w3.org/2000/svg" width="100pt" height="100pt" viewBox="0 0 1600 1582">
<ellipse cx="800" cy="800" rx="800" ry="790" fill="#3b8bea"/>
<g transform="translate(140,1438) scale(0.1,-0.1)" fill="#ffffff" stroke="none">
<path d="M6315 12884 c-27 -2 -122 -8 -210 -14 -986 -66 -1951 -338 -2778
-781 -956 -513 -1709 -1193 -2282 -2059 -148 -224 -252 -405 -379 -660 -379
-761 -588 -1562 -646 -2475 -13 -205 -13 -685 0 -890 75 -1176 411 -2204 1026
-3137 571 -866 1330 -1551 2292 -2067 305 -164 638 -306 997 -426 450 -151
855 -243 1337 -305 538 -69 1211 -78 1763 -24 1336 129 2521 599 3432 1360
234 196 588 544 588 578 0 10 -678 674 -1112 1089 l-42 40 -140 -136 c-807
-784 -1719 -1217 -2831 -1343 -195 -22 -767 -30 -983 -15 -700 51 -1304 209
-1892 495 -512 249 -916 537 -1302 927 -356 361 -617 728 -852 1199 -270 543
-421 1093 -483 1760 -16 174 -16 726 0 900 62 667 213 1217 483 1760 262 526
572 943 993 1338 566 530 1309 931 2101 1132 485 123 886 166 1457 157 347 -5
425 -11 688 -48 785 -111 1498 -404 2118 -869 193 -145 293 -230 490 -417 153
-145 153 -145 175 -127 18 16 905 873 1081 1045 58 56 59 58 44 81 -9 13 -94
103 -189 199 -638 642 -1386 1098 -2286 1392 -518 170 -1030 271 -1633 323
-172 14 -898 27 -1025 18z"/>
<path d="M6400 9784 c-892 -52 -1636 -368 -2200 -934 -600 -601 -920 -1414
-920 -2335 0 -1141 496 -2108 1377 -2688 496 -326 1019 -504 1703 -579 155
-17 748 -17 905 0 695 75 1242 273 1700 616 120 90 430 386 423 405 -1 5 -181
214 -398 464 l-395 454 -68 -61 c-377 -338 -758 -522 -1252 -602 -156 -25
-573 -30 -755 -10 -471 54 -862 220 -1187 504 -259 227 -452 555 -537 914 -13
53 -21 100 -18 103 3 3 1134 5 2513 5 l2508 0 6 43 c22 155 20 651 -5 862
-132 1140 -723 2023 -1671 2496 -356 178 -741 287 -1163 328 -119 12 -463 21
-566 15z m472 -1210 c396 -51 719 -203 997 -469 229 -220 387 -482 471 -783
28 -98 60 -248 60 -278 0 -12 -273 -14 -1820 -14 l-1820 0 4 23 c3 12 10 49
17 82 46 247 163 523 306 725 120 168 325 358 506 468 209 129 445 210 707
246 146 19 420 20 572 0z"/>
</g>
</svg>
