<svg version="1.0" xmlns="http://www.w3.org/2000/svg" width="1280px" height="640px" viewBox="0 0 1280 640">

	<rect x="0" y="0" width="100%" height="100%" fill="#deedf0"/>

	<g transform="translate(80,114)">
		<svg width="300pt" height="300pt" viewBox="0 0 1147 1290">
			<g transform="translate(0,1290) scale(0.1,-0.1)" fill="#3b8bea" stroke="none">
				<path d="M6315 12884 c-27 -2 -122 -8 -210 -14 -986 -66 -1951 -338 -2778
				-781 -956 -513 -1709 -1193 -2282 -2059 -148 -224 -252 -405 -379 -660 -379
				-761 -588 -1562 -646 -2475 -13 -205 -13 -685 0 -890 75 -1176 411 -2204 1026
				-3137 571 -866 1330 -1551 2292 -2067 305 -164 638 -306 997 -426 450 -151
				855 -243 1337 -305 538 -69 1211 -78 1763 -24 1336 129 2521 599 3432 1360
				234 196 588 544 588 578 0 10 -678 674 -1112 1089 l-42 40 -140 -136 c-807
				-784 -1719 -1217 -2831 -1343 -195 -22 -767 -30 -983 -15 -700 51 -1304 209
				-1892 495 -512 249 -916 537 -1302 927 -356 361 -617 728 -852 1199 -270 543
				-421 1093 -483 1760 -16 174 -16 726 0 900 62 667 213 1217 483 1760 262 526
				572 943 993 1338 566 530 1309 931 2101 1132 485 123 886 166 1457 157 347 -5
				425 -11 688 -48 785 -111 1498 -404 2118 -869 193 -145 293 -230 490 -417 153
				-145 153 -145 175 -127 18 16 905 873 1081 1045 58 56 59 58 44 81 -9 13 -94
				103 -189 199 -638 642 -1386 1098 -2286 1392 -518 170 -1030 271 -1633 323
				-172 14 -898 27 -1025 18z"/>
				<path d="M6400 9784 c-892 -52 -1636 -368 -2200 -934 -600 -601 -920 -1414
				-920 -2335 0 -1141 496 -2108 1377 -2688 496 -326 1019 -504 1703 -579 155
				-17 748 -17 905 0 695 75 1242 273 1700 616 120 90 430 386 423 405 -1 5 -181
				214 -398 464 l-395 454 -68 -61 c-377 -338 -758 -522 -1252 -602 -156 -25
				-573 -30 -755 -10 -471 54 -862 220 -1187 504 -259 227 -452 555 -537 914 -13
				53 -21 100 -18 103 3 3 1134 5 2513 5 l2508 0 6 43 c22 155 20 651 -5 862
				-132 1140 -723 2023 -1671 2496 -356 178 -741 287 -1163 328 -119 12 -463 21
				-566 15z m472 -1210 c396 -51 719 -203 997 -469 229 -220 387 -482 471 -783
				28 -98 60 -248 60 -278 0 -12 -273 -14 -1820 -14 l-1820 0 4 23 c3 12 10 49
				17 82 46 247 163 523 306 725 120 168 325 358 506 468 209 129 445 210 707
				246 146 19 420 20 572 0z"/>
			</g>
		</svg>
	</g>

	<g transform="translate(470,114)">
		<svg width="800" height="240" style="overflow: visible" viewBox="0 0 800 240" >
			<style>
				.title { font: 700 450% Montserrat; fill: black; }
				.subtitle { font: 550 280% Montserrat; fill: #000000a0; }
			</style>
			<text x="50%" y="25%" text-anchor="middle" class="title">Concise Encoding</text>
			<text x="50%" y="59%" text-anchor="middle" class="subtitle">the secure data format</text>
			<text x="50%" y="80%" text-anchor="middle" class="subtitle">for a modern world</text>
		</svg>
	</g>

	<style>
		.premise { font: 700 210% Montserrat; fill: black; }
	</style>

	<g transform="translate(520,360)">
		<svg width="220" height="220" viewBox="0 0 240 240" style="overflow: visible">
			<!--rect x="0" y="0" width="100%" height="100%" stroke="#ff000030" stroke-width="1" fill="#00000000"/ -->
			<svg viewBox="0 0 24 24" width="50%" height="50%" x="25%" y="0%">
				<path d="M17 1a7 7 0 00-5 3 7 7 0 00-5-3C3 1 0 4 0 8c0 6 10 14 11 14a2 2 0 002 0c1 0 11-8 11-14 0-4-3-7-7-7z" fill="#3b8bea"/>
			</svg>
			<text x="50%" y="64%" text-anchor="middle" class="premise">Simple</text>
		</svg>
	</g>

	<g transform="translate(760,360)">
		<svg width="220" height="220" viewBox="0 0 240 240" style="overflow: visible">
			<svg viewBox="0 0 512 512" fill="#3b8bea" width="50%" height="50%" x="25%" y="0%">
				<rect x="0" y="20%" width="90%" height="58%" rx="10%" fill="#ffffff"/>
				<path d="M43.3 87a58.6 58.6 0 00-41.7 41.7C.2 134.1 0 148.1 0 245.8v111.1l2.5 7.9a59.6 59.6 0 0044 39.7c6 1.3 32.6 1.5 188 1.5 201.5 0 188.1.4 203.2-7a60.7 60.7 0 0032.3-52.1v-4.6l7.3-.7a38.2 38.2 0 0031.4-21.4l2.8-5.7v-138l-3.3-6.7a36.5 36.5 0 00-30.8-20.6l-7.1-.4-.7-8.5a57.3 57.3 0 00-17.7-38.5 62.6 62.6 0 00-28.7-15.7c-3.7-.8-60.1-1.1-189-1-176.3 0-184 .1-190.9 1.9zm96.7 64.5c1.6.8 4.2 3.2 5.7 5.2l2.8 3.6.3 83.6.2 83.6-2.2 4.5a13.5 13.5 0 01-6.8 6.7c-4.3 2.2-5.3 2.3-33.2 2.3-31.4 0-32.9-.2-38-5.6a19.1 19.1 0 01-3.7-7.4c-1.3-5.5-1.4-158.4-.2-164.9 1.1-5.3 3.6-8.8 8.1-11.2 3.2-1.7 6.2-1.9 33.8-1.9 25 0 30.8.3 33.2 1.5zm128 0c1.6.8 4.2 3.2 5.7 5.2l2.8 3.6.3 83.6.2 83.6-2.2 4.5a13.5 13.5 0 01-6.8 6.7c-4.3 2.2-5.3 2.3-33.2 2.3-31.4 0-32.9-.2-38-5.6a19.1 19.1 0 01-3.7-7.4c-1.3-5.5-1.4-158.4-.2-164.9 1.1-5.3 3.6-8.8 8.1-11.2 3.2-1.7 6.2-1.9 33.8-1.9 25 0 30.8.3 33.2 1.5zm128 0c1.6.8 4.2 3.2 5.7 5.2l2.8 3.6.3 83.6.2 83.6-2.2 4.5a13.5 13.5 0 01-6.8 6.7c-4.3 2.2-5.3 2.3-33.2 2.3-31.4 0-32.9-.2-38-5.6a19.1 19.1 0 01-3.7-7.4c-1.3-5.5-1.4-158.4-.2-164.9 1.1-5.3 3.6-8.8 8.1-11.2 3.2-1.7 6.2-1.9 33.8-1.9 25 0 30.8.3 33.2 1.5z"/>
			</svg>
			<text x="50%" y="64%" text-anchor="middle" class="premise">Efficient</text>
		</svg>
	</g>

	<g transform="translate(1000,360)">
		<svg width="220" height="220" viewBox="0 0 240 240" style="overflow: visible">
			<svg viewBox="0 0 512 512" fill="#3b8bea" width="50%" height="50%" x="25%" y="0%">
				<rect x="30%" y="30%" width="40%" height="40%" rx="30%" fill="#ffffff"/>
				<path d="M224 1.5c-46.2 6-85.6 22.2-124 50.9A345.4 345.4 0 0052.4 100a258.7 258.7 0 00-44.9 92.5c-6 23.3-7 32.7-7 64 .1 30.1 1.2 40.6 7.1 63.5 3.2 12 5.1 15.9 9.3 18.7 9.6 6.5 22.2 2 25.2-9 1-3.7.7-5.8-2.5-18.7a212.3 212.3 0 01-6.6-55.8c0-58.4 21.9-112.1 63-154.6A223 223 0 01281.5 34 222.9 222.9 0 01399 84.9l2.5 2-7.6 7.8c-9.1 9.3-10.1 11-10.1 17.5.1 5.9 2.5 10.4 7.2 13.5 3.2 2.3 3.7 2.3 35.5 2.3s32.3 0 35.5-2.3a26 26 0 005.4-5c2-2.7 2.1-4.2 2.4-33.5.3-35.1 0-37.3-6.8-41.8-9.2-6.1-15.2-4.4-28.2 8.4l-9.7 9.4-8.3-6.6a253 253 0 00-133-55.5 397.2 397.2 0 00-59.8.4z"/>
				<path d="M192.8 147.9a959.8 959.8 0 00-59.9 21.7c-5 4.5-4.9 3.8-4.9 60.2 0 58.9.3 62.3 6.6 81.1A160.8 160.8 0 00176 375c19 19.1 38.3 33.1 63.7 46.2 9.3 4.8 12.1 5.8 16.3 5.8 4.2 0 7-1 16.3-5.8A241.2 241.2 0 00336 375a160.4 160.4 0 0041.4-64.1c6.3-18.9 6.6-22.4 6.6-81.4 0-50.8-.1-53.1-2-56.2a15 15 0 00-4.2-4.7c-1.3-.8-28.1-10.3-59.7-21-46.3-15.8-58.5-19.6-62.5-19.5-3.9 0-19.3 4.9-62.8 19.8zm124 67.7c10.8 4.5 16.2 17.4 11.4 27.2-1 2-15.9 21.5-33 43.4-26.4 33.5-31.9 39.9-35.5 41.7a20.3 20.3 0 01-17.2.2c-6.4-3-44.6-36.3-47.2-41.2A20.3 20.3 0 01213 257c7.3 0 10.3 1.6 22.7 12.4 6.2 5.3 11.5 9.6 12 9.6.4-.1 11.4-13.6 24.3-30.1a472.9 472.9 0 0125.5-31.2c6.7-3.9 13.4-4.6 19.3-2.1z"/>
				<path d="M478.3 172.1a17 17 0 00-8.9 11.6c-.4 2 .7 8.3 3 17.4a332 332 0 015.1 26.2c2 15.4 1.9 42.2-.1 57.9a224.8 224.8 0 01-163.2 186.4 231.4 231.4 0 01-99.8 3.9 230.8 230.8 0 01-102.9-49.7c-.6-.5 2-3.8 6.7-8.6 9-9.2 10-10.9 10-17.4a15.8 15.8 0 00-7.2-13.6c-3.4-2.3-3.4-2.3-36.6-2l-33.3.3-3.2 3c-5.7 5.4-5.9 6.6-5.9 39.2 0 33.7.5 35.9 7.3 40.2 9.3 5.7 15 3.9 27.9-8.7l9.7-9.4 8.3 6.6A255.5 255.5 0 00228.5 511c13.5 1.5 45.6 1.2 59.2-.5a256.8 256.8 0 00219.8-204c4.4-21.5 5.9-56 3.4-78.3-2.5-22.6-9-49.1-13.1-53a22.6 22.6 0 00-12.5-5.2c-1.5 0-4.7.9-7 2.1z"/>
			</svg>
			<text x="50%" y="64%" text-anchor="middle" class="premise">Secure</text>
		</svg>
	</g>
</svg>
