<svg xmlns="http://www.w3.org/2000/svg" viewBox="0 0 512 512" fill="#209cee"><path d="M362.667 256c0-23.53-19.136-42.667-42.667-42.667S277.333 232.47 277.333 256c0 5.888 4.78 10.667 10.667 10.667s10.667-4.78 10.667-10.667c0-11.755 9.58-21.333 21.333-21.333s21.333 9.58 21.333 21.333a34.77 34.77 0 0 1-12.544 26.795l-47.616 39.68a10.66 10.66 0 0 0-3.2 11.84c1.536 4.224 5.547 7.04 10.027 7.04h64c5.888 0 10.667-4.78 10.667-10.667S357.888 320.02 352 320.02h-34.54l24.98-20.82c12.843-10.73 20.225-26.475 20.225-43.2zM501.333 42.667H10.667C4.78 42.667 0 47.445 0 53.333v405.333c0 5.888 4.78 10.667 10.667 10.667h490.667c5.888 0 10.667-4.78 10.667-10.667V53.333c-.001-5.888-4.78-10.666-10.668-10.666zM448 405.333H64V106.667h384v298.666zM117.355 234.667h35.456l39.98 99.968a10.64 10.64 0 0 0 9.77 6.7h.128c4.267 0 8.128-2.54 9.792-6.464L273.707 192h120.96c5.888 0 10.667-4.78 10.667-10.667s-4.78-10.667-10.667-10.667h-128c-4.267 0-8.128 2.54-9.792 6.464L203.03 302.783l-33.1-82.752a10.66 10.66 0 0 0-9.899-6.699h-42.667c-5.888 0-10.667 4.78-10.667 10.667s4.78 10.668 10.667 10.668z"/></svg>