<svg xmlns="http://www.w3.org/2000/svg" viewBox="0 0 512.001 512.001" fill="#209cee"><path d="M458.667 192C452.78 192 448 196.78 448 202.668V224c0 5.888 4.78 10.667 10.667 10.667s10.667-4.78 10.667-10.667v-21.333c-.001-5.9-4.78-10.667-10.667-10.667zm0 56.897c-5.888 0-10.667 4.78-10.667 10.667v35.563c0 5.888 4.78 10.667 10.667 10.667s10.667-4.78 10.667-10.667v-35.563c-.001-5.9-4.78-10.667-10.667-10.667zm0 71.103C452.78 320 448 324.78 448 330.668v10.667h-10.667c-5.888 0-10.667 4.78-10.667 10.667s4.78 10.667 10.667 10.667h21.333c5.888 0 10.667-4.78 10.667-10.667V330.67c0-5.9-4.778-10.668-10.666-10.668zm-67.542 21.334h-46.23c-5.888 0-10.667 4.78-10.667 10.667s4.78 10.667 10.667 10.667h46.23c5.888 0 10.667-4.78 10.667-10.667s-4.78-10.667-10.667-10.667zm-92.458 0h-21.333c-5.888 0-10.667 4.78-10.667 10.667s4.78 10.667 10.667 10.667h21.333c5.888 0 10.667-4.78 10.667-10.667s-4.78-10.667-10.667-10.667zm65.045-322.41L349.12 3.37c-4.032-4.3-11.52-4.3-15.552 0l-14.592 15.552c-4.032 4.288-3.82 11.05.5 15.083 4.267 4 10.987 3.797 15.06-.5l6.805-7.253 6.805 7.253a10.64 10.64 0 0 0 15.083.491 10.67 10.67 0 0 0 .49-15.083zm52.33 55.83L389.867 46.85c-4.032-4.288-10.773-4.5-15.083-.5a10.66 10.66 0 0 0-.49 15.083l26.176 27.904a10.64 10.64 0 0 0 15.083.491 10.66 10.66 0 0 0 .49-15.083zm52.33 55.807l-26.176-27.904c-4-4.288-10.773-4.5-15.083-.5a10.66 10.66 0 0 0-.49 15.083l26.176 27.904a10.64 10.64 0 0 0 15.083.491 10.67 10.67 0 0 0 .49-15.083zm40.747 43.478l-14.592-15.552c-4.032-4.288-10.773-4.5-15.083-.5-3.648 3.435-4.373 8.8-2.027 12.992a10.67 10.67 0 0 0-8.085 10.347c0 5.888 4.78 10.667 10.667 10.667h21.333a10.69 10.69 0 0 0 9.792-6.42c1.686-3.905.896-8.45-2.005-11.542zm-68.736-3.37h-39.616c-5.888 0-10.667 4.78-10.667 10.667S394.88 192 400.768 192h39.616c5.888 0 10.667-4.78 10.667-10.667s-4.78-10.667-10.667-10.667zm-79.232 0h-39.616c-5.888 0-10.667 4.78-10.667 10.667a10.66 10.66 0 0 0 10.667 10.667h39.616c5.888 0 10.667-4.78 10.667-10.667s-4.78-10.667-10.667-10.667zm-79.252 0h-39.616c-5.888 0-10.667 4.78-10.667 10.667S236.395 192 242.283 192H281.9a10.66 10.66 0 0 0 10.667-10.667c0-5.888-4.78-10.667-10.667-10.667zm-76.652.32c2.347-4.18 1.643-9.557-2.027-12.992-4.288-4.053-11.05-3.82-15.083.5l-14.592 15.552c-2.9 3.093-3.7 7.637-2.005 11.54 1.707 3.904 5.547 6.42 9.792 6.42h21.333c5.888 0 10.667-4.78 10.667-10.667a10.67 10.67 0 0 0-8.085-10.346zm50.304-68.82c-4.288-4.032-11.05-3.82-15.083.5l-26.176 27.904c-4.032 4.288-3.82 11.05.5 15.083 2.07 1.92 4.693 2.88 7.296 2.88 2.837 0 5.675-1.13 7.787-3.37l26.176-27.904c4.032-4.288 3.818-11.05-.5-15.083zm52.33-55.808c-4.288-4.032-11.03-3.84-15.083.5l-26.176 27.904c-4.032 4.288-3.82 11.05.5 15.083a10.64 10.64 0 0 0 7.296 2.88c2.837 0 5.675-1.13 7.787-3.37l26.176-27.904c4.03-4.288 3.818-11.05-.5-15.083zM74.667 64h32V10.667C106.667 4.78 101.888 0 96 0H10.667C4.78.001 0 4.78 0 10.667v395.947l106.667-60v-5.3h-32c-5.888 0-10.667-4.78-10.667-10.667S68.78 320 74.667 320h32v-42.667h-32c-5.888 0-10.667-4.78-10.667-10.667S68.78 256 74.667 256h32v-42.667H53.333c-5.888 0-10.667-4.78-10.667-10.667S47.446 192 53.333 192h53.333v-42.67h-32c-5.888 0-10.667-4.78-10.667-10.667s4.78-10.667 10.667-10.667h32V85.334h-32C68.78 85.334 64 80.555 64 74.667S68.78 64 74.667 64zm426.666 341.334H448v32c0 5.888-4.78 10.667-10.667 10.667s-10.667-4.78-10.667-10.667v-32H384v32c0 5.888-4.78 10.667-10.667 10.667s-10.667-4.78-10.667-10.667v-32H320v53.333c0 5.888-4.78 10.667-10.667 10.667s-10.667-4.78-10.667-10.667v-53.333h-50.86l-1.963 4.907a53.46 53.46 0 0 1-23.381 26.667L88.96 512h412.373c5.888 0 10.667-4.78 10.667-10.667V416c0-5.888-4.78-10.667-10.667-10.667zM200.5 413.206l-32.405-63.957c-2.752-5.42-9.408-7.38-14.7-4.416L5.46 428.033c-4.97 2.795-6.87 8.98-4.3 14.08l32 64c1.3 2.624 3.627 4.565 6.42 5.42.98.32 2.048.47 3.093.47 1.813 0 3.605-.448 5.227-1.365l148.267-83.392c5-2.817 6.932-8.94 4.33-14.038zm43.542-66.304c-1.493-2.773-4.16-4.736-7.275-5.355l-32.683-5.93c-8.62-1.515-15.275 7.445-11.37 15.275l18.987 37.952c4.075 8.128 15.808 7.787 19.35-.576l13.525-32.32c1.175-2.944.983-6.25-.532-9.045z"/></svg>