<svg xmlns="http://www.w3.org/2000/svg" viewBox="0 0 512 512" fill="#209cee"><path d="M459 192c-6 0-11 5-11 11v21a11 11 0 0021 0v-21c0-6-4-11-10-11zm0 57c-6 0-11 5-11 11v35a11 11 0 0021 0v-35c0-6-4-11-10-11zm0 71c-6 0-11 5-11 11v10h-11a11 11 0 000 22h22c6 0 10-5 10-11v-21c0-6-4-11-10-11zm-68 21h-46a11 11 0 000 22h46a11 11 0 000-22zm-92 0h-22a11 11 0 000 22h22a11 11 0 000-22zm65-322L349 3c-4-4-11-4-15 0l-15 16a11 11 0 1016 15l6-8 7 8a11 11 0 0015 0 11 11 0 001-15zm52 56l-26-28c-4-4-11-5-15-1a11 11 0 00-1 15l26 28a11 11 0 0016 1 11 11 0 000-15zm52 56l-26-28c-4-5-11-5-15-1a11 11 0 000 15l26 28a11 11 0 0015 1 11 11 0 000-15zm41 43l-14-16c-5-4-11-4-16 0-3 3-4 9-2 13a11 11 0 00-8 10c0 6 5 11 11 11h21a11 11 0 0010-6c2-4 1-9-2-12zm-69-3h-39a11 11 0 000 21h39a11 11 0 000-21zm-79 0h-39c-6 0-11 4-11 10a11 11 0 0011 11h39a11 11 0 000-21zm-79 0h-40a11 11 0 000 21h40a11 11 0 0011-11c0-6-5-10-11-10zm-77 0a11 11 0 00-17-13l-14 16a11 11 0 007 18h22c6 0 10-5 10-11a11 11 0 00-8-10zm51-69c-5-4-11-4-16 1l-26 28a11 11 0 1016 14l26-28c4-4 4-11 0-15zm52-56c-4-4-11-3-15 1l-26 28c-4 4-4 11 0 15a11 11 0 007 3c3 0 6-1 8-4l26-28c4-4 4-11 0-15zM75 64h32V11c0-6-5-11-11-11H11C5 0 0 5 0 11v396l107-60v-6H75a11 11 0 010-21h32v-43H75a11 11 0 010-21h32v-43H53a11 11 0 010-21h54v-43H75a11 11 0 010-21h32V85H75a11 11 0 010-21zm426 341h-53v32a11 11 0 01-21 0v-32h-43v32a11 11 0 01-21 0v-32h-43v54a11 11 0 01-21 0v-54h-51l-2 5a53 53 0 01-24 27L89 512h412c6 0 11-5 11-11v-85c0-6-5-11-11-11zm-300 8l-33-64c-3-5-9-7-15-4L5 428c-5 3-6 9-4 14l32 64a11 11 0 0015 5l148-84c5-3 7-9 4-14zm43-66c-1-3-4-5-7-5l-33-6c-9-2-15 7-11 15l19 38c4 8 16 8 19-1l14-32c1-3 1-6-1-9z"/></svg>