<svg version="1.0" xmlns="http://www.w3.org/2000/svg" width="240" height="240" viewBox="0 0 180 180" fill="#3b8bea">
	<path d="M68 5c-3 4-3 5-2 10 0 5 0 5-3 10-3 4-3 5-2 8 1 2 1 3-1 7-1 4-1 8 1 8l2 7c1 7 1 8 4 9 3 2 3 2 5 0 1-2 4-3 4-2l-2 6c-3 6-2 7 0 9l2 2-2 3-4 4c-2 0-1 2 1 3 1 1 3 1 7-1h6l-9 14c-10 15-11 15-15 7-2-7 0-12 4-14s4-3 0-5c-3-1-3-1-7 1l-4 2 2-7c4-19 3-22-9-36l-9-10 1-3c1-2 0-3-1-3-2-1-5 5-5 9s-1 4-4 1c-5-6-5-9-1-13 3-4 4-4 14 0 6 2 8 2 10 1 5-2 7-10 2-15l-2-2-2 4-2 6c-3 2-14 0-18-3-5-4-10-6-14-6-7 2-13 9-13 16 0 4 2 8 7 14l4 5-3 6-3 8c0 6 5 14 9 14v-6c0-5 1-6 3-9 5-4 9-6 10-5s2 2 1 4v11c2 3 4 4 4 1 0-2 7-8 8-8l4 4 2 10-3 18c-1 0-3-1-5-4-5-4-8-6-11-6s-3 2 2 9c5 9 8 11 18 15l11 6c4 3 6 10 6 15-2 6-6 6-15-3l-7-6h-9c-13 0-16 3-10 7 4 2 4 3 3 8 0 4-1 5-4 8s-3 3-2 5c0 2 2 3 3 4 2 1 3 2 3 9v7h5l9 4 5 3 6-5 6-4-4-5-6-6c-2 0-2 0 1-2s3-2 6 0c2 0 6 4 9 7l6 6 4-1c10-3 13-7 15-20 1-8 3-16 5-16l3 5 3 4-4 8c-3 7-3 9-3 13 1 6 3 7 8 7l17-2 12-1 4 2c5 3 6 4 10 2 2-1 4-2 6-1 5 2 7 0 7-6 1-5 0-9-4-13l-2-2-6 3-6 4-8-3-8-3 2-3c2-2 3-2 8-2l8 2c7 1 4-9-4-17a59 59 0 0 0-43-16h-8v-2c0-4 8-9 18-13 7-2 9-2 10-1 3 2 4 1 7-3l4-2c1 0 2 3 2 7l2 6 4-3 5-3 3-3c1-2 2-3 5-3 3-1 4-1 7 3 4 4 5 4 8 0 2-2 2-2 4 0l5 5c6 4 6 3 6-10 0-12 1-12-8-10-5 1-6 1-10-1-6-2-7-4-4-7 2-2 1-6-3-15l-2-9 4-4 5-5c1-2 2-5 4-6l3-6c0-3 0-4-5-8l-7-4-3 2-6 3-3 1-1 10c-1 11-1 13-8 15h-24l3-3c3-3 2-4-3-5-4 0-9-2-9-4l6-4 6-2 1-6c2-8 2-8-6-12-9-4-16-6-23-6l-7-1-3-3-3-2-3 4zm32 12c3 4-3 5-7 2-2-2-2-2-1-3 2-2 6-1 8 1zm-77 3 4 3-4 3c-4 3-5 5-6 8 0 4 0 4-2 2-4-3-6-7-5-10 1-4 5-8 7-8l6 2z"/>
	<path d="m120 31-7 3-7 3h6l9-1c3-1 4-1 4-4 0-2 0-3-2-3l-3 2z"/>
</svg>
