<svg xmlns="http://www.w3.org/2000/svg" viewBox="0 0 512 512" fill="#209cee"><path d="M226.5 1.1c-48.7 6-91.7 23.9-131 54.7-10.4 8.2-35 33.4-43.1 44.2a253.8 253.8 0 00-51 125c-2 16.8-1.5 55 1 70.5 8.3 51.7 32 99.5 67.9 137.1a255 255 0 00144.1 76.6c17.4 3 54.3 3.7 72.7 1.3A256.4 256.4 0 00511 283.3c1.6-14.5.8-53.3-1.4-66.7A257.6 257.6 0 00288 1.5a408.3 408.3 0 00-61.5-.4zm47.5 43a217 217 0 0136.5 6.5l5 1.4v22.7c.1 20.9.3 23.9 2.8 35.4a172.3 172.3 0 0022.8 56.9 96.5 96.5 0 0033.9 31c17.2 8.8 41.8 11.3 73.2 7.4a88 88 0 0113.5-1c1.8 1.8 6.3 29.8 6.3 39.3 0 5.3-.1 5.5-2.2 4.9-1.3-.4-6.2-1-10.9-1.3a35 35 0 00-15.5 1.5c-9.6 2.9-14.1 6.1-28.7 20-20.7 19.9-25.8 21.2-49.7 13a113 113 0 00-48-8.2c-15.5.1-18.6.4-27.2 2.7a105.7 105.7 0 00-75.7 76c-9.4 35.8-.4 77.2 23.8 109.6 2.3 3 3.9 5.6 3.7 5.8a213.5 213.5 0 01-159.8-96.2l-5.8-8.9 8.8-2.3a80 80 0 0043.4-28.4c9.7-12.6 12.7-21.2 15.2-43.4 1.9-16.2 3.5-21.7 8.8-29.5 7.2-10.9 16.8-17 33.2-21.4a96.3 96.3 0 0045.3-25 94.7 94.7 0 0028-47.5c2-7.8 2.6-12.9 3-27.2 1.2-37.1-4.2-63.1-17.6-85.6l-4.9-8.2 5.2-.4c11.1-.8 22.6-.6 33.6.4z"/></svg>