<svg version="1.0" xmlns="http://www.w3.org/2000/svg" width="682.7" height="682.7" viewBox="0 0 512 512" fill="#3b8bea"><path d="M83 2c-7 3-14 10-17 17l-2 6v231c0 231 0 231 2 236 3 7 9 14 15 17l6 3h168c168 0 168 0 173-2 7-3 14-9 17-15l3-5V134l-67-67-66-67H202C90 0 88 0 83 2zm288 126c-42 0-45 0-48-5-2-3-2-4-3-44V37l45 45 45 45-39 1zm-17 65c8 2 10 10 5 16l-3 3H156l-3-3c-5-6-3-14 4-16h197zm3 86c7 4 7 14 0 18l-101 1-100-1c-7-3-8-14-1-18 4-2 198-2 202 0zm2 88c5 6 3 14-5 16H158c-5-1-8-5-8-10 0-3 3-8 6-9l101-1h99l3 4z"/></svg>