<svg xmlns="http://www.w3.org/2000/svg" version="1.0" viewBox="0 0 512 512" fill="#3b8bea"><path d="M337.5 1.6A149.7 149.7 0 00256.9 255a147.4 147.4 0 0075.8 41.2c14.4 3.2 45.3 3.2 60 0A150.4 150.4 0 00509.6 179a220 220 0 00.1-59 161.6 161.6 0 00-25.4-58.3 182.4 182.4 0 00-34-34A162.6 162.6 0 00393 2.5a229 229 0 00-55.5-.9zm33.4 44.1c5.7 4.3 6.6 6.7 6.9 18.4l.4 10.9h11.9c13.3 0 16.7.9 21.3 5.9 2.3 2.4 3 4.2 3.4 8.6.4 4.7.1 6.1-2.1 9.4-4.5 6.8-6.2 7.1-35.4 7.1-29 0-30.9.4-34.5 7.1-3.6 6.8-1.2 15.6 5.3 19.1 2.7 1.5 5.7 1.8 15.9 1.8 7.2 0 14.6.6 17.5 1.4a44 44 0 0133.5 43.5 44.1 44.1 0 01-30 41.8l-6.5 2.2-.5 11.3c-.4 8.7-.9 11.9-2.4 14-4.5 6.8-14.2 8.9-20.6 4.5-6.4-4.3-7.5-6.8-7.8-18.2l-.4-10.3-12.6-.4c-14.2-.5-17.5-1.6-21.4-7-3.2-4.6-3.2-13 0-17.6 4.6-6.4 5.8-6.6 36.2-7.2 29.6-.5 30.2-.6 33.4-6.1 2.3-4 2.1-12-.5-15.3-3.7-4.6-6.8-5.6-18.7-5.6a57.5 57.5 0 01-27.7-4.9 44.3 44.3 0 016.2-82.7l5.3-1.5v-9.8c0-8 .4-10.4 2.3-14.1 4.1-8.2 14.8-11.3 21.6-6.3zM3.1 258.8l-3.1 3v201.8l3.1 3 3 2.9 25.6.3c26.4.3 29.4 0 32.8-3.7.8-1 12.6-40.7 26.1-88.2 26.5-93.2 25.8-90.2 21.5-98.8-4-7.8-9.6-10.7-31.1-16a214.7 214.7 0 00-53.7-6.8l-21.2-.6-3 3.1zM144.8 297.8c-.3 2.1-10.3 38.3-22.3 80.5s-21.6 76.9-21.4 77.1c1.1 1.1 43.2 19 61.5 26.1a508 508 0 0093.8 29c17.7 3 37.1 1.7 59.4-4.1 61.7-16 162.7-64.5 190.5-91.4 5.7-5.6 5.7-5.6 5.7-11.5 0-7.4-2.4-12.9-8-18.5-10.4-10.4-30-14.5-49.8-10.4-15.8 3.2-31.1 8.8-82.7 30.2-41.8 17.3-56.7 21.6-74.5 21.6-13.1-.1-26-2.8-42.7-9-15-5.6-47.4-22.5-40.3-21a970 970 0 0064 8.3c45.1 3.8 63.3-3.5 63.4-25.7.1-9.7-2.7-16.1-9.8-22.9-11.9-11.1-32.3-18-72.4-24.1l-13.4-2-13.6-7.9a171.7 171.7 0 00-71.7-26.1 391 391 0 01-12.1-1.6c-3-.4-3.2-.3-3.6 3.4z"/></svg>