<svg xmlns="http://www.w3.org/2000/svg" version="1.0" viewBox="0 0 512 512" fill="#209cee"><path d="M25.4 1.8c-1.2.9-2.7 2.7-3.3 3.9-.8 1.5-1.1 21.7-1.1 68.8 0 58.5.2 67 1.6 69.6 2.8 5.5 5.5 5.9 35.4 5.9h27v153.5l-12.2-12.2a173.5 173.5 0 00-14.5-13.2c-5.4-2.7-12.6 0-14.9 5.6-2.9 6.7-2 8 22.9 33 24.5 24.7 26.8 26.4 33 24.4 4.9-1.6 49.3-46.5 50.2-50.7 1.8-8.8-7.9-16.3-15.8-12.3-1.2.6-7.7 6.6-14.4 13.2L107 303.5V150h27c29.9 0 32.6-.4 35.4-5.9 1.4-2.6 1.6-11.1 1.6-69.6 0-47.1-.3-67.3-1.1-68.8-.6-1.2-2.1-3-3.3-3.9C164.7.2 159.4 0 96 0 32.6 0 27.3.2 25.4 1.8zM347.3 107.5c-6.5 2.8-6.3.4-6.3 74 0 47.1.3 67.3 1.1 68.8 2.9 5.6 3 5.7 34.2 5.7h28.8l-.4 54.2c-.4 58.3-.2 56.4-5.8 70.3a76.6 76.6 0 01-40.9 40.2c-12.7 5.1-15.4 5.3-74 5.3l-54.5-.1 11.5-11.1c13.8-13.5 15-15 15-20.6 0-6.1-4.1-10.2-10.2-10.2-2.4 0-5.4.8-6.9 1.8-1.4.9-12.5 11.9-24.7 24.4L192 432.8v9.6l22.8 22.9a394 394 0 0025.4 24.3c7.8 4.1 15.7-.8 15.8-10v-4.8l-13.1-13.4-13.2-13.3 59.4-.3 59.4-.3 8.8-2.8a96 96 0 0041-24.1c12.1-12 21-27.2 25.8-44.1 2.2-7.8 2.3-9.4 2.6-64.3l.4-56.2h28.7c31.1 0 31.2-.1 34.1-5.7.8-1.5 1.1-21.7 1.1-68.8 0-73.9.2-71.3-6.5-74.1-5-2.1-132.4-2-137.2.1zM27.3 363.5c-6.5 2.8-6.3.4-6.3 74 0 47.1.3 67.3 1.1 68.8.6 1.2 2.1 3 3.3 3.9 1.9 1.6 7.2 1.8 70.6 1.8 63.4 0 68.7-.2 70.6-1.8 1.2-.9 2.7-2.7 3.3-3.9.8-1.5 1.1-21.7 1.1-68.8 0-73.9.2-71.3-6.5-74.1-5-2.1-132.4-2-137.2.1z"/></svg>