<svg xmlns="http://www.w3.org/2000/svg" viewBox="0 0 511.996 511.996" fill="#209cee"><path d="M284.16 302.202l-25.504 13.312c-26.208 13.984-59.392 7.328-78.752-15.872l-12.544-15.04c-10.624-12.8-9.76-31.328 2.016-43.072l78.144-78.144-15.392-9.056c-2.464-1.44-5.28-2.208-8.128-2.208h-58.1l8.416-16.832c3.968-7.904.736-17.504-7.168-21.472l-48-24c-7.872-3.936-17.472-.736-21.44 7.168l-96 192C-2.27 296.9.96 306.5 8.865 310.458l48 24c2.272 1.152 4.704 1.664 7.136 1.664 5.888 0 11.52-3.264 14.336-8.832l5.44-10.848 124.064 91.744c14.176 10.464 31.072 15.68 47.936 15.68 17.152 0 34.24-5.408 48.416-16.192l55.68-42.752-75.712-62.72zm226.145-13.216l-96-192c-3.968-7.936-13.536-11.104-21.472-7.168l-48 24c-7.904 3.968-11.104 13.568-7.168 21.472l8.448 16.832h-42.08L192 264.122l12.512 15.04c9.664 11.584 26.144 14.976 39.232 8.032l44.512-23.2 97.76 80.992 40.832-31.488 6.88 13.76c2.816 5.6 8.48 8.832 14.304 8.832 2.4 0 4.832-.544 7.168-1.696l48-24c7.872-3.904 11.04-13.504 7.104-21.408z"/></svg>