<svg xmlns="http://www.w3.org/2000/svg" viewBox="0 0 1790 624"><path fill="#fff" stroke="#fff" stroke-opacity=".4" d="M191 330l-29-12.3c-27.48-14.8-50.64-36.8-66.55-63.7C50.2 177.5 73.55 76.9 148 28.08 172.9 11.74 203.1 1.33 233 1h20c14.24.17 36.7 6.08 50 11.4 17.84 7.13 35.73 17.88 50 30.77 54.8 49.5 71.52 128.68 40.7 195.83-18.33 39.94-50.9 70.37-91.7 86.55-19.83 7.87-34.28 8.26-43 11.45 8.1.73 20.3 5.32 28 8.4 26.86 10.74 50.64 27.85 69.7 49.6 6.06 6.9 11.68 14.36 16.78 22 2.54 3.8 6.2 10.73 9.6 13.35 3 2.3 8.26 3.7 11.9 5.07l30 9.92c29.34 9.16 62.35 16.5 93 18.75l12 .9h21l10-.9c30.7-2.25 63.28-11.36 92-22.28 6.6-2.5 30.44-11.9 34.9-15.44 3.66-2.9 8.28-12.8 10.96-17.37 4.68-7.96 11.92-17.26 18.23-24 21.8-23.3 59.75-40.95 91.9-41h14c30.57.36 67.92 18.1 88.72 40.1 6.97 7.37 13.15 15.35 18.6 23.9 2.4 3.8 4.98 10.6 8.8 12.57 2.88 1.48 14.9 2.22 18.9 2.7 18.18 2.24 36.68 1.8 55 1.72l24-1.92c30.02-2.4 71.42-11.36 93.9-32.37 4.02-3.75 10.35-12 13.4-16.7 5.9-9.17 11.68-18.88 11.7-30v-26l-1-23 38-4.72 57-7.56 36-4.72V64c.02-9.18.02-7.76 14-14.75 12.13-6.07 26.13-11.96 39-16.25 20.86-6.96 42.04-12.74 64-14.96h8l11-1.02 9 .9c22.2 1.62 43.5 7.92 64 16.5 9.8 4.12 20.78 9.3 30 14.58 2.75 1.57 9.66 5.17 11.4 7.38 1.92 2.42 1.6 5.7 1.6 8.62v190c0 2.38-.2 5.7 1.02 7.8 1.5 2.52 7.3 5.43 9.98 6.9l24 13.08 75 41.08 39 21.14c-1.83 7.5-1 28.1-1 37 0 2.63-.45 7.62.88 9.78 1.53 2.47 5.57 3.76 8.12 5.1l17 9.8c17.72 11.4 31.62 24.97 42.15 43.3 28.1 48.97 34.85 118.33 34.85 174h-127c1.84-7.58 1-28.97 1-38l.9-12c.47-8.4-5.17-17.58-10.2-24-16.34-20.86-37.5-26.04-62.7-25.93h-9c-3.47-.4-5.6-2.75-8-5.1-5.8-5.6-9.68-10.12-13.94-16.98-13-20.96-18.28-53.13-11.9-77 5-18.66 15.8-32.55 30.85-44.33 6.9-5.4 12.9-9.98 22-9.63 15.3.6 53.04 8.84 67 14.96v-22l-1.02-7.8-10.98-7.43-25-13.56L1510 269v122l-1 15v193l-1 15v10h-17V441l1-15V268l-37 5.28L1173 311l1 17v42l1 17v42l1 17v45l1 15v42l1 17v42l1 17h-18.04v-15l-.96-12v-42l-1-15v-18c-12.95 7.18-41.06 15.12-56 18.42-20.28 4.48-40.3 7.25-61 8.67l-12 .9h-42l-37-3.28-12-1.72-2-8c-4.55 15.9-25.1 38.5-38 48.58-54.47 42.45-130.98 38.44-180-10.58-9.1-9.1-17.4-19.35-23-31-43.42 25-99.7 48.4-150 52.1l-12 .9-49-1.17-60-9.83 2 38h-18c0-68.1-15.36-150.53-56.9-206-14.96-19.96-34.16-36.8-56.1-48.7-37.8-20.5-94.42-27.24-136-16.16-20.1 5.36-39.06 14.86-55 28.3-51.9 43.7-72.82 118.7-81.28 183.56L20 599v9l-1 16H1l1-21 4.73-46C17.23 484.16 42.56 400.33 107 357.35c16.33-10.9 35.86-18.7 55-22.93l19-3.14c4.72-.57 4.74 0 10-1.28zm43-311.72l-12 1c-9.8 1.2-19.62 3.42-29 6.45C155.48 37.9 123.57 65.8 105.97 101 71.6 169.7 94.9 254.8 160 296.05c11.03 7 24.43 13.2 37 16.8 10.76 3.08 24.83 6 36 6.14 31.64.37 56.22-4.26 84-20.28 13.98-8.07 26.62-18.5 37.13-30.72C412.2 200.54 401.08 96.17 327 45.02c-13.7-9.45-29.86-17.24-46-21.4-13.54-3.5-33.13-6.64-47-5.35zM1520 254V74c0-2.15.26-5.56-1-7.37-1.32-1.9-7.74-5.2-10-6.37l-27-12.06c-21.16-8.3-42.14-13.46-65-13.2-20.3.24-49.65 6.9-69 13.35l-31 12.35c-2.88 1.3-9.47 3.75-11.4 5.93-1.95 2.2-1.6 5.6-1.6 8.37v200l48-5.85 139-18.43 18-1.74 11 5.02zM267 74.76c7.4-.2 11.2 7 13.25 13.24 4.38 13.28 4.7 30.6.7 44-1.77 5.98-5.78 17.26-13.96 15.53-6.85-1.46-10.35-11.5-11.76-17.53-3.1-13.14-3.06-27 .67-40 1.93-6.76 4.14-12.57 11.1-15.24zm75 14c9.2-1.73 12.73 7.96 14.9 15.25 4 12.94 3.6 29.04 0 42-1.5 5.16-4.6 12.88-9.94 14.98-9.3 3.65-13.96-10.43-15.53-16.98-3.23-12.76-3.23-26.25 0-39 1.75-6.6 4.34-12.88 10.58-16.25zm1063 12.32c7.55-1.75 10.18 5.9 11.68 11.93 3 10.5 2.97 21.57 0 32-1.2 3.57-3.3 9.03-6.8 10.8-7.3 3.7-11.4-7.72-12.74-12.8-3.06-11.63-3.04-34.48 7.86-41.93zm-58.93 10.7c7.7-1.32 10.48 5.98 11.92 12.24 2.78 9.48 2.73 22.63 0 32-1.34 3.53-3.62 8.8-7.1 10.5-7.36 3.58-11.1-7.3-12.42-12.5-2.8-10.85-3.26-35.85 7.6-42.24zM240 178l16-7c7.48 15.32 23.16 33.66 38 42.13 6.53 3.73 15.4 7.43 23 5.23 6.45-1.86 13.18-9 16.96-14.36 1.7-2.4 4.57-8.45 7.25-9.22 2.3-.66 12.34 3.43 15.8 4.22-8.4 19.47-22.7 38.52-46 38-22.6-.52-44.6-20.26-57.8-37-4.78-6.08-11.05-14.6-13.2-22zm1190 4l16 7c-15.17 34.02-61.43 72.95-99 47.64-6.27-4.22-10.72-8.7-15.34-14.64-5.2-6.7-10.88-16.46-11.66-25 3.4 0 15.06-.62 17.37 1 1.72 1.2 4.8 7.67 6.4 10 4.53 6.54 10 12.45 17.23 16 22.67 11.17 48.97-12.95 60.96-30l8.04-12zm-18 145.7c13.43.4 21.4 7.82 27.5 19.3 8.42 15.78 8.75 39.62 1.87 56-5.02 11.96-16.1 24.73-30.38 23.47-13.52-1.18-22.55-11.58-27.4-23.47-10.03-24.64-5.05-72.9 28.4-75.3zm-83 11.8c15.36-2.44 26.05 6.13 32.73 19.48 8.56 17.1 8.36 39.66.6 57-5 11.16-16 22.92-29.33 21.8-13.5-1.1-21.85-11.35-27.22-22.8-11.12-23.72-5.95-67.45 23.22-75.48zm83 6.03c-6.82 1.45-9.57 6.4-12.13 12.45-4.7 11.13-4.63 24.62-.83 36 1.98 5.94 7.35 15.86 14.96 14.34 5.87-1.18 9.55-8.25 11.54-13.34 4.2-10.7 4-27.54-.86-38-2.74-5.88-5.84-10.64-12.68-11.45zm-156 2.92c15.3-2.1 26.82 9.32 32.38 22.53 7.5 17.8 7.48 39.8-1.7 57-4.8 8.97-12.2 16.92-22.68 18.68-16.6 2.78-28.24-10.55-33.58-24.68-9.25-24.52-4.56-66.37 25.58-73.53zm76 8.96c-15.32 6.06-15.53 33.3-11.56 46.57 1.86 6.23 7.5 17.24 15.56 15.53 4.9-1.05 8.2-6.34 10.2-10.53 5.07-10.53 5.15-28.13 1.08-39-2.68-7.16-6.9-13.58-15.3-12.57zm-531 4.85l-16 2.87c-40.53 10.8-72.14 41.35-83.57 81.85-1.6 5.7-4.5 21.43-4.22 27l1.63 14c.86 8.1 1.75 21.73 4.24 29 13.62 39.78 46.64 69.3 87.92 77.6 5.3 1.07 13.66 2.33 19 2.4 20.46.24 35.1-2.34 54-10.43 12.23-5.23 24.62-14.22 34-23.57 41.4-41.26 46.6-108.24 11.1-155-26.04-34.32-65.78-49.65-108.1-45.72zm457 4.17c-15.44 6-16.1 34.18-11.78 47.55 2.08 6.46 7.5 16.68 15.78 14.57 5.34-1.37 9.13-7.72 10.8-12.57 4.13-10.93 4.5-26.22 0-37-3-6.7-6.58-13.25-14.8-12.55zM1157 388l-13 14-5 7 4.26 11 14.75 28v-14l-1-16v-30zm484 8l-31-6c-6.33-.87-10.15-2.2-16 1.4-30.46 18.7-35.85 51.54-26.85 83.6 2.24 7.95 10.77 26.12 17.94 29.98 2.27 1.22 5.38 1 7.9 1.02h13l-2-14v-8l-.82-6 .73-7c1.2-16.54 5-29.64 13.54-44 4.2-7.03 9.06-13.73 14.3-20l9.25-11zm71 32c-13.27-9.4-22.04-14.44-37-20.85-3.57-1.53-11.27-5.17-15-4.1-3.34.94-6.22 4.45-8.42 6.96-5.2 5.93-8.62 9.3-13.23 16-14.17 20.6-19 37.1-16.52 62 .47 4.7 1.38 18.1 4.1 21.5 1.36 1.7 16.3 7.72 19.07 8.5 3.14-23.25 13.14-49.86 31-65.7 6.84-6.07 14.18-11.36 22-16.1l14-8.2zM815 562l-17-16c-15.1-14.74-29.6-29.75-43.08-46-6.8-8.2-19.07-24.7-21.4-35-.7-3.02-.56-7.8-.53-11 .3-25.8 17.54-47.67 44-49.68 5.1-.38 10.63 1.5 15 4.03 7.3 4.24 12.9 11.24 16.74 18.65 2.44 4.7 4.72 11.3 8.26 15 .98-5.4 2.78-9.32 5.62-14 3.52-5.82 7.45-10.84 13.38-14.4 7.23-4.33 14.07-4.1 22-2.4 20.67 4.46 35.75 22.55 36 43.8.16 14.28-4.7 22.3-12.34 34-10.6 16.2-23.6 29.75-36.5 44-9 9.93-19.16 21.36-30.17 29zm308-144l-16 7.4-6.4 4 .76 7.6 3.98 16 7.77 32 7.88 32c7.55-1.17 19.74-6 27-9 2.42-1 8.58-3.44 9.98-5.48 1.22-1.8 1.06-5.38 1-7.5-.2-8.7-6.8-19.13-10.74-27L1123 418zm-40 16l-25 4 3.28 24 8.72 66c6.67-.15 30.5-4.2 36-7-5.14-5.05-6.4-17.86-8.13-25L1083 434zm-87 9l-31-1.1-10.96-.9v12l.96 12v30l.96 12v14l1.64 7.98 12.4 2 11 1h17L997 481l-1-13v-25zm45-2l-19 1-7 1.74-1 7.26v26l1 17v38h18l19-1-2.85-26-8.15-64zm709 42c-2.25-8.33-9.8-22.75-14.67-30-1.78-2.66-5.53-8.62-8.42-9.8-2.83-1.15-6.35.86-8.9 2.02-6.74 3.07-11.78 5.65-18 9.77-21.47 14.23-30.86 31.22-36 56-.85 4.1-3.58 16.48-2.4 20 1.12 3.3 4.8 6.74 7.4 9 15.1-25.04 32.9-42.9 61-52.33 6.75-2.27 12.85-4.1 20-4.67zM677 452c-4.77.9-14.8 5.23-20 7.2l-30 10.1c-30.87 9.2-62.8 14.1-95 13.72l-10-.9c-28.12-1.93-55.75-6.87-83-14.24L402 457l7.14 27 14.57 52 9.3 34 18 3.2 24 3.64 34 2.32h27c38.65-.22 84.2-17.5 119-33.47l31-15.7-2.08-15c-2.18-12.95-4.9-25.8-4.92-39l-2-24zm543 152v-66l1-15v-24l1.57-7.83L1239 489l35-3.1 39-3.74 62-5.34 73-6.83v70l-1 15v45h-29l-17 1-87 1-17 1h-35l-17 1h-25zm210-114l-79 6.83-78 7-34 3.17-1 14v65h17l16-1h36l17-1h35l17-1h37l16-1 1-23v-69zm337 68c-.03-10.92-4.27-31.96-6.88-43-.72-3.04-2.52-12.3-4.82-14-2.04-1.5-6-.46-8.3 0-8.34 1.7-12.18 2.98-20 6.2-17.2 7.08-28.12 18.64-38.33 33.8-2.45 3.64-8.2 11.9-8.85 16-.54 3.4 4.14 13.9 5.18 19 8.05-2.54 16.62-10.4 35-15.57 11.5-3.25 20.25-3.48 32-3.43l15 1zm-654-39h-1l1 1v-1zm658 98v-17l-.96-11c-.14-3.1.6-9.13-1.64-11.4-1.5-1.5-4.38-1.72-6.4-2.02-6.12-.92-13.7-.6-20-.58-14.88.02-25 4.14-38 10.76-3.13 1.6-11.26 5.98-13 8.76-1.25 1.97 0 16.82 0 20.48l17 1 63 1z"/></svg>