<svg xmlns="http://www.w3.org/2000/svg" viewBox="0 0 1790 624"><path fill="#fff" stroke="#fff" stroke-opacity=".4" d="M191 330l-29-12a169 169 0 01-14-290c25-16 55-27 85-27h20a169 169 0 0149 325c-20 7-34 8-43 11a183 183 0 01114 80c3 4 7 11 10 13 3 3 8 4 12 5l30 10c29 10 62 17 93 19l12 1h21l10-1a338 338 0 00127-38c4-3 8-12 11-17l18-24c22-23 60-41 92-41h14a138 138 0 01107 64c3 4 5 11 9 13l19 2c18 3 37 2 55 2l24-2c30-2 71-11 94-32l13-17c6-9 12-19 12-30v-26l-1-23 38-5 57-7 36-5V64c0-9 0-8 14-15a309 309 0 01103-31h8l11-1 9 1c22 2 43 8 64 16l30 15c3 2 10 5 11 7 2 3 2 6 2 9v190l1 8 10 7 24 13 75 41 39 21c-2 7-1 28-1 37l1 10c1 2 5 4 8 5l17 10c18 11 32 25 42 43 28 49 35 118 35 174h-127c2-8 1-29 1-38l1-12c0-8-5-18-10-24-17-21-38-26-63-26h-9c-3 0-6-3-8-5-6-6-10-10-14-17-13-21-18-53-12-77 5-19 16-33 31-44 7-6 13-10 22-10 15 1 53 9 67 15v-22l-1-8-11-7-25-14-121-66v122l-1 15v193l-1 15v10h-17V441l1-15V268l-37 5-282 38 1 17v42l1 17v42l1 17v45l1 15v42l1 17v42l1 17h-18v-15l-1-12v-42l-1-15v-18a410 410 0 01-117 27l-12 1h-42l-37-3-12-2-2-8a135 135 0 01-241 7c-43 25-100 48-150 52l-12 1-49-1-60-10 2 38h-18c0-68-15-151-57-206-15-20-34-37-56-49-38-20-94-27-136-16-20 5-39 15-55 28-52 44-73 119-81 184l-4 34v9l-1 16H1l1-21 5-46c10-73 36-157 100-200 16-11 36-18 55-23l19-3 10-1zm43-312l-12 1a151 151 0 1012-1zm1286 236V74l-1-7c-1-2-8-6-10-7l-27-12c-21-8-42-13-65-13-20 0-50 7-69 13l-31 13c-3 1-9 3-11 6-2 2-2 5-2 8v200l48-6 139-18 18-2 11 5zM267 75c7 0 11 7 13 13 5 13 5 31 1 44-2 6-6 17-14 16-7-2-10-12-12-18-3-13-3-27 1-40 2-7 4-13 11-15zm75 14c9-2 13 8 15 15 4 13 3 29 0 42-2 5-5 13-10 15-9 4-14-10-16-17-3-13-3-26 0-39 2-7 5-13 11-16zm1063 12c8-2 10 6 12 12 3 11 3 22 0 32-2 4-4 9-7 11-7 4-12-8-13-13-3-12-3-34 8-42zm-59 11c8-2 11 6 12 12 3 9 3 23 0 32-1 4-4 9-7 11-7 3-11-8-13-13-2-11-3-36 8-42zM240 178l16-7c7 15 23 34 38 42 7 4 15 8 23 5 6-2 13-9 17-14l7-9c3-1 13 3 16 4-8 19-23 39-46 38s-45-20-58-37c-5-6-11-15-13-22zm1190 4l16 7c-15 34-61 73-99 48-6-5-11-9-15-15-6-7-11-16-12-25 3 0 15-1 17 1 2 1 5 8 7 10 4 7 10 12 17 16 23 11 49-13 61-30l8-12zm-18 146c13 0 21 8 28 19 8 16 8 40 1 56-5 12-16 25-30 23-14-1-23-11-27-23-10-25-5-73 28-75zm-83 11c15-2 26 7 33 20 8 17 8 40 0 57-5 11-16 23-29 22s-22-12-27-23c-11-24-6-67 23-75zm83 7c-7 1-10 6-12 12-5 11-5 25-1 36 2 6 7 16 15 14 6-1 10-8 12-13 4-11 4-28-1-38-3-6-6-11-13-11zm-156 2c15-2 27 10 32 23 8 18 8 40-1 57-5 9-13 17-23 19-17 2-28-11-34-25-9-25-4-66 26-74zm76 9c-15 6-16 34-12 47 2 6 8 17 16 16 5-2 8-7 10-11 5-11 5-28 1-39-2-7-7-14-15-13zm-531 5l-16 3a117 117 0 00-88 109l2 14c1 8 2 22 4 29a117 117 0 00107 80 121 121 0 0088-34c41-41 47-108 11-155-26-34-66-50-108-46zm457 4c-15 6-16 35-12 48 2 6 8 17 16 15 5-2 9-8 11-13 4-11 4-26 0-37-3-7-7-13-15-13zm-101 22l-13 14-5 7 4 11 15 28v-14l-1-16v-30zm484 8l-31-6c-6-1-10-2-16 1-30 19-36 52-27 84 2 8 11 26 18 30l8 1h13l-2-14v-8l-1-6 1-7c1-17 5-30 13-44l15-20 9-11zm71 32c-13-9-22-14-37-21-4-1-11-5-15-4-3 1-6 4-8 7l-14 16a83 83 0 00-16 62c0 5 1 18 4 22l19 8c3-23 13-50 31-66l22-16 14-8zM815 562l-17-16c-15-15-30-30-43-46-7-8-19-25-21-35l-1-11c0-26 18-48 44-50 5 0 11 2 15 4 7 5 13 12 17 19 2 5 4 11 8 15 1-5 3-9 6-14 3-6 7-11 13-14 7-5 14-5 22-3 21 5 36 23 36 44 0 14-5 22-12 34-11 16-24 30-37 44-9 10-19 21-30 29zm308-144l-16 7-6 4v8l4 16 8 32 8 32c8-1 20-6 27-9 2-1 9-3 10-5l1-8c0-9-7-19-11-27l-25-50zm-40 16l-25 4 3 24 9 66c7 0 31-4 36-7-5-5-6-18-8-25l-15-62zm-87 9l-31-1-11-1v12l1 12v30l1 12v14l2 8 12 2 11 1h17l-1-51-1-13v-25zm45-2l-19 1-7 2-1 7v26l1 17v38h18l19-1-3-26-8-64zm709 42c-2-8-10-23-15-30-1-3-5-9-8-10s-6 1-9 2l-18 10a80 80 0 00-36 56c-1 4-4 16-2 20 1 3 4 7 7 9a110 110 0 0181-57zM677 452l-20 7-30 10c-31 10-63 14-95 14l-10-1c-28-2-56-7-83-14l-37-11 7 27 15 52 9 34 18 3 24 4 34 2h27c39 0 84-17 119-33l31-16-2-15c-2-13-5-26-5-39l-2-24zm543 152v-66l1-15v-24l2-8 16-2 35-3 39-4 62-5 73-7v70l-1 15v45h-29l-17 1-87 1-17 1h-35l-17 1h-25zm210-114l-79 7-78 7-34 3-1 14v65h17l16-1h36l17-1h35l17-1h37l16-1 1-23v-69zm337 68c0-11-4-32-7-43-1-3-2-12-5-14h-8l-20 6c-17 7-28 19-38 34-3 4-9 12-9 16-1 3 4 14 5 19 8-3 17-10 35-16 12-3 20-3 32-3l15 1zm-654-39h-1l1 1v-1zm658 98v-17l-1-11c0-3 1-9-2-11-1-2-4-2-6-2l-20-1c-15 0-25 4-38 11-3 1-11 6-13 9v20l17 1 63 1z"/></svg>