<svg width="512" height="512" xmlns="http://www.w3.org/2000/svg" fill="#3b8bea"><path stroke="#000" opacity=".8" d="m342 36 91 92-91-92ZM342 120l1 3-2-1 1-2ZM344 124l1 2-1-2ZM347 126l2 2h-1l-1-2ZM469 135v3h-1l1-3ZM69 238l2 1h-2v-1ZM125 239l2 1h-2v-1ZM175 239l58 1h-58v-1ZM77 240l3 3-2-2-1-1ZM116 240l-1 2 1-2ZM129 240l2 2-1-1-1-1ZM388 240l2 1h-2v-1ZM393 240l2 1h-2v-1ZM61 241l-4 5 4-5ZM169 241l-1 2 1-2ZM397 241l2 2-1-1-1-1ZM113 242l-2 3 2-3ZM133 242l3 4-3-4ZM240 242l4 5-4-5ZM401 243l3 4-3-4ZM82 244l3 6h-1l-2-6ZM380 244l-1 2 1-2ZM110 246l-1 2v1l-1-1 2-2ZM164 246l-1 2 1-2ZM137 247l1 3h-1v-3ZM405 248l1 3h-1v-3ZM108 250v3h-1l1-3ZM86 251v42h-1l1-42ZM139 251v3h-1l1-3ZM407 252v3h-1l1-3ZM54 253v41h-1l1-41ZM161 253v5h-1l1-5ZM375 254v101h-1l1-101ZM244 264l-1 2 1-2ZM165 266l1 2-1-2ZM240 268l-1 2 1-2ZM174 271l2 1h-2v-1ZM232 271l2 1h-2v-1ZM220 272v82h-1l1-82ZM91 297l16 1H91v-1ZM87 329l20 1H87v-1ZM446 336l2 1h-2v-1ZM453 338l1 2-1-2ZM457 342l1 2-1-2ZM87 347v7h-1l1-7ZM107 347v7h-1l1-7ZM55 353v3h-1l1-3ZM139 353v3h-1l1-3ZM188 353v3h-1l1-3ZM56 357l1 3-2-1 1-2ZM138 357v2l-2 1 2-3ZM189 357l1 3-2-1 1-2ZM377 360l2 3-2-3ZM58 361l3 4-3-4ZM136 361l-3 4 3-4ZM191 361l3 4-3-4ZM458 361l-4 5 4-5ZM83 362l-1 2 1-2ZM111 362l1 2-1-2ZM216 362l-1 2 1-2ZM381 364l1 2-1-2ZM63 365l2 2h-1l-1-2ZM131 365l-1 2h-2l3-2ZM196 365l2 2h-1l-1-2ZM67 367l2 1h-2v-1ZM72 367l2 1h-2v-1ZM120 367l2 1h-2v-1ZM125 367l2 1h-2v-1ZM200 367l2 1h-2v-1ZM205 367l2 1h-2v-1ZM389 368l58 1h-58v-1Z"/><path stroke="#000" d="M95 0h237l3 1 132 132 2 6v324q-5 25-22 37l-16 9-13 3H95q-28-5-41-23-8-11-11-26V50q5-26 23-38Q77 3 95 0Zm247 36-1 86 2 3 5 3h85l-91-92ZM69 238l-8 3q-7 4-8 13l1 102 3 6 10 6q10 1 15-4 4-4 5-10 2-6-1-7v-17h21v17l-1 1q-1 10 4 15l10 5q9 1 13-3l6-9V252l-3-6-6-6-8-2-9 4-6 9v46H90l-3-1-1-2v-42l-2-5q-4-9-15-9Zm106 1-6 2q-7 4-9 13 0 8 4 13l10 5h13v84l3 6 10 6q10 1 15-4 4-4 5-10v-82h14l5-2 7-9q2-10-2-14-4-6-11-8h-58Zm105 1-4 2q-7 4-8 13v99l2 6q4 6 13 8 6 0 11-3l6-8 1-36 8 4h5l8-4v36l2 4q4 6 13 7l9-2q6-4 8-12v-99l-3-8-8-7q-11-1-15 3l-5 6-11 22q1 2-2 1l-13-26q-4-8-17-6Zm108 0-8 4q-5 4-6 11v100l2 6q4 6 13 8h58l7-3 6-8q2-10-2-14-3-6-10-8h-41v-83l-3-6q-4-8-16-7Z"/></svg>