<svg xmlns="http://www.w3.org/2000/svg" viewBox="0 0 255 225" fill="#3b8bea"><path d="M40 101l2-3 1-1h36v1l-2 3H40zm-15 9l2-3h47l-1 3H25zm24 9c0 1 0 0 0 0l1-3h21l1 1v2l-1 1H49zm104-20l-17 5-3-1-4-4c-7-3-13-2-18 1-7 5-11 11-11 19s6 15 14 16c7 1 12-1 17-7l3-3h-20c-2 0-2-2-2-3l5-11c1-1 1-2 3-2h36v8c-1 8-4 14-8 20-8 10-17 15-29 17-10 1-19-1-27-7-7-5-11-13-13-22-1-11 2-20 9-29s16-15 28-17c9-2 18-1 26 5 6 3 10 8 12 14 1 1 0 1-1 1z"/><path d="M186 155c-9-1-17-3-24-9-6-5-10-12-11-20-2-11 1-21 8-30s16-14 28-16c10-2 20-1 29 5 7 5 12 12 14 22 1 13-3 24-12 34-6 7-15 11-24 13l-8 1zm24-41v-3c-2-10-11-16-21-13-9 2-15 8-17 17-2 8 2 16 9 19 5 2 11 2 16-1 8-4 12-10 13-19z"/></svg>