<svg xmlns="http://www.w3.org/2000/svg" viewBox="0 0 512 512" fill="#3b8bea"><path d="M405.33 236.63v-87.3C405.33 67 338.35 0 256 0S106.67 66.99 106.67 149.33v87.3a31.94 31.94 0 00-21.34 30.04v192A53.4 53.4 0 00138.67 512h234.66a53.4 53.4 0 0053.34-53.33v-192a31.94 31.94 0 00-21.34-30.04zm-107.22 176c1.09 3.24.54 6.83-1.45 9.62-2 2.77-5.23 4.42-8.66 4.42h-64a10.65 10.65 0 01-10.11-14.06l13.31-39.94a42.01 42.01 0 01-13.87-31.34c0-23.53 19.14-42.66 42.67-42.66s42.67 19.13 42.67 42.66a42.1 42.1 0 01-13.87 31.36l13.31 39.94zm43.22-177.96H170.67v-85.34C170.67 102.27 208.94 64 256 64s85.33 38.27 85.33 85.33v85.34z"/></svg>