<svg xmlns="http://www.w3.org/2000/svg" height="682.667" viewBox="0 -43 512.011 512" width="682.667" fill="#209cee"><path d="M309.168.676c-11.414-2.94-23.02 4.074-25.855 15.53l-96 384c-2.88 11.414 4.074 22.996 15.53 25.855a21.72 21.72 0 0 0 5.184.641c9.56 0 18.238-6.465 20.672-16.172l96-384c2.86-11.4-4.098-22.996-15.53-25.855zM164.422 70.3c-8.344-8.344-21.824-8.344-30.164 0l-128 128c-8.344 8.34-8.344 21.824 0 30.164l128 128c4.156 4.16 9.62 6.25 15.082 6.25s10.922-2.1 15.082-6.25c8.34-8.34 8.34-21.824 0-30.164L51.504 213.37l112.918-112.918c8.34-8.34 8.34-21.824 0-30.164zm341.332 128l-128-128c-8.34-8.344-21.824-8.344-30.164 0a21.31 21.31 0 0 0 0 30.164L460.508 213.37 347.6 326.3c-8.344 8.34-8.344 21.824 0 30.164a21.27 21.27 0 0 0 15.082 6.25c5.462 0 10.922-2.1 15.082-6.25l128-128c8.344-8.34 8.344-21.824 0-30.164zm0 0"/></svg>