<svg width="512" height="512" xmlns="http://www.w3.org/2000/svg" fill="#3b8bea"><path stroke="#000" opacity=".9" d="m332 0 2 1h-2V0ZM336 1l1 2-1-2ZM342 36l91 92-91-92ZM343 123l3 4-3-4ZM467 132l1 2-1-2ZM469 135v3h-1l1-3Z"/><path stroke="#000" d="M95 0h236l4 1 131 131 3 7v324q-5 25-22 37l-16 9-13 3H95q-28-5-41-23-8-11-11-26V50q5-26 23-38Q77 3 95 0Zm247 36-1 86 1 2 6 4h85l-91-92ZM171 240l-4 2q-7 4-8 13v99l2 6q4 6 13 8 6 0 11-3l6-8 1-36 8 4h5l8-4v36l2 4q4 6 13 7l9-2q6-4 8-12v-99l-3-8-8-7q-11-1-15 3l-5 6-11 22q1 2-2 1l-13-26q-4-8-17-6Zm108 0-6 3-6 9v105l2 4q4 6 13 7h36l12-3 7-4q12-8 15-25v-64q-2-11-8-18-8-11-22-14h-43Z"/><path stroke="#000" d="M299 272h18l2 1 1 3v57l-4 3h-17v-64Z"/></svg>