<svg xmlns="http://www.w3.org/2000/svg" viewBox="0 0 24 24" fill="#3b8bea"><path d="M18 0l6 2.5L18 5l-6-2.5zm-1 6.208l-5-2.083V9.5a.5.5 0 0 0 .329.47L17 11.668zm2 0v5.46l4.67-1.698A.5.5 0 0 0 24 9.5V4.125zm-.83 7.762a.5.5 0 0 1-.3.013l-7.5-2A.5.5 0 0 1 10 11.5V.5a.5.5 0 0 1 .097-.293C6.046 1.083 3 4.7 3 9.003a3.28 3.28 0 0 1-.507 1.752l-2.337 3.7A1 1 0 0 0 0 15a.99.99 0 0 0 1 1h2v3c0 1.103.897 2 2 2 .22 0 .423-.033.585-.1L8 20.175V23.5a.5.5 0 0 0 .5.5h9a.5.5 0 0 0 .5-.5v-5.026a7.45 7.45 0 0 1 1.364-4.304c.182-.26.328-.535.48-.8z"/></svg>