<svg id="bold" enable-background="new 0 0 24 24" height="512" viewBox="0 0 24 24" width="512" xmlns="http://www.w3.org/2000/svg"><path d="m18 0 6 2.5-6 2.5-6-2.5z"/><path d="m17 6.208-5-2.083v5.375c0 .21.131.398.329.47l4.671 1.698z"/><path d="m19 6.208v5.46l4.671-1.698c.198-.072.329-.26.329-.47v-5.375z"/><path d="m18.171 13.97c-.1.036-.206.039-.3.013l-7.5-2c-.219-.058-.371-.256-.371-.483v-11c0-.109.037-.21.097-.293-4.051.876-7.097 4.484-7.097 8.796 0 .619-.175 1.225-.507 1.752l-2.337 3.71c-.104.167-.156.347-.156.535 0 .561.439 1 1 1h2v3c0 1.103.897 2 2 2 .219 0 .423-.033.585-.091l2.415-.734v3.325c0 .276.224.5.5.5h9c.276 0 .5-.224.5-.5v-5.026c0-1.546.472-3.034 1.364-4.304.182-.259.328-.535.481-.809z"/></svg>