<svg xmlns="http://www.w3.org/2000/svg" version="1.0" viewBox="0 0 512 512" fill="#3b8bea"><path d="M242.5 139.6a65.6 65.6 0 00-49.1 47.4 80.4 80.4 0 001.8 37.2 66.1 66.1 0 0040.8 39.9c5.5 2 8.5 2.3 20 2.3s14.5-.3 20-2.3a66 66 0 0040.8-39.9c3.3-9 4.2-27.5 1.8-37.2a65.5 65.5 0 00-33.6-41.8 64.4 64.4 0 00-42.5-5.6zM73.9 171.8a43.2 43.2 0 00-7.4 80.3c6.8 3.3 7.3 3.4 19 3.4 11.2 0 12.4-.2 18-2.9a48.8 48.8 0 0020.6-20.4c3.3-6.5 3.4-7.1 3.4-18.7 0-11.7-.1-12.2-3.4-19-5.9-12-17-20.6-29.9-23.4a40.2 40.2 0 00-20.3.7zM416.5 171.4a43.2 43.2 0 00-28.6 23.1c-3.3 6.8-3.4 7.3-3.4 19 0 11.6.1 12.2 3.4 18.7a48.8 48.8 0 0020.6 20.4c5.6 2.7 6.8 2.9 18 2.9 11.7 0 12.2-.1 19-3.4a43.1 43.1 0 00-29-80.7zM43.3 279a58 58 0 00-37.6 30.6c-4.3 8.5-5.7 16-5.7 30 0 14.6.9 16.9 7.7 21.1l3.8 2.3h95.2l.6-9.8a90.3 90.3 0 0131.1-63.2c2.5-1.9 4.5-3.8 4.6-4.1 0-1.1-13.4-6.7-18.8-7.8-3.3-.7-18.5-1.1-39.5-1-30.1 0-35.1.2-41.4 1.9zM386.1 278.5a58.4 58.4 0 00-17.1 7.4 97.4 97.4 0 0126.5 32.6 90.3 90.3 0 019.2 34.7l.6 9.8h95.2l3.8-2.3c6.8-4.2 7.7-6.5 7.7-21.1 0-14.3-1.4-21.5-6-30.6a62.2 62.2 0 00-33.8-29.2c-6.4-2.1-8.3-2.3-43.7-2.5-28.1-.1-38.3.1-42.4 1.2zM185 299.6a58.6 58.6 0 00-40 30.7c-5.8 11.9-7 18.6-7 42.3 0 19.1.1 20.3 2.3 24.4 1.6 3 3.7 5.1 6.7 6.7l4.3 2.3h209.4l4.3-2.3c3-1.6 5.1-3.7 6.7-6.7 2.2-4.1 2.3-5.3 2.3-24.4 0-23.7-1.2-30.4-7-42.3a58.7 58.7 0 00-40.5-30.8c-10-2.1-131.7-2-141.5.1z"/></svg>