<svg width="512" height="512" xmlns="http://www.w3.org/2000/svg" fill="#3b8bea"><path stroke="#000" opacity=".8" d="m95 0 3 1h-3V0ZM70 9l-1 2 1-2ZM66 12l-1 2 1-2ZM56 22l-1 2 1-2ZM342 36l91 92-91-92ZM44 49v3h-1l1-3ZM344 124l1 2-1-2ZM121 165l33 1h-33v-1ZM228 165l37 1h-37v-1ZM354 165l38 1h-38v-1ZM115 167l-1 2 1-2ZM398 167l1 2-1-2ZM219 169l-1 2 1-2ZM110 172l-1 2 1-2ZM336 172l-1 2 1-2ZM175 173l1 2-1-2ZM285 173l1 2-1-2ZM290 178l2 3-2-3ZM107 179v101h-1l1-101ZM406 179v5h-1l1-5ZM328 180l-1 2 1-2ZM183 181l1 2-1-2ZM402 192l-1 2 1-2ZM246 198v63l16 1h-15l-2-1 1-63ZM267 202v55h-1l1-55ZM399 221l4 5-4-5ZM186 231l-1 2 1-2ZM406 232v5h-1l1-5ZM183 235l-6 7 6-7ZM174 243l-1 2 1-2ZM403 244l-4 5 4-5ZM266 259l-1 2 1-2ZM293 277l-1 2 1-2ZM284 286l-1 2 1-2ZM136 287l-3 4 3-4ZM217 287l3 4-3-4ZM111 288l1 2-1-2ZM327 290l1 2-1-2ZM346 290l-1 2 1-2ZM266 293l2 1h-2v-1ZM280 335l2 1h-2v-1ZM196 336l2 1h-2v-1ZM206 336l2 1h-2v-1ZM289 337l1 2-1-2ZM272 338l-4 5 4-5ZM324 339l-2 3 2-3ZM344 339l3 4-3-4ZM294 342l1 2-1-2ZM226 343l1 2-1-2ZM321 343l-1 2v1l-1-1 2-2ZM175 345l-7 8 7-8ZM231 347l3 4-3-4ZM297 348v42h-1l1-42ZM265 350v41h-1l1-41ZM236 353l1 2-1-2ZM165 357l-1 2 1-2ZM201 368l2 1h-2v-1ZM208 370l2 3-2-3ZM244 370v3h-1l1-3ZM159 375v76h-1l1-76ZM192 389l20 1h-20v-1ZM302 394l16 1h-16v-1ZM266 395v3h-1l1-3ZM272 410l1 2-1-2ZM280 418l1 2-1-2ZM294 425l2 1h-2v-1ZM301 426l17 1h-17v-1ZM318 444v7h-1l1-7ZM161 456l1 2-1-2ZM215 457l4 5-4-5ZM242 457l-4 5 4-5ZM347 458l-3 4 3-4ZM187 459l-1 2 1-2ZM322 459l1 2-1-2ZM44 460v3h-1l1-3ZM469 460v3h-1l1-3ZM173 464l4 1h-4v-1ZM226 464l5 1h-5v-1ZM55 488l1 2-1-2ZM65 498l1 2-1-2ZM448 498l-1 2 1-2ZM444 501l-1 2 1-2ZM95 511l3 1h-3v-1ZM415 511l3 1h-3v-1Z"/><path stroke="#000" d="M99 0h233l3 1 132 132 2 6v321l-2 10-5 12q-5 9-13 16l-12 8-11 4-11 1-1 1H99l-1-1-11-1-13-5-18-14-9-15-4-16V53l2-10 5-12q5-10 14-17l12-8 11-4 11-1 1-1Zm243 36-1 86 2 3 5 3h85l-91-92ZM121 165l-6 2q-7 4-9 13v100l4 9 10 5q9 1 13-3l6-9v-31h19q11-2 19-9 11-9 15-25v-16q-2-11-8-18-8-11-21-16l-9-2h-33Zm107 0-9 4-6 10v103l3 6 10 6h42l15-6q13-8 16-26v-64q-2-11-7-17-8-11-21-15-5 1-6-1h-37Zm126 0-11 3-7 4q-12 8-16 24v87l2 4q3 5 11 7 8 1 12-2l7-9v-32h43l4-2q6-4 7-12v-4l-3-7-8-7h-43v-16l1-2 3-3h37l8-4q4-4 5-10v-4l-3-7q-3-7-11-8h-38Zm-74 170-8 3q-7 4-8 13v40q3 1 1 7l4 10 6 8 9 6 10 4 24 1v17l-1 1q-1 10 4 15l10 5q9 1 13-3l6-9V349l-3-6-6-6-8-2-9 4-6 9v46h-17l-3-1-1-2v-42l-2-5q-4-9-15-9Zm-84 1q-13 2-21 9l-12 14-3 7-2 10v75l2 6q4 6 13 8 8 0 13-4l5-9v-30h21v32l2 4q4 5 12 7h5l7-3 6-8v-83q-3-13-10-20-7-9-18-13l-8-2h-12Z"/><path stroke="#000" d="M139 198h13l6 5 2 6-2 6-2 2q-7 3-17 2v-21ZM246 198h17l3 3v58l-2 2h-18v-63ZM198 369q11-2 13 6l1 14h-21v-12l4-6 3-2Z"/><path stroke="#000" opacity=".3" d="m92 0 2 1h-2V0ZM338 2l129 130L338 2ZM68 10l-1 2 1-2ZM64 13l-7 8 7-8ZM51 29l-1 2 1-2ZM43 54v404h-1l1-404ZM470 139v319h-1l1-319ZM156 166l2 1h-2v-1ZM350 166l2 1h-2v-1ZM113 169l-2 3 2-3ZM400 169l2 3-2-3ZM334 174l-5 6 5-6ZM177 175l5 6-5-6ZM287 175l2 3-2-3ZM214 179v101h-1l1-101ZM292 181l1 2-1-2ZM403 190l-1 2 1-2ZM400 193l-1 2 1-2ZM140 197l11 1h-12v21l-1-20 2-2ZM246 197l17 1h-17v-1ZM321 197v3h-1l1-3ZM357 197l35 1h-35v-1ZM265 198l1 2-1-2ZM156 199l3 4-3-4ZM299 199v61h-1l1-61ZM192 202v4h-1l1-4ZM192 211v4h-1l1-4ZM158 215l-1 2 1-2ZM153 250l3 1h-3v-1ZM139 251v29h-1l1-29ZM291 279l-6 7 6-7ZM110 286l1 2-1-2ZM324 287l2 3-2-3ZM349 287l-2 3 2-3ZM113 289l1 2-1-2ZM121 293l4 1h-4v-1ZM228 293l37 1h-37v-1ZM335 293l3 1h-3v-1ZM199 336l6 1h-6v-1ZM334 336l2 1h-2v-1ZM326 338l-1 2 1-2ZM291 339l2 3-2-3ZM177 344l-1 2 1-2ZM228 345l1 2-1-2ZM350 350v101h-1l1-101ZM234 351l1 2-1-2ZM168 353l-1 2 1-2ZM195 370l-1 2 1-2ZM244 373v3h-1l1-3ZM191 377v13h-1l1-13ZM298 392l1 2-1-2ZM274 412l5 6-5-6ZM192 421l20 1h-21v29l-1-28 2-2ZM188 457l-1 2 1-2ZM321 457l1 2-1-2ZM163 458l2 3-2-3ZM185 460l-1 2 1-2ZM324 460l1 2-1-2ZM332 464l4 1h-4v-1ZM50 481l1 2-1-2ZM459 487l-1 2 1-2ZM57 491l7 8-7-8ZM456 491l-7 8 7-8ZM67 500l1 2-1-2ZM446 500l-1 2 1-2ZM70 502l1 2-1-2ZM92 511l2 1h-2v-1ZM419 511l2 1h-2v-1Z"/></svg>