<svg width="512" height="512" xmlns="http://www.w3.org/2000/svg" fill="#3b8bea"><path stroke="#000" opacity=".8" d="m95 0 3 1h-3V0ZM70 9l-1 2 1-2ZM66 12l-1 2 1-2ZM56 22l-1 2 1-2ZM52 28l-1 2 1-2ZM342 36l91 92-91-92ZM344 124l1 2-1-2ZM121 165l33 1h-33v-1ZM228 165l37 1h-37v-1ZM354 165l38 1h-38v-1ZM115 167l-1 2 1-2ZM398 167l1 2-1-2ZM219 169l-1 2 1-2ZM110 172l-1 2 1-2ZM336 172l-1 2 1-2ZM175 173l1 2-1-2ZM285 173l1 2-1-2ZM290 178l2 3-2-3ZM107 179v101h-1l1-101ZM406 179v5h-1l1-5ZM328 180l-1 2 1-2ZM183 181l1 2-1-2ZM402 192l-1 2 1-2ZM246 198v63l16 1h-15l-2-1 1-63ZM267 202v55h-1l1-55ZM399 221l4 5-4-5ZM186 231l-1 2 1-2ZM406 233v4h-1l1-4ZM183 235l-6 7 6-7ZM174 243l-1 2 1-2ZM403 244l-4 5 4-5ZM266 259l-1 2 1-2ZM136 287l-3 4 3-4ZM217 287l3 4-3-4ZM111 288l1 2-1-2ZM327 290l1 2-1-2ZM346 290l-1 2 1-2ZM227 335l58 1h-58v-1ZM221 337l-1 2 1-2ZM292 338l4 5-4-5ZM328 338l-1 2 1-2ZM133 340l3 4-3-4ZM112 341l-1 2 1-2ZM216 342l-1 2 1-2ZM324 342l-1 2 1-2ZM392 344l2 3-2-3ZM396 348l2 3-2-3ZM213 349v5h-1l1-5ZM107 351v101h-1l1-101ZM217 362l1 2-1-2ZM292 364l-1 2 1-2ZM272 368v82h-1l1-82ZM353 368l16 1h-16v-1ZM406 370v18h-1l1-18ZM353 389l16 1h-16v-1ZM398 407l-6 7 6-7ZM389 420l1 2-1-2ZM392 424l1 2-1-2ZM395 428l1 2-1-2ZM398 432l1 2-1-2ZM185 435l1 2-1-2ZM401 436l1 2-1-2ZM362 438l1 2-1-2ZM406 446v5h-1l1-5ZM371 450l1 2-1-2ZM404 456l-1 2 1-2ZM109 457l1 2-1-2ZM243 457l3 4-3-4ZM190 458l-4 5 4-5ZM268 458l-1 2 1-2ZM324 458l3 4-3-4ZM349 458l-3 4 3-4ZM378 459l1 2-1-2ZM44 460v3h-1l1-3ZM469 460v3h-1l1-3ZM335 464l3 1h-3v-1ZM388 464l4 1h-4v-1ZM121 465l58 1h-58v-1ZM55 488l1 2-1-2ZM65 498l1 2-1-2ZM448 498l-1 2 1-2ZM444 501l-1 2 1-2ZM95 511l3 1h-3v-1ZM415 511l3 1h-3v-1Z"/><path stroke="#000" d="M99 0h233l3 1 132 132 2 6v321l-2 10-5 12q-5 9-13 16l-12 8-11 4-11 1-1 1H99l-1-1-11-1-13-5-18-14-9-15-4-16V52q5-25 21-38l14-9 13-4q6 2 8-1Zm243 36-1 86 2 3 5 3h85l-91-92ZM121 165l-6 2q-7 4-9 13v100l4 9 10 5q9 1 13-3l6-9v-31h19q11-2 19-9 11-9 15-25v-16q-2-11-8-18-8-11-21-16l-9-2h-33Zm107 0-9 4-6 10v103l3 6 10 6h41q10-2 17-7 12-8 15-25v-64q-2-11-7-17-8-11-21-15-5 1-6-1h-37Zm126 0-11 3-7 4q-12 8-16 24v87l2 4q3 5 11 7 8 1 12-2l7-9v-32h43l4-2q6-4 7-12 0-7-3-11l-8-7h-43v-16l1-2 3-3h37l8-4q4-4 5-10v-4l-3-7q-3-7-11-8h-38ZM227 335l-6 2q-7 4-9 13 0 8 4 13l10 5h13v84l3 6 10 6q10 1 15-4 4-4 5-10v-82h14l5-2 7-9q2-10-2-14-4-6-11-8h-58Zm106 1-5 2-8 10v106l3 5q4 5 12 6 6 0 11-3l6-9 1-27 24 34q4 4 11 5h4l7-3q6-3 7-11l-2-10-17-22v-3l5-2 10-12 4-14v-17q-2-2-1-6l-7-14q-7-10-19-14l-5-1h-41Zm-213 1-8 4q-5 4-6 11v100l2 6q4 6 13 8h58l7-3 6-8q2-10-2-14-3-6-10-8h-41v-83l-3-6q-4-8-16-7Z"/><path stroke="#000" d="M139 198h13l6 5 2 6-2 6-2 2q-7 3-17 2v-21ZM246 198h17l3 3v58l-2 2h-18v-63ZM352 369h19l1 2 1 2v13l-2 3h-19v-20Z"/><path stroke="#000" opacity=".3" d="m92 0 2 1h-2V0ZM338 2l129 130L338 2ZM68 10l-1 2 1-2ZM64 13l-7 8 7-8ZM43 54v404h-1l1-404ZM470 139v319h-1l1-319ZM156 166l2 1h-2v-1ZM350 166l2 1h-2v-1ZM113 169l-2 3 2-3ZM400 169l2 3-2-3ZM334 174l-5 6 5-6ZM177 175l5 6-5-6ZM287 175l2 3-2-3ZM214 179v101h-1l1-101ZM292 181l1 2-1-2ZM403 190l-1 2 1-2ZM400 193l-1 2 1-2ZM140 197l11 1h-12v21l-1-20 2-2ZM246 197l17 1h-17v-1ZM321 197v3h-1l1-3ZM357 197l35 1h-35v-1ZM265 198l1 2-1-2ZM156 199l3 4-3-4ZM299 199v61h-1l1-61ZM192 202v4h-1l1-4ZM192 211v4h-1l1-4ZM158 215l-1 2 1-2ZM153 250l3 1h-3v-1ZM139 251v29h-1l1-29ZM291 279l-6 7 6-7ZM110 286l1 2-1-2ZM324 287l2 3-2-3ZM349 287l-2 3 2-3ZM113 289l1 2-1-2ZM121 293l4 1h-4v-1ZM228 293l37 1h-37v-1ZM335 293l3 1h-3v-1ZM335 336l37 1h-37v-1ZM121 337l4 1h-4v-1ZM219 339l-2 3 2-3ZM326 340l-1 2 1-2ZM139 351v82l39 1h-38l-2-1 1-82ZM398 351l1 2-1-2ZM216 360l1 2-1-2ZM295 361l-2 3 2-3ZM219 363l1 2-1-2ZM227 367h12l1 2v81l-1-82h-12v-1ZM272 367l12 1h-12v-1ZM372 369l1 2-1-2ZM374 372v14h-1l1-14ZM373 387l-1 2 1-2ZM399 405l-1 2 1-2ZM391 413l-1 2 1-2ZM355 428l1 2-1-2ZM358 432l1 2-1-2ZM361 436l1 2-1-2ZM187 437l2 3-2-3ZM364 440l1 2-1-2ZM367 444l1 2-1-2ZM370 448l1 2-1-2ZM373 452l1 2-1-2ZM269 456l-1 2 1-2ZM376 456l1 2-1-2ZM402 458l-2 3 2-3ZM111 459l2 3-2-3ZM266 459l-1 2 1-2ZM254 463l4 1h-4v-1ZM50 481l1 2-1-2ZM459 487l-1 2 1-2ZM57 491l7 8-7-8ZM456 491l-7 8 7-8ZM67 500l1 2-1-2ZM446 500l-1 2 1-2ZM70 502l1 2-1-2ZM92 511l2 1h-2v-1ZM419 511l2 1h-2v-1Z"/></svg>