<svg xmlns="http://www.w3.org/2000/svg" viewBox="0 0 512.432 512.432" fill="#209cee"><path d="M424.1 324.128L188.293 89.42c-4.14-4.14-10.9-4.14-15.06.02l-42.1 42.1c-4.16 4.16-4.16 10.923 0 15.083l13.78 13.803-66.368 66.368c-42.9 42.9-45.035 110.763-7.467 156.8L3.12 451.552c-4.16 4.16-4.16 10.923 0 15.083l42.667 42.667c2.1 2.1 4.82 3.115 7.552 3.115a10.71 10.71 0 0 0 7.552-3.115l67.968-67.968c21.504 17.536 47.53 26.86 73.835 26.86 30.037 0 60.096-11.435 82.965-34.304l66.368-66.368 13.78 13.78c4.117 4.117 10.816 4.16 14.976.107l43.22-42.1a10.71 10.71 0 0 0 3.22-7.573c.02-2.837-1.13-5.612-3.135-7.617zm-51.7-312.192c-15.872-15.893-41.75-15.893-57.62 0l-86.83 86.827 57.877 57.62 86.677-86.7c7.7-7.7 11.947-17.92 11.947-28.82s-4.245-21.12-12.053-28.928zm127.977 128c-15.872-15.893-41.75-15.893-57.62 0l-86.528 86.528 57.9 57.62 86.38-86.38c7.7-7.7 11.947-17.92 11.947-28.82s-4.246-21.14-12.076-28.95z"/></svg>