<svg xmlns="http://www.w3.org/2000/svg" height="568" viewBox="0 -42 426.667 426" width="568" fill="#209cee"><path d="M373.332.332h-64C279.914.332 256 24.27 256 53.668v64C256 147.063 279.914 171 309.332 171h64A53.16 53.16 0 0 0 384 169.91v43.758c0 47.06-38.273 85.332-85.332 85.332h-21.336C265.535 299 256 308.56 256 320.332s9.535 21.336 21.332 21.336h21.336c70.6 0 128-57.4 128-128v-160c0-29.398-23.914-53.336-53.336-53.336zm-256 0h-64C23.914.332 0 24.27 0 53.668v64C0 147.063 23.914 171 53.332 171h64A53.16 53.16 0 0 0 128 169.91v43.758C128 260.727 89.727 299 42.668 299H21.332C9.535 299 0 308.56 0 320.332s9.535 21.336 21.332 21.336h21.336c70.6 0 128-57.4 128-128v-160c0-29.398-23.914-53.336-53.336-53.336zm0 0"/></svg>