<svg xmlns="http://www.w3.org/2000/svg" viewBox="0 0 24 24"><path d="M22.25 0H9.75C8.785 0 8 .785 8 1.75v2.5C8 5.215 8.785 6 9.75 6h12.5C23.215 6 24 5.215 24 4.25v-2.5C24 .785 23.215 0 22.25 0z"/><circle cx="3" cy="3" r="3"/><path d="m22.25 8h-20.5c-.96 0-1.75.79-1.75 1.75v12.5c0 .96.79 1.75 1.75 1.75h20.5c.96 0 1.75-.79 1.75-1.75v-12.5c0-.96-.79-1.75-1.75-1.75zm-2 8.5h-5.5c-.41 0-.75-.34-.75-.75s.34-.75.75-.75h5.5c.41 0 .75.34.75.75s-.34.75-.75.75zm.75 2.25c0 .41-.34.75-.75.75h-5.5c-.41 0-.75-.34-.75-.75s.34-.75.75-.75h5.5c.41 0 .75.34.75.75zm-.75-5.25h-5.5c-.41 0-.75-.34-.75-.75s.34-.75.75-.75h5.5c.41 0 .75.34.75.75s-.34.75-.75.75zm-8.25 2c0 2.48-2.02 4.5-4.5 4.5s-4.5-2.02-4.5-4.5 2.02-4.5 4.5-4.5 4.5 2.02 4.5 4.5z"/></svg>