<svg xmlns="http://www.w3.org/2000/svg" version="1.0" viewBox="0 0 512 512" fill="#3b8bea"><path d="M224 1.5c-46.2 6-85.6 22.2-124 50.9A345.4 345.4 0 0052.4 100a258.7 258.7 0 00-44.9 92.5c-6 23.3-7 32.7-7 64 .1 30.1 1.2 40.6 7.1 63.5 3.2 12 5.1 15.9 9.3 18.7 9.6 6.5 22.2 2 25.2-9 1-3.7.7-5.8-2.5-18.7a212.3 212.3 0 01-6.6-55.8c0-58.4 21.9-112.1 63-154.6A223 223 0 01281.5 34 222.9 222.9 0 01399 84.9l2.5 2-7.6 7.8c-9.1 9.3-10.1 11-10.1 17.5.1 5.9 2.5 10.4 7.2 13.5 3.2 2.3 3.7 2.3 35.5 2.3s32.3 0 35.5-2.3a26 26 0 005.4-5c2-2.7 2.1-4.2 2.4-33.5.3-35.1 0-37.3-6.8-41.8-9.2-6.1-15.2-4.4-28.2 8.4l-9.7 9.4-8.3-6.6a253 253 0 00-133-55.5 397.2 397.2 0 00-59.8.4z"/><path d="M192.8 147.9a959.8 959.8 0 00-59.9 21.7c-5 4.5-4.9 3.8-4.9 60.2 0 58.9.3 62.3 6.6 81.1A160.8 160.8 0 00176 375c19 19.1 38.3 33.1 63.7 46.2 9.3 4.8 12.1 5.8 16.3 5.8 4.2 0 7-1 16.3-5.8A241.2 241.2 0 00336 375a160.4 160.4 0 0041.4-64.1c6.3-18.9 6.6-22.4 6.6-81.4 0-50.8-.1-53.1-2-56.2a15 15 0 00-4.2-4.7c-1.3-.8-28.1-10.3-59.7-21-46.3-15.8-58.5-19.6-62.5-19.5-3.9 0-19.3 4.9-62.8 19.8zm124 67.7c10.8 4.5 16.2 17.4 11.4 27.2-1 2-15.9 21.5-33 43.4-26.4 33.5-31.9 39.9-35.5 41.7a20.3 20.3 0 01-17.2.2c-6.4-3-44.6-36.3-47.2-41.2A20.3 20.3 0 01213 257c7.3 0 10.3 1.6 22.7 12.4 6.2 5.3 11.5 9.6 12 9.6.4-.1 11.4-13.6 24.3-30.1a472.9 472.9 0 0125.5-31.2c6.7-3.9 13.4-4.6 19.3-2.1z"/><path d="M478.3 172.1a17 17 0 00-8.9 11.6c-.4 2 .7 8.3 3 17.4a332 332 0 015.1 26.2c2 15.4 1.9 42.2-.1 57.9a224.8 224.8 0 01-163.2 186.4 231.4 231.4 0 01-99.8 3.9 230.8 230.8 0 01-102.9-49.7c-.6-.5 2-3.8 6.7-8.6 9-9.2 10-10.9 10-17.4a15.8 15.8 0 00-7.2-13.6c-3.4-2.3-3.4-2.3-36.6-2l-33.3.3-3.2 3c-5.7 5.4-5.9 6.6-5.9 39.2 0 33.7.5 35.9 7.3 40.2 9.3 5.7 15 3.9 27.9-8.7l9.7-9.4 8.3 6.6A255.5 255.5 0 00228.5 511c13.5 1.5 45.6 1.2 59.2-.5a256.8 256.8 0 00219.8-204c4.4-21.5 5.9-56 3.4-78.3-2.5-22.6-9-49.1-13.1-53a22.6 22.6 0 00-12.5-5.2c-1.5 0-4.7.9-7 2.1z"/></svg>