<svg xmlns="http://www.w3.org/2000/svg" height="568" viewBox="-42 0 426 426.667" width="568" fill="#209cee"><path d="M320.344 426.668H21.68c-8.277 0-15.81-4.8-19.328-12.29s-2.367-16.34 2.94-22.7l148.61-178.348L5.293 35.008a21.37 21.37 0 0 1-2.941-22.719C5.87 4.8 13.402 0 21.68 0h298.664c11.777 0 21.336 9.535 21.336 21.332v64c0 11.797-9.56 21.336-21.336 21.336s-21.332-9.54-21.332-21.336V42.668H67.227L198.062 199.66c6.594 7.914 6.594 19.4 0 27.328L67.227 384h231.785v-42.668c0-11.797 9.56-21.332 21.332-21.332s21.336 9.535 21.336 21.332v64c0 11.797-9.56 21.336-21.336 21.336zm0 0"/></svg>