<svg xmlns="http://www.w3.org/2000/svg" version="1.0" viewBox="0 0 512 512" fill="#209cee"><path d="M226 1.6c-35 5.6-67.1 19.8-93.5 41.4a195.7 195.7 0 00-69.8 155.1 49 49 0 01-5.6 22.9c-1.5 3-13 20.3-25.6 38.5a1606.6 1606.6 0 00-27.2 40C.1 306.3 0 306.6 0 315.3c0 10.6 1.4 14.1 7.8 19.7 6.9 6.2 11.2 7 35.4 7H64v32.8c0 26.4.3 33.9 1.6 38.7a48 48 0 0032.3 32.9c11.2 3.3 19.9 2.3 47.3-5.3l24.7-6.8.3 33.8c.3 32.4.4 33.9 2.4 36.6 1.1 1.5 3.6 3.8 5.4 5.1l3.3 2.2h96.1c94.1 0 96.2 0 99.4-2 1.8-1.1 4.1-3.4 5.2-5.2 1.9-3.2 2-5.2 2-56.3.1-69.9.9-80.9 8.1-102.8a127.2 127.2 0 0118.5-36.4c3.8-5 8.5-11.8 10.6-15.1l3.6-5.9-18.1-.6c-12-.4-20.2-1.1-24.1-2.2a57 57 0 01-40.1-43c-1-4.7-1.5-13.1-1.5-25.4v-18.3l-3.3-3.2c-21.1-19.9-26.8-26.9-34.8-42A118.2 118.2 0 01289 95.3c0-27.6 8.6-53.2 25.4-75.3 3.5-4.7 6.1-8.8 5.8-9.2-1.3-1.2-17-5.7-27.8-7.9A283.6 283.6 0 00226 1.6z"/><path d="M395.5 1.7a98 98 0 00-67.2 54.1 99.4 99.4 0 00-3.5 71.2 97.2 97.2 0 0029.2 42 59.9 59.9 0 0114 16.2c1.6 3.4 3 7.2 3 8.5v2.3H460.7l1.3-4.6c2-7.1 7.9-15.2 17.3-23.7a96.7 96.7 0 0029.3-45.2c2.6-8.4 2.8-10.3 2.8-27 .1-18.9-.4-21.9-5.6-35.5-5.7-14.8-19.9-33-33.2-42.5a100 100 0 00-36.9-16 139 139 0 00-40.2.2zM372.1 226.8c.4 9.7.7 11.5 3.4 16.8 2.5 4.8 4.1 6.5 8.5 9.1l5.4 3.3h26.3c19.9 0 27.2-.3 29.6-1.3 5.2-2.2 9.8-6.8 12.3-12.2 2-4.3 2.4-6.6 2.4-15.8V216h-88.2l.3 10.8z"/></svg>