<svg xmlns="http://www.w3.org/2000/svg" version="1.0" viewBox="0 0 512 512" fill="#3b8bea"><path d="M76 1.4a104 104 0 00-36.6 16.1A106.5 106.5 0 006.2 60C1 73.6.5 76.6.6 95.5c0 16.7.2 18.6 2.8 27a96.7 96.7 0 0029.3 45.2A55.6 55.6 0 0150 191.4l1.3 4.6H141v-2.3c0-1.3 1.4-5.1 3-8.5 2.4-4.6 5.6-8.4 14-16.2a100.1 100.1 0 0023.8-29.5A88.9 88.9 0 00192 95.1a88 88 0 00-8.3-39.3 97.7 97.7 0 00-67.9-54.2c-9.2-1.9-31.6-2-39.8-.2z"/><path d="M234 .7c-12.1 1.3-40 8-42.2 10.1-.3.4 2.3 4.5 5.8 9.2A122.4 122.4 0 01223 95.3c0 22.1-4.2 39.9-13.9 58.3-8 15.1-13.7 22.1-34.8 42l-3.3 3.2v18.3c0 12.3-.5 20.7-1.5 25.4a57 57 0 01-40.1 43c-3.9 1.1-12.1 1.8-24.1 2.2l-18.1.6 3.6 5.9c2.1 3.3 6.8 10.1 10.6 15.1 7.7 10.3 14 22.7 18.5 36.4 7.2 21.9 8 32.9 8.1 102.8 0 51.1.1 53.1 2 56.3 1.1 1.8 3.4 4.1 5.2 5.2 3.2 2 5.3 2 99.4 2h96.1l3.3-2.3a26 26 0 005.4-5c2-2.7 2.1-4.2 2.4-36.6l.3-33.8 24.7 6.8c27.4 7.6 36.1 8.6 47.3 5.3a48 48 0 0032.3-32.9c1.3-4.8 1.6-12.3 1.6-38.7V342h20.8c24.2 0 28.5-.8 35.4-7 6.4-5.6 7.8-9.1 7.8-19.7 0-8.7-.1-9-4.3-15.8-2.4-3.9-14.6-21.9-27.2-40a781.7 781.7 0 01-25.6-38.5 49 49 0 01-5.6-22.9c.8-7-1-29.6-3.4-41.7a212.4 212.4 0 00-31-74.9A212.9 212.9 0 00379.5 43a192.9 192.9 0 00-94.6-41.4c-9.8-1.5-40.5-2-50.9-.9z"/><path d="M52 226.7c0 9.2.4 11.5 2.4 15.8 2.5 5.4 7.1 10 12.3 12.2 2.4 1 9.7 1.3 29.6 1.3h26.3l5.4-3.3c4.4-2.6 6-4.3 8.5-9.1 2.7-5.3 3-7.1 3.4-16.8l.3-10.8H52v10.7z"/></svg>