<svg enable-background="new 0 0 24 24" height="512" viewBox="0 0 24 24" width="512" xmlns="http://www.w3.org/2000/svg"><path d="m7 14.5v-5c0-.552-.448-1-1-1h-5c-.552 0-1 .448-1 1v13.5c0 .552.448 1 1 1h5c.552 0 1-.448 1-1v-7z"/><path d="m9.5 24h13.5c.552 0 1-.448 1-1v-6c0-.552-.448-1-1-1h-13.5c-.552 0-1 .448-1 1v6c0 .552.448 1 1 1z"/><path d="m9.5 14.5h13.5c.552 0 1-.448 1-1v-4c0-.552-.448-1-1-1h-13.5c-.552 0-1 .448-1 1v4c0 .552.448 1 1 1z"/><path d="m23 0h-22c-.552 0-1 .448-1 1v5c0 .552.448 1 1 1h6 1.5 14.5c.552 0 1-.448 1-1v-5c0-.552-.448-1-1-1z"/></svg>