<svg version="1.0" xmlns="http://www.w3.org/2000/svg" width="512pt" height="512pt" viewBox="0 0 512 512" fill="#3b8bea">
<g transform="translate(0,512) scale(0.1,-0.1)">
<path d="M2385 4621 c-216 -62 -394 -243 -449 -457 -20 -77 -21 -250 -2 -322
36 -135 125 -269 230 -349 60 -45 157 -95 210 -109 l26 -6 0 -329 0 -329 -907
0 c-888 0 -909 -1 -941 -20 -18 -11 -41 -34 -52 -52 -19 -32 -20 -52 -20 -469
l0 -437 -26 -6 c-53 -14 -150 -64 -210 -109 -105 -80 -194 -214 -230 -349 -19
-72 -18 -245 2 -322 57 -220 248 -410 465 -461 82 -19 236 -19 318 0 217 51
408 241 465 461 21 81 21 247 0 327 -33 129 -123 264 -228 344 -60 45 -157 95
-210 109 l-26 6 0 329 0 329 800 0 800 0 0 -329 0 -329 -26 -6 c-53 -14 -150
-64 -210 -109 -105 -80 -194 -214 -230 -349 -19 -72 -18 -245 2 -322 57 -220
248 -410 465 -461 82 -19 236 -19 318 0 217 51 408 241 465 461 21 81 21 247
0 327 -33 129 -123 264 -228 344 -60 45 -157 95 -210 109 l-26 6 0 329 0 329
800 0 800 0 0 -329 0 -329 -26 -6 c-53 -14 -150 -64 -210 -109 -105 -80 -194
-214 -230 -349 -19 -72 -18 -245 2 -322 57 -220 248 -410 465 -461 82 -19 236
-19 318 0 217 51 408 241 465 461 21 81 21 247 0 327 -33 129 -123 264 -228
344 -60 45 -157 95 -210 109 l-26 6 0 437 c0 417 -1 437 -20 469 -11 18 -34
41 -52 52 -32 19 -53 20 -940 20 l-908 0 0 329 0 329 26 6 c53 14 150 64 210
109 105 80 195 215 228 344 21 80 21 246 0 327 -56 218 -242 404 -460 460 -84
22 -259 20 -339 -3z"/>
</g>
</svg>
