<svg xmlns="http://www.w3.org/2000/svg" version="1.0" viewBox="0 0 512 512" fill="#3b8bea"><path d="M239.4 22.9c-4.9 3-5.4 6.1-5.4 30.8 0 25.4.5 27.9 6.6 30.8 4.6 2.2 9.7 1.1 12.9-2.7l2.5-3V53.2c0-22.8-.2-25.9-1.8-27.8a10.9 10.9 0 00-14.8-2.5zM152.3 47.5c-5.5 5.5-4.8 8.3 8.8 31.9 12.1 21 14.3 23.6 20.7 23.6 2.5 0 4.3-.9 6.8-3.4 5.9-5.9 5.3-8.6-7.8-31.3a165.3 165.3 0 00-14.1-21.9c-4.5-3.8-10-3.3-14.4 1.1zM324.8 45.5c-1.8 1-6.3 7.8-14.2 21.5a280 280 0 00-12.2 22.5c-1.5 6.2 4.4 13.5 10.9 13.5 5.8 0 8.1-2.6 19.8-22.8A210 210 0 00341.3 57c2.4-8.9-7.9-16.1-16.5-11.5zM409.4 65.7c-3 2.5-4.4 5.6-4.4 9.6 0 5.2 3 8.2 10.8 10.7 7 2.3 17 7.4 31.1 15.9 11.6 7 12.3 7 27.3-3.2 12.7-8.6 19.8-11.9 28-13.1 6.4-.9 9.8-4.9 9.8-11.3 0-3.6-.6-5-2.9-7.4-2.6-2.5-3.7-2.9-8.8-2.9-10 0-20.9 4.2-35.6 13.7l-6.9 4.4-7.6-4.5c-14.4-8.4-25.1-12.8-32.2-13.3-5.2-.3-6.9 0-8.6 1.4zM93.1 107.2c-6.1 3.3-8.2 11.5-4.3 16.7 2.2 3 39.5 24.8 43.9 25.7 4.4.8 9.8-1.9 11.8-6.2 2.2-4.7.6-10.5-3.8-13.7a335.5 335.5 0 00-41.9-23.3c-1.8-.3-4.4.1-5.7.8zM229.9 107.5a96.4 96.4 0 1055.4 7.3 105.1 105.1 0 00-55.4-7.3zM389 107.1a346.5 346.5 0 00-41.5 25.1c-6.1 7.2.6 19 9.9 17.5 3.4-.5 39.3-20.8 43.2-24.4a11 11 0 00-1.5-17c-3.6-2.5-6.1-2.8-10.1-1.2zM66.9 194.9a11 11 0 000 15.3l2.9 3.3h52.4l2.9-3.3a11 11 0 000-15.3l-2.9-2.9H69.8l-2.9 2.9zM366.2 194.5a10.8 10.8 0 002.3 17.9c4.6 2.2 46.8 2.3 52 .2 7.5-3.2 8.7-13.5 2.1-18.8-1.9-1.6-5-1.8-27.8-1.8h-25.6l-3 2.5zM110.4 267.5a509 509 0 00-21.3 12.9c-2.1 2.2-3 9-1.5 12.4 1.6 4 6.6 6.6 11.3 5.9 3.9-.5 39-20.3 42.9-24.1 4.8-4.7 4.4-13.3-.9-17-5.3-3.7-9.1-2.4-30.5 9.9zM349 258.7c-4 3.6-5 9.5-2.2 13.8 2.6 4.1 41.5 26.5 46.1 26.5 9.5 0 14.7-10.6 8.7-17.7-1.4-1.6-11.2-8-21.9-14.1-22.1-12.7-25.1-13.5-30.7-8.5zM2.9 322.9a11 11 0 000 15.3l2.9 3.3h500.4l2.9-3.3a11 11 0 000-15.3l-2.9-2.9H5.8l-2.9 2.9zM91.3 363.5c-5.3 2.3-7.8 9.6-5.2 14.8 2 3.9 5.1 5.7 9.9 5.7 4.8 0 7.9-1.8 9.9-5.7 2.7-5.3 0-12.6-5.4-14.9-4.2-1.7-5.1-1.7-9.2.1zM135.3 362.7c-3.9.8-7.3 5.9-7.3 11 0 3.6.6 5 2.9 7.4l2.9 2.9h47.4c43.3 0 47.5-.2 49.4-1.8 4.5-3.6 5.6-9 2.8-14.3-3-5.8-4-5.9-52.1-5.8-24.1.1-44.8.4-46 .6zM258.9 386.9c-3.9 4-4.1 10.5-.4 14.9 6.3 7.5 19.5 3.1 19.5-6.6 0-7-4.2-11.1-11.3-11.2-4 0-5.3.5-7.8 2.9zM302.2 386.5a10.6 10.6 0 00-2.7 12.9c3.1 6.6 3.3 6.6 52.5 6.6s49.4 0 52.5-6.6c2.2-4.6 1.1-9.7-2.7-12.9l-3-2.5h-93.6l-3 2.5zM155.3 427.4a11.5 11.5 0 00-5.2 14.9c2 3.9 5.1 5.7 10.2 5.7 4 0 5.3-.5 7.8-2.9 4.6-4.7 4.1-13.6-1-16.8a14 14 0 00-11.8-.9zM199.3 426.7c-3.9.8-7.3 5.9-7.3 11 0 3.6.6 5 2.9 7.4l2.9 2.9h73l3-2.5c3.8-3.2 4.9-8.3 2.7-12.9-3.1-6.4-4.3-6.6-41.7-6.5-18.3.1-34.3.4-35.5.6zM304.3 427.6a11 11 0 00-2.1 17.9c4.2 3.6 11.5 3.5 15.1-.1 5.5-5.5 4-15.1-2.7-17.9-4.4-1.9-6.3-1.9-10.3.1zM216.4 472.4c-2.8 2.8-3.4 4.2-3.4 7.6 0 5.7 5 11 10.4 11 7.1 0 11.9-4.5 11.9-11s-4.8-11-11.9-11c-2.8 0-4.4.8-7 3.4zM261.5 470.2c-3.7 2-5.5 5.1-5.5 9.8 0 6.9 4.3 11 11.5 11 5.5 0 10.5-5.3 10.5-11 0-3.4-.6-4.8-3.4-7.6-2.7-2.7-4.2-3.4-7.2-3.4a15 15 0 00-5.9 1.2zM303.3 470.9c-6.8 4.3-6.3 15 .8 18.6 3.8 2 10.1 1.5 12.9-1a12.2 12.2 0 000-17c-3-2.7-9.9-3-13.7-.6z"/></svg>