<svg version="1.0" xmlns="http://www.w3.org/2000/svg" width="512pt" height="512pt" viewBox="0 0 512 512" fill="#3b8bea">
<g transform="translate(0,512) scale(0.1,-0.1)">
<path d="M832 5099 c-71 -28 -144 -101 -171 -174 l-21 -56 0 -2309 c0 -2308 0
-2309 21 -2364 25 -67 84 -131 157 -169 l54 -27 1679 0 c1670 0 1679 0 1733
21 67 25 133 86 166 154 l25 50 3 1780 2 1780 -668 667 -667 668 -1130 -1
c-1111 0 -1131 0 -1183 -20z m2879 -1257 c-423 -2 -447 0 -485 51 -20 28 -21
40 -24 440 l-3 412 451 -450 450 -450 -389 -3z m-769 -894 c31 -15 50 -64 40
-101 -5 -17 -152 -412 -326 -877 -238 -634 -323 -851 -341 -867 -30 -27 -88
-39 -124 -27 -14 5 -35 26 -45 45 l-20 36 323 864 c178 475 331 877 340 894
10 16 28 36 42 42 24 13 78 9 111 -9z m-1077 -200 c33 -25 57 -80 48 -105 -4
-10 -96 -152 -205 -315 -109 -164 -198 -300 -198 -303 0 -3 93 -144 206 -314
205 -308 206 -309 195 -344 -26 -79 -106 -105 -161 -52 -16 15 -124 170 -240
345 -160 240 -213 327 -217 357 -5 37 4 53 220 377 131 197 237 346 253 357
38 25 65 24 99 -3z m1489 3 c16 -11 122 -160 253 -357 216 -324 225 -340 220
-377 -4 -30 -57 -117 -218 -359 -118 -176 -226 -331 -242 -344 -58 -49 -130
-24 -158 55 -11 32 -8 37 195 342 113 170 206 311 206 314 0 3 -89 139 -198
303 -109 163 -201 305 -205 315 -16 42 49 127 97 127 11 0 34 -9 50 -19z"/>
</g>
</svg>
