<svg xmlns="http://www.w3.org/2000/svg" viewBox="0 0 24 24"><path d="M15.25 13.5c-.173 0-.346-.06-.488-.18a.75.75 0 0 1-.081-1.058l1.08-1.26L14.68 9.74a.75.75 0 1 1 1.139-.977l1.5 1.75a.75.75 0 0 1 0 .977l-1.5 1.75c-.148.173-.358.262-.57.262zm-6.5 0a.75.75 0 0 1-.57-.262l-1.5-1.75a.75.75 0 0 1 0-.977l1.5-1.75a.751.751 0 1 1 1.139.978L8.238 11l1.082 1.262a.75.75 0 0 1-.081 1.058c-.142.12-.316.18-.5.18zm2.332 1.48a.75.75 0 0 1-.563-.899l1.5-6.5c.093-.404.495-.65.9-.563a.75.75 0 0 1 .563.899l-1.5 6.5a.75.75 0 0 1-.899.563zM22.25 4H1.75A1.76 1.76 0 0 0 0 5.75v13.5A1.76 1.76 0 0 0 1.75 21h7.658c-.118.5-.43 1.314-1.262 2.146A.5.5 0 0 0 8.5 24h7a.5.5 0 0 0 .462-.309c.077-.187.034-.402-.108-.545-.83-.83-1.15-1.644-1.275-2.146h7.67A1.76 1.76 0 0 0 24 19.25V5.75A1.76 1.76 0 0 0 22.25 4zM22 17H2V6h20z"/></svg>