<svg id="bold" enable-background="new 0 0 24 24" height="512" viewBox="0 0 24 24" width="512" xmlns="http://www.w3.org/2000/svg"><path d="m15.25 13.5c-.173 0-.346-.059-.488-.181-.314-.27-.351-.743-.081-1.058l1.081-1.261-1.082-1.262c-.27-.314-.233-.788.081-1.058.315-.27.788-.233 1.058.081l1.5 1.75c.241.281.241.695 0 .977l-1.5 1.75c-.148.173-.358.262-.569.262z"/><path d="m8.75 13.5c-.211 0-.421-.089-.57-.262l-1.5-1.75c-.241-.281-.241-.695 0-.977l1.5-1.75c.269-.315.743-.351 1.058-.08.314.27.351.743.081 1.058l-1.081 1.261 1.082 1.262c.27.314.233.788-.081 1.058-.142.12-.316.18-.489.18z"/><path d="m11.082 14.981c-.404-.093-.655-.496-.563-.899l1.5-6.5c.093-.404.495-.651.899-.563.404.093.655.496.563.899l-1.5 6.5c-.091.397-.486.656-.899.563z"/><path d="m22.25 4h-20.5c-.96 0-1.75.79-1.75 1.75v13.5c0 .96.79 1.75 1.75 1.75h7.658c-.118.501-.429 1.314-1.262 2.146-.143.143-.186.358-.108.545.077.187.26.309.462.309h7c.202 0 .385-.122.462-.309s.034-.402-.108-.545c-.831-.831-1.151-1.644-1.275-2.146h7.671c.96 0 1.75-.79 1.75-1.75v-13.5c0-.96-.79-1.75-1.75-1.75zm-.25 13h-20v-11h20z"/></svg>