<svg xmlns="http://www.w3.org/2000/svg" viewBox="0 0 512.006 512.006"><path d="M508.885 205.784l-42.667-42.667c-2.005-2.005-4.715-3.115-7.552-3.115H448v-10.667a10.74 10.74 0 0 0-3.115-7.552L359.552 56.45C342.443 39.342 313.77 10.67 256 10.67c-57.728 0-84.203 26.475-103.552 45.78-3.05 3.05-3.968 7.637-2.304 11.627A10.67 10.67 0 0 0 160 74.67c86.037 0 96 36.523 96 64 0 22.827-12.928 40.213-21.184 49.067l69.696 69.696c18.86-12.757 45.653-27.82 58.155-26.7v14.613a10.74 10.74 0 0 0 3.115 7.552l53.333 53.333c2.005 1.984 4.715 3.115 7.552 3.115h.363a10.52 10.52 0 0 0 7.659-3.627l74.667-85.333a10.69 10.69 0 0 0-.471-14.593zM16.128 406.126C5.74 416.515 0 430.34 0 446.296c0 30.357 24.683 55.04 55.04 55.04a55.21 55.21 0 0 0 40.725-18.005l192.598-211.86-68.78-68.8L16.128 406.126z"/></svg>