<svg xmlns="http://www.w3.org/2000/svg" version="1.0" viewBox="0 0 512 512" fill="#209cee"><path d="M239.1 1.1a91 91 0 00-47.7 27.5A86.5 86.5 0 00207.1 156c.5 0-20.5 42.7-46.6 95L113 345.9l-3.8-1.3a91.4 91.4 0 00-47.1-.6 86.5 86.5 0 00-60.6 64c-2.2 9.6-2 28.5.5 38.8A85.7 85.7 0 0065.2 510c10.3 2.5 29.2 2.7 38.8.5a85.6 85.6 0 0066.7-78.7 85.4 85.4 0 00-32.5-72.9l-4.4-3.5 47.3-94.5 47.2-94.5 6.6 1.9c9.5 2.9 32.7 2.9 42.2 0l6.6-1.9 47.2 94.5 47.3 94.5-4.4 3.5a87 87 0 00-31.9 54.6 103 103 0 002.1 36.3 86.5 86.5 0 0064 60.7c9.6 2.2 28.5 2 38.8-.5a86 86 0 0057.8-47.5 90.3 90.3 0 002.3-66.5 86.8 86.8 0 00-57-52c-14-3.9-35-3.7-47.1.6l-3.8 1.3-47.5-94.9c-26.1-52.3-47.1-95-46.6-95 1.9 0 17.4-15.6 21.3-21.3 5.5-8.1 11.2-20.7 13.4-29.7 2.2-9 2.5-28.4.5-37.5a87.1 87.1 0 00-66-66.1c-7.2-1.5-27.9-1.7-35-.3z"/></svg>