<svg xmlns="http://www.w3.org/2000/svg" viewBox="0 0 512 512" fill="#209cee"><path d="M63.5 64l-64 64H128V64l-.3-64c-.1 0-29 28.8-64.2 64zm96.3 3.2l-.3 67.3-2.6 5.5c-3.7 8-8.1 12.5-15.7 16.2l-6.7 3.3-134.5.6v131.2c0 150.4-.9 136.8 9.5 147.3C19.7 448.9 5.7 448 160 448s140.3.9 150.6-9.4c10.4-10.4 9.4 12.2 9.4-214.5 0-227 1-204-9.5-214.7-9.8-9.9-5.1-9.4-83.1-9.4h-67.3l-.3 67.2zM198 213.9c5.7 4.2 6.8.6-28.4 94.6l-35 89.4c-1.7 1.7-3.9 2.5-7.5 2.9-4.6.4-5.3.2-8.1-2.6-1.6-1.7-3-4.1-3-5.3s14.7-41.4 32.6-89.3c36.2-96.7 34.6-93.4 42.8-92.2 2.2.4 5.2 1.5 6.6 2.5zM91 234c6.1 6.6 6.4 5.9-16.5 40.2l-20.7 31 19.5 29.2 20.6 31.4c.9 1.7 1 3.1.1 5.6-2.2 6.9-8.6 9.8-14.4 6.6-1.5-.7-12-15.6-25.2-35.3-21.8-32.8-22.6-34.3-22.2-38.2.4-3.3 4.9-10.6 22.6-37.2 14.6-21.8 23.1-33.7 24.9-34.7 4.5-2.4 8.1-2 11.3 1.4zm147.1-1.5c2.1 1.1 9.2 11 25.1 34.7 17.7 26.7 22.2 34 22.6 37.3.4 3.9-.4 5.4-21.9 37.8-20.1 30.3-22.8 33.9-26.6 35.8-3.7 1.8-4.6 1.9-6.9.7-1.5-.7-3.5-2.4-4.5-3.8-4.3-6-4.5-5.4 17.6-38.7l20.7-31.1-20.3-30.3-20.6-32c-.6-2.1 3.1-9.5 5.4-10.8 2.6-1.5 6-1.3 9.4.4zm97.7 18.7l-.3 187.3-2.6 5.5c-3.7 8-8.1 12.5-15.7 16.2l-6.7 3.3-118.5.6v11.2c0 14.8 1.5 19.2 9.5 27.3 10.2 10.3-3.8 9.4 150.5 9.4s140.3.9 150.6-9.4c10.4-10.4 9.4 12.2 9.4-214.5 0-227 1-204-9.5-214.7-9.9-10-4.1-9.4-91.2-9.4H336l-.2 187.2zm143.2 5.6c1.9 1.9 3.1 4.4 3.5 7.3.3 2.4.5 18.8.3 36.4-.3 34.3-.4 35.1-5.5 37.4-3 1.4-7.9 1.4-10.4.1-4.3-2.4-4.9-5.7-4.9-27.5v-20.7l-3.1 2.6c-6.7 5.7-16.9 1.5-16.9-7 0-3.4 1-4.7 12.8-16.7 7-7.1 13.6-13.3 14.7-13.7 3.7-1.6 6.6-1 9.5 1.8zm-65.7-.7c5 2.3 5.2 3.6 5.2 40.9s-.2 38.6-5.2 40.9c-3.3 1.5-49.3 1.5-52.6 0-5-2.3-5.2-3.6-5.2-40.9 0-36.9.2-38.6 4.9-40.8 3-1.5 49.8-1.5 52.9-.1zM392 383.3c5 3.9 5 3.8 5 42v35.9l-2.9 2.9c-2.3 2.3-3.8 2.9-7.1 2.9s-4.8-.6-7.1-2.9l-2.9-2.9v-43.3l-3.3 2.5c-7.4 5.6-16.7 1.4-16.7-7.5 0-4 .5-4.7 11.3-15.7 6.1-6.3 12.6-12.3 14.2-13.3 3.4-2.2 7.3-2.4 9.5-.6zm85.3.8c5 2.3 5.2 3.6 5.2 40.9s-.2 38.6-5.2 40.9c-3.3 1.5-49.3 1.5-52.6 0-5-2.3-5.2-3.6-5.2-40.9 0-36.9.2-38.6 4.9-40.8 3-1.5 49.8-1.5 52.9-.1zM376 297v22h22v-44h-22v22zm64 128v22h22v-44h-22v22z"/></svg>