<svg height="512" viewBox="0 0 24 24" width="512" xmlns="http://www.w3.org/2000/svg" fill="#209cee"><path d="M13.25 7a.75.75 0 01-.75-.75V.75a.75.75 0 011.5 0v5.5c0 .41-.34.75-.75.75zM18.25 7h-2.5a.75.75 0 01-.75-.75V4.5c0-.96.79-1.75 1.75-1.75h.5c.14 0 .25-.11.25-.25v-.75a.25.25 0 00-.25-.25h-1.5a.75.75 0 010-1.5h1.5C18.21 0 19 .79 19 1.75v.75c0 .96-.79 1.75-1.75 1.75h-.5a.25.25 0 00-.25.25v1h1.75a.75.75 0 010 1.5zM22.25 4.25h-1.5a.75.75 0 010-1.5h1.5c.14 0 .25-.11.25-.25v-.75a.25.25 0 00-.25-.25h-1.5a.75.75 0 010-1.5h1.5C23.21 0 24 .79 24 1.75v.75c0 .96-.79 1.75-1.75 1.75z"/><path d="M22.25 7h-1.5a.75.75 0 010-1.5h1.5c.14 0 .25-.11.25-.25V4.5a.25.25 0 00-.25-.25h-1.5a.75.75 0 010-1.5h1.5c.96 0 1.75.79 1.75 1.75v.75C24 6.21 23.21 7 22.25 7zM13.25 9c-.45 0-.88-.11-1.25-.3V20c0 .55-.45 1-1 1s-1-.45-1-1V4c0-.37.2-.69.5-.86V.75c0-.26.04-.51.1-.75h-.85C8.79 0 8 .79 8 1.75v20.5c0 .96.79 1.75 1.75 1.75h2.5c.96 0 1.75-.79 1.75-1.75V8.89c-.24.07-.49.11-.75.11zM0 21v1.25C0 23.21.79 24 1.75 24h2.5C5.21 24 6 23.21 6 22.25V21zM6 19V7.75C6 6.79 5.21 6 4.25 6h-2.5C.79 6 0 6.79 0 7.75V19zM16 21v1.25c0 .96.79 1.75 1.75 1.75h2.5c.96 0 1.75-.79 1.75-1.75V21zM22 9v10h-6V9h2.25c.45 0 .87-.12 1.25-.31.38.19.8.31 1.25.31z"/></svg>